<svg width="128" height="190" viewBox="0 0 128 190" fill="none" xmlns="http://www.w3.org/2000/svg">
<mask id="path-1-outside-1" maskUnits="userSpaceOnUse" x="0.972656" y="0.647339" width="127" height="189" fill="black">
<rect fill="white" x="0.972656" y="0.647339" width="127" height="189"/>
<path fill-rule="evenodd" clip-rule="evenodd" d="M13.3771 14.9686C8.63666 19.6001 8.63665 27.1092 13.3771 31.7407L71.2021 88.2362L6.52801 151.423C1.78754 156.055 1.78754 163.564 6.52801 168.195L22.2896 183.595C27.0301 188.226 34.7159 188.226 39.4564 183.595L109.637 115.028C110.17 114.506 110.644 113.949 111.058 113.362C111.637 112.968 112.188 112.518 112.705 112.013L121.761 103.165C126.501 98.5338 126.501 91.0247 121.761 86.3932L39.5998 6.12095C34.8593 1.48947 27.1735 1.48947 22.433 6.12095L13.3771 14.9686Z"/>
</mask>
<path d="M13.3771 31.7407L14.7748 30.3101L13.3771 31.7407ZM13.3771 14.9686L11.9795 13.5381L13.3771 14.9686ZM71.2021 88.2362L72.5998 89.6668L74.064 88.2362L72.5998 86.8057L71.2021 88.2362ZM6.52801 151.423L7.92568 152.854H7.92568L6.52801 151.423ZM6.52801 168.195L7.92568 166.765L7.92568 166.765L6.52801 168.195ZM22.2896 183.595L20.8919 185.025H20.8919L22.2896 183.595ZM39.4564 183.595L40.854 185.025H40.854L39.4564 183.595ZM109.637 115.028L108.239 113.597L108.239 113.597L109.637 115.028ZM111.058 113.362L109.931 111.71L109.632 111.914L109.423 112.209L111.058 113.362ZM112.705 112.013L111.307 110.582L112.705 112.013ZM121.761 103.165L120.363 101.735L121.761 103.165ZM121.761 86.3932L123.159 84.9626L121.761 86.3932ZM39.5998 6.12095L38.2021 7.55151H38.2021L39.5998 6.12095ZM22.433 6.12095L21.0354 4.69038V4.69038L22.433 6.12095ZM14.7748 30.3101C10.8374 26.4633 10.8374 20.246 14.7748 16.3992L11.9795 13.5381C6.43589 18.9542 6.43588 27.7551 11.9795 33.1713L14.7748 30.3101ZM72.5998 86.8057L14.7748 30.3101L11.9795 33.1713L69.8045 89.6668L72.5998 86.8057ZM7.92568 152.854L72.5998 89.6668L69.8045 86.8057L5.13034 149.993L7.92568 152.854ZM7.92568 166.765C3.98832 162.918 3.98832 156.701 7.92568 152.854L5.13034 149.993C-0.413237 155.409 -0.413238 164.21 5.13034 169.626L7.92568 166.765ZM23.6873 182.164L7.92568 166.765L5.13033 169.626L20.8919 185.025L23.6873 182.164ZM38.0587 182.164C34.0953 186.036 27.6506 186.036 23.6873 182.164L20.8919 185.025C26.4095 190.416 35.3365 190.416 40.854 185.025L38.0587 182.164ZM108.239 113.597L38.0587 182.164L40.854 185.025L111.034 116.458L108.239 113.597ZM109.423 112.209C109.08 112.696 108.686 113.161 108.239 113.597L111.034 116.458C111.655 115.852 112.208 115.201 112.692 114.515L109.423 112.209ZM111.307 110.582C110.875 111.005 110.414 111.38 109.931 111.71L112.184 115.015C112.859 114.555 113.502 114.031 114.103 113.443L111.307 110.582ZM120.363 101.735L111.307 110.582L114.103 113.443L123.159 104.596L120.363 101.735ZM120.363 87.8237C124.301 91.6706 124.301 97.8878 120.363 101.735L123.159 104.596C128.702 99.1797 128.702 90.3787 123.159 84.9626L120.363 87.8237ZM38.2021 7.55151L120.363 87.8237L123.159 84.9626L40.9975 4.69039L38.2021 7.55151ZM23.8307 7.55151C27.7941 3.67928 34.2388 3.67928 38.2021 7.55151L40.9975 4.69039C35.4799 -0.700342 26.5529 -0.700345 21.0354 4.69038L23.8307 7.55151ZM14.7748 16.3992L23.8307 7.55151L21.0354 4.69038L11.9795 13.5381L14.7748 16.3992Z" fill="white" mask="url(#path-1-outside-1)"/>
</svg>
