<svg width="138" height="206" viewBox="0 0 138 206" fill="none" xmlns="http://www.w3.org/2000/svg">
<path fill-rule="evenodd" clip-rule="evenodd" d="M11.9581 15.6798C7.21766 20.3113 7.21766 27.8204 11.9581 32.4519L76.875 95.8763L4.37762 166.707C-0.362849 171.338 -0.362854 178.847 4.37761 183.479L23.6557 202.314C28.3962 206.945 36.082 206.945 40.8225 202.314L120.331 124.633C120.614 124.357 120.88 124.07 121.13 123.773C121.392 123.557 121.647 123.329 121.894 123.088L133.75 111.504C138.49 106.873 138.49 99.3634 133.75 94.7319L40.9812 4.09617C36.2407 -0.53531 28.5549 -0.535312 23.8144 4.09617L11.9581 15.6798Z" fill="#A7D5FF" fill-opacity="0.57"/>
</svg>
