<svg width="40" height="29" viewBox="0 0 40 29" fill="none" xmlns="http://www.w3.org/2000/svg">
<path d="M18.5073 1.36043C19.5741 0.609056 21.048 0.864729 21.7994 1.93149C22.5507 2.99826 22.2951 4.47215 21.2283 5.22353L4.65247 16.8987C3.5857 17.6501 2.11181 17.3944 1.36043 16.3277C0.609056 15.2609 0.864729 13.787 1.93149 13.0356L18.5073 1.36043Z" fill="url(#paint0_linear)"/>
<path d="M21.6524 1.36043C20.5856 0.609056 19.1118 0.864729 18.3604 1.93149C17.609 2.99826 17.8647 4.47215 18.9314 5.22353L35.5073 16.8987C36.5741 17.6501 38.0479 17.3944 38.7993 16.3277C39.5507 15.2609 39.295 13.787 38.2283 13.0356L21.6524 1.36043Z" fill="url(#paint1_linear)"/>
<path d="M18.5073 12.3604C19.5741 11.6091 21.048 11.8647 21.7994 12.9315C22.5507 13.9983 22.2951 15.4722 21.2283 16.2235L4.65247 27.8987C3.5857 28.6501 2.11181 28.3944 1.36043 27.3277C0.609056 26.2609 0.864729 24.787 1.93149 24.0356L18.5073 12.3604Z" fill="#0096EB"/>
<path d="M21.6524 12.3604C20.5856 11.6091 19.1118 11.8647 18.3604 12.9315C17.609 13.9983 17.8647 15.4722 18.9314 16.2235L35.5073 27.8987C36.5741 28.6501 38.0479 28.3944 38.7993 27.3277C39.5507 26.2609 39.295 24.787 38.2283 24.0356L21.6524 12.3604Z" fill="#0096EB"/>
<defs>
<linearGradient id="paint0_linear" x1="31.9573" y1="1.58732" x2="27.2994" y2="22.685" gradientUnits="userSpaceOnUse">
<stop stop-color="#FF0000"/>
<stop offset="1" stop-color="#CE0000"/>
</linearGradient>
<linearGradient id="paint1_linear" x1="31.9573" y1="1.58732" x2="27.2994" y2="22.685" gradientUnits="userSpaceOnUse">
<stop stop-color="#FF0000"/>
<stop offset="1" stop-color="#CE0000"/>
</linearGradient>
</defs>
</svg>
