<svg width="32" height="32" viewBox="0 0 32 32" fill="none" xmlns="http://www.w3.org/2000/svg">
<g opacity="0.3">
<path d="M17.1395 11.5H15.5V13.5H17.806L17.1395 11.5Z" fill="white"/>
<path d="M14.5 18.5V17.5H15.5V21.5H17.6L18.513 17.3915L19.489 17.6085L19.29 18.5H24.5C24.6326 18.5 24.7598 18.4473 24.8536 18.3536C24.9473 18.2598 25 18.1326 25 18V17C24.9992 16.3372 24.7356 15.7018 24.2669 15.2331C23.7982 14.7644 23.1628 14.5008 22.5 14.5H11.5C11.4071 14.5 11.316 14.4742 11.2369 14.4254C11.1579 14.3765 11.094 14.3066 11.0525 14.2235L9.691 11.5H8V18C8 18.1326 8.05268 18.2598 8.14645 18.3536C8.24021 18.4473 8.36739 18.5 8.5 18.5H14.5ZM21.5 15.5H23.5V16.5H21.5V15.5ZM19.5 15.5H20.5V16.5H19.5V15.5ZM17.5 15.5H18.5V16.5H17.5V15.5ZM15.5 15.5H16.5V16.5H15.5V15.5ZM13.5 15.5H14.5V16.5H13.5V15.5ZM11.5 15.5H12.5V16.5H11.5V15.5Z" fill="white"/>
<path d="M10.222 25.1595C10.3005 25.0955 10.3965 25.0569 10.4974 25.0487C10.5982 25.0405 10.6992 25.0631 10.787 25.1135C11.5591 25.5556 12.3842 25.8978 13.2425 26.132C13.3402 26.1585 13.4275 26.2141 13.493 26.2913C13.5584 26.3685 13.5989 26.4638 13.609 26.5645L13.9525 30H18.05L18.3935 26.5645C18.4036 26.4638 18.4441 26.3685 18.5095 26.2913C18.575 26.2141 18.6623 26.1585 18.76 26.132C19.6183 25.8978 20.4434 25.5556 21.2155 25.1135C21.3033 25.0631 21.4043 25.0405 21.5051 25.0487C21.606 25.0569 21.702 25.0955 21.7805 25.1595L24.45 27.35L27.347 24.45L25.16 21.778C25.0959 21.6997 25.0571 21.6037 25.0487 21.5028C25.0403 21.4019 25.0627 21.3009 25.113 21.213C25.5558 20.4414 25.8981 19.6164 26.1315 18.758C26.1579 18.6602 26.2134 18.5728 26.2907 18.5072C26.3679 18.4417 26.4632 18.4012 26.564 18.391L30 18.05V13.955L26.564 13.6115C26.4632 13.6013 26.3679 13.5608 26.2907 13.4953C26.2134 13.4297 26.1579 13.3423 26.1315 13.2445C25.8979 12.3861 25.5557 11.5611 25.113 10.7895C25.0627 10.7016 25.0403 10.6006 25.0487 10.4997C25.0571 10.3988 25.0959 10.3028 25.16 10.2245L27.347 7.55L24.45 4.6525L21.7765 6.8405C21.698 6.90445 21.602 6.94309 21.5011 6.95131C21.4003 6.95952 21.2993 6.93692 21.2115 6.8865C20.4394 6.4444 19.6143 6.10216 18.756 5.868C18.6583 5.84148 18.571 5.78594 18.5055 5.70871C18.4401 5.63149 18.3996 5.53622 18.3895 5.4355L18.05 2H13.955L13.6115 5.4355C13.6014 5.53622 13.5609 5.63149 13.4955 5.70871C13.43 5.78594 13.3427 5.84148 13.245 5.868C12.3867 6.10216 11.5616 6.4444 10.7895 6.8865C10.7017 6.93692 10.6007 6.95952 10.4999 6.95131C10.399 6.94309 10.303 6.90445 10.2245 6.8405L7.55 4.6525L4.653 7.55L6.84 10.2235C6.90411 10.3018 6.94293 10.3978 6.95132 10.4987C6.95971 10.5996 6.93728 10.7006 6.887 10.7885C6.44433 11.5601 6.10206 12.3851 5.8685 13.2435C5.84207 13.3413 5.78656 13.4287 5.70933 13.4943C5.6321 13.5598 5.53678 13.6003 5.436 13.6105L2 13.9525V18.05L5.436 18.3935C5.53678 18.4037 5.6321 18.4442 5.70933 18.5097C5.78656 18.5753 5.84207 18.6627 5.8685 18.7605C6.10192 19.6189 6.44419 20.444 6.887 21.2155C6.93728 21.3034 6.95971 21.4044 6.95132 21.5053C6.94293 21.6062 6.90411 21.7022 6.84 21.7805L4.653 24.45L7.55 27.35L10.222 25.1595ZM26.5 15.5H27.5V16.5H26.5V15.5ZM5.5 16.5H4.5V15.5H5.5V16.5ZM16.5 27.5H15.5V26.5H16.5V27.5ZM16 24.5C14.6141 24.5001 13.2492 24.1614 12.0241 23.5133C10.7991 22.8652 9.75112 21.9273 8.9715 20.7815L9.8 20.2185C10.4877 21.2299 11.4124 22.0578 12.4934 22.63C13.5744 23.2021 14.7789 23.5012 16.002 23.5012C17.2251 23.5012 18.4296 23.2021 19.5106 22.63C20.5916 22.0578 21.5163 21.2299 22.204 20.2185L23.0305 20.7815C22.2507 21.9276 21.2024 22.8656 19.977 23.5138C18.7516 24.1619 17.3863 24.5005 16 24.5ZM23.7785 24.4855L23.071 23.7785L23.778 23.0715L24.4855 23.7785L23.7785 24.4855ZM23.7785 7.5145L24.4855 8.2215L23.778 8.9285L23.071 8.2215L23.7785 7.5145ZM15.5 4.5H16.5V5.5H15.5V4.5ZM16 7.5C17.5958 7.49366 19.1608 7.93933 20.5138 8.78543C21.8668 9.63153 22.9526 10.8435 23.6455 12.281L22.7455 12.719C22.24 11.6797 21.5012 10.7713 20.5867 10.0647C19.6722 9.35803 18.6067 8.87231 17.4735 8.64539C16.3403 8.41848 15.17 8.45652 14.0539 8.75655C12.9378 9.05658 11.9062 9.61047 11.0395 10.375L10.3775 9.625C11.93 8.25498 13.9295 7.49929 16 7.5ZM8.2215 7.5145L8.929 8.2215L8.222 8.9285L7.5145 8.2215L8.2215 7.5145ZM7 18V11C7 10.8674 7.05268 10.7402 7.14645 10.6464C7.24021 10.5527 7.36739 10.5 7.5 10.5H10C10.0929 10.5 10.184 10.5258 10.2631 10.5746C10.3421 10.6235 10.406 10.6934 10.4475 10.7765L11.809 13.5H14.5V11C14.5 10.8674 14.5527 10.7402 14.6464 10.6464C14.7402 10.5527 14.8674 10.5 15 10.5H17.5C17.605 10.5 17.7073 10.533 17.7925 10.5944C17.8776 10.6558 17.9413 10.7424 17.9745 10.842L18.8605 13.5H22.5C23.4279 13.5011 24.3176 13.8701 24.9737 14.5263C25.6299 15.1824 25.9989 16.0721 26 17V18C26 18.3978 25.842 18.7794 25.5607 19.0607C25.2794 19.342 24.8978 19.5 24.5 19.5H19.0675L18.488 22.1085C18.4633 22.2195 18.4015 22.3188 18.3128 22.39C18.2241 22.4612 18.1137 22.5 18 22.5H15C14.8674 22.5 14.7402 22.4473 14.6464 22.3536C14.5527 22.2598 14.5 22.1326 14.5 22V19.5H8.5C8.10218 19.5 7.72064 19.342 7.43934 19.0607C7.15804 18.7794 7 18.3978 7 18ZM8.222 23.0715L8.929 23.7785L8.2215 24.4855L7.5145 23.7785L8.222 23.0715Z" fill="white"/>
</g>
</svg>
