<svg width="40" height="40" viewBox="0 0 40 40" fill="none" xmlns="http://www.w3.org/2000/svg">
<path fill-rule="evenodd" clip-rule="evenodd" d="M40 20C40 31.0457 31.0457 40 20 40C8.9543 40 0 31.0457 0 20C0 8.9543 8.9543 0 20 0C31.0457 0 40 8.9543 40 20ZM19.1627 9.5361L28.459 18.7475C29.1804 19.466 29.1804 20.6266 28.459 21.3451L19.1627 30.5565C18.4674 31.1478 17.4392 31.1478 16.7438 30.5565C15.9648 29.8951 15.8737 28.7308 16.5412 27.9588L24.5173 20.0555L16.5411 12.1337C15.8197 11.4152 15.8197 10.2546 16.5411 9.5361C17.2663 8.82128 18.4376 8.82128 19.1627 9.5361ZM18 22C16.8954 22 16 21.1046 16 20C16 18.8954 16.8954 18 18 18C19.1046 18 20 18.8954 20 20C20 21.1046 19.1046 22 18 22Z" fill="white"/>
</svg>
