<svg width="40" height="40" viewBox="0 0 40 40" fill="none" xmlns="http://www.w3.org/2000/svg">
<path fill-rule="evenodd" clip-rule="evenodd" d="M0 20C0 31.0457 8.9543 40 20 40C31.0457 40 40 31.0457 40 20C40 8.9543 31.0457 0 20 0C8.9543 0 0 8.9543 0 20ZM20.8373 9.5361L11.541 18.7475C10.8196 19.466 10.8196 20.6266 11.541 21.3451L20.8373 30.5565C21.5326 31.1478 22.5608 31.1478 23.2562 30.5565C24.0352 29.8951 24.1263 28.7308 23.4588 27.9588L15.4827 20.0555L23.4589 12.1337C24.1803 11.4152 24.1803 10.2546 23.4589 9.5361C22.7337 8.82128 21.5624 8.82128 20.8373 9.5361ZM22 22C23.1046 22 24 21.1046 24 20C24 18.8954 23.1046 18 22 18C20.8954 18 20 18.8954 20 20C20 21.1046 20.8954 22 22 22Z" fill="white"/>
</svg>
