<svg width="32" height="32" viewBox="0 0 32 32" fill="none" xmlns="http://www.w3.org/2000/svg">
<path d="M8.40516 10.1835H5.0271V16.2691H8.40516V10.1835Z" fill="white"/>
<path d="M0 21.5334V22.1908C0 23.3733 0.962062 24.3354 2.14469 24.3354H13.1267V28.0464H10.3221C9.80381 28.0464 9.38369 28.4665 9.38369 28.9848C9.38369 29.503 9.80381 29.9232 10.3221 29.9232H13.1267H18.7481H21.6778C22.1961 29.9232 22.6162 29.503 22.6162 28.9848C22.6162 28.4665 22.1961 28.0464 21.6778 28.0464H18.7481V24.3354H29.8554C31.0379 24.3354 32 23.3733 32 22.1908V21.5334H0Z" fill="white"/>
<path d="M29.8554 2.07692H2.14469C0.962062 2.07692 0 3.03898 0 4.22154V19.6567H32V4.22154C32 3.03898 31.0379 2.07692 29.8554 2.07692ZM11.7831 9.51673C11.7831 8.84967 12.3258 8.30692 12.9929 8.30692H17.7047C18.3718 8.30692 18.9146 8.84967 18.9146 9.51673V12.6926C18.9146 13.3597 18.3718 13.9024 17.7047 13.9024H12.9929C12.3258 13.9024 11.7831 13.3597 11.7831 12.6926V9.51673ZM5.78225 5.87486C5.78538 5.84423 5.78975 5.81354 5.796 5.78354C5.80225 5.75354 5.80975 5.72348 5.8185 5.69473C5.82725 5.66529 5.83787 5.63648 5.84975 5.60773C5.861 5.57961 5.87413 5.55204 5.88856 5.52523C5.90294 5.49829 5.91919 5.47142 5.93612 5.44636C5.953 5.42079 5.97113 5.39567 5.99056 5.37198C6.00994 5.34823 6.03062 5.32504 6.0525 5.30379C6.07437 5.28186 6.09756 5.26117 6.12131 5.24186C6.14444 5.22242 6.1695 5.20367 6.19513 5.18679C6.22075 5.16986 6.24706 5.15423 6.27394 5.13986C6.30081 5.12548 6.329 5.11236 6.35712 5.10042C6.38525 5.08911 6.41469 5.07848 6.44344 5.06979C6.47281 5.06042 6.50287 5.05286 6.53288 5.04729C6.56288 5.04104 6.59356 5.03667 6.62356 5.03354C6.68488 5.02729 6.74681 5.02729 6.80813 5.03354C6.83875 5.03667 6.86944 5.04104 6.89944 5.04729C6.92944 5.05292 6.95887 5.06042 6.98825 5.06979C7.01762 5.07854 7.04644 5.08917 7.07456 5.10042C7.10269 5.11223 7.13088 5.12536 7.15775 5.13986C7.18463 5.15417 7.21156 5.16979 7.23656 5.18679C7.26219 5.20367 7.28725 5.22242 7.311 5.24186C7.33475 5.26123 7.35794 5.28192 7.37919 5.30379C7.40106 5.32504 7.42175 5.34823 7.44112 5.37198C7.4605 5.39573 7.47931 5.42079 7.49619 5.44636C7.51306 5.47136 7.52875 5.49829 7.54313 5.52523C7.5575 5.55211 7.57062 5.57961 7.58256 5.60773C7.59381 5.63648 7.60444 5.66529 7.61319 5.69473C7.62256 5.72348 7.63006 5.75348 7.63569 5.78354C7.64194 5.81348 7.64631 5.84423 7.64944 5.87486C7.65256 5.90548 7.65444 5.93611 7.65444 5.96679C7.65444 5.99748 7.65256 6.02873 7.64944 6.05936C7.64631 6.08929 7.64194 6.12005 7.63569 6.14998C7.63006 6.17998 7.62256 6.21004 7.61319 6.23948C7.60444 6.26823 7.59381 6.29767 7.58256 6.32579C7.57069 6.35392 7.55756 6.38204 7.54313 6.40898C7.52875 6.43586 7.51313 6.46217 7.49619 6.48779C7.47931 6.51342 7.46056 6.53848 7.44112 6.56161C7.42175 6.58536 7.40106 6.60854 7.37919 6.63048C7.35794 6.65173 7.33475 6.67304 7.311 6.69236C7.28725 6.71179 7.26219 6.72998 7.23656 6.74679C7.21156 6.76373 7.18463 6.77992 7.15775 6.79442C7.13088 6.80873 7.10269 6.82186 7.07456 6.83317C7.04644 6.84505 7.01762 6.85567 6.98825 6.86442C6.95887 6.87323 6.92944 6.88073 6.89944 6.88692C6.86944 6.89311 6.83875 6.89754 6.80813 6.90067C6.7775 6.90386 6.74681 6.90504 6.71619 6.90504C6.68556 6.90504 6.65425 6.9038 6.62362 6.90067C6.59362 6.89754 6.56294 6.89317 6.53294 6.88692C6.50294 6.88067 6.47288 6.87317 6.4435 6.86442C6.41475 6.85567 6.38531 6.84505 6.35719 6.83317C6.32906 6.82192 6.30088 6.80879 6.274 6.79442C6.24713 6.78004 6.22081 6.76379 6.19519 6.74679C6.16956 6.72992 6.1445 6.71179 6.12138 6.69236C6.09763 6.67298 6.07444 6.65173 6.05256 6.63048C6.03069 6.60854 6.01 6.58536 5.99062 6.56161C5.97125 6.53848 5.95306 6.51342 5.93619 6.48779C5.91931 6.46217 5.903 6.43586 5.88863 6.40898C5.87425 6.38204 5.86112 6.35392 5.84981 6.32579C5.83794 6.29767 5.82731 6.26823 5.81856 6.23948C5.80981 6.21004 5.80231 6.18005 5.79606 6.14998C5.78981 6.12005 5.78544 6.08929 5.78231 6.05936C5.77919 6.02873 5.77794 5.99742 5.77794 5.96679C5.77787 5.93617 5.77912 5.90548 5.78225 5.87486ZM3.15488 5.87486C3.158 5.84423 3.16238 5.81354 3.16863 5.78354C3.17488 5.75354 3.18237 5.72348 3.19112 5.69473C3.19987 5.66529 3.2105 5.63648 3.22237 5.60773C3.23362 5.57961 3.24675 5.55204 3.26119 5.52523C3.27556 5.49829 3.29181 5.47142 3.30875 5.44636C3.32562 5.42079 3.34375 5.39567 3.36319 5.37198C3.38256 5.34823 3.40325 5.32504 3.42512 5.30379C3.447 5.28186 3.47019 5.26117 3.49394 5.24186C3.51706 5.22242 3.54212 5.20367 3.56775 5.18679C3.59337 5.16986 3.61969 5.15423 3.64656 5.13986C3.67344 5.12548 3.70162 5.11236 3.72975 5.10042C3.75787 5.08911 3.78731 5.07848 3.81606 5.06979C3.84544 5.06042 3.8755 5.05286 3.9055 5.04729C3.9355 5.04104 3.96619 5.03667 3.99619 5.03354C4.0575 5.02729 4.11944 5.02729 4.18075 5.03354C4.21137 5.03667 4.24206 5.04104 4.27206 5.04729C4.30206 5.05292 4.3315 5.06042 4.36088 5.06979C4.39025 5.07854 4.41906 5.08917 4.44719 5.10042C4.47531 5.11223 4.5035 5.12536 4.53038 5.13986C4.55725 5.15417 4.58419 5.16979 4.60919 5.18679C4.63481 5.20367 4.65988 5.22242 4.68363 5.24186C4.70738 5.26123 4.73056 5.28192 4.75181 5.30379C4.77369 5.32504 4.79437 5.34823 4.81375 5.37198C4.83312 5.39573 4.85194 5.42079 4.86881 5.44636C4.88569 5.47136 4.90131 5.49829 4.91575 5.52523C4.93013 5.55211 4.94325 5.57961 4.95519 5.60773C4.96644 5.63648 4.97706 5.66529 4.98581 5.69473C4.99519 5.72348 5.00269 5.75348 5.00831 5.78354C5.01456 5.81348 5.01894 5.84423 5.02206 5.87486C5.02519 5.90548 5.02706 5.93611 5.02706 5.96679C5.02706 5.99748 5.02519 6.02873 5.02206 6.05936C5.01894 6.08929 5.01456 6.12005 5.00831 6.14998C5.00269 6.17998 4.99519 6.21004 4.98581 6.23948C4.97706 6.26823 4.96644 6.29767 4.95519 6.32579C4.94331 6.35392 4.93019 6.38204 4.91575 6.40898C4.90137 6.43586 4.88575 6.46217 4.86881 6.48779C4.85194 6.51342 4.83312 6.53848 4.81375 6.56161C4.79437 6.58536 4.77369 6.60854 4.75181 6.63048C4.73056 6.65173 4.70738 6.67304 4.68363 6.69236C4.65988 6.71179 4.63481 6.72998 4.60919 6.74679C4.58419 6.76373 4.55725 6.77992 4.53038 6.79442C4.5035 6.80873 4.47531 6.82186 4.44719 6.83317C4.41906 6.84505 4.39025 6.85567 4.36088 6.86442C4.3315 6.87323 4.30206 6.88073 4.27206 6.88692C4.24206 6.89311 4.21137 6.89754 4.18075 6.90067C4.15013 6.90386 4.11944 6.90504 4.08881 6.90504C4.05819 6.90504 4.02688 6.9038 3.99625 6.90067C3.96625 6.89754 3.93556 6.89317 3.90556 6.88692C3.87556 6.88067 3.8455 6.87317 3.81612 6.86442C3.78737 6.85567 3.75794 6.84505 3.72981 6.83317C3.70169 6.82192 3.6735 6.80879 3.64663 6.79442C3.61975 6.78004 3.59344 6.76379 3.56781 6.74679C3.54219 6.72992 3.51712 6.71179 3.494 6.69236C3.47025 6.67298 3.44706 6.65173 3.42519 6.63048C3.40331 6.60854 3.38263 6.58536 3.36325 6.56161C3.34387 6.53848 3.32569 6.51342 3.30881 6.48779C3.29194 6.46217 3.27569 6.43586 3.26125 6.40898C3.24688 6.38204 3.23375 6.35392 3.22244 6.32579C3.21056 6.29767 3.19994 6.26823 3.19119 6.23948C3.18244 6.21004 3.17494 6.18005 3.16869 6.14998C3.16244 6.12005 3.15806 6.08929 3.15494 6.05936C3.15181 6.02873 3.15056 5.99742 3.15056 5.96679C3.1505 5.93617 3.15175 5.90548 3.15488 5.87486ZM10.2817 16.9358C10.2817 17.6029 9.73906 18.1457 9.07194 18.1457H4.36006C3.69294 18.1457 3.15025 17.6029 3.15025 16.9358V9.51673C3.15025 8.84967 3.693 8.30692 4.36006 8.30692H9.07194C9.73906 8.30692 10.2817 8.84967 10.2817 9.51673V16.9358ZM10.2769 6.05942C10.2738 6.08936 10.2694 6.12011 10.2632 6.15004C10.2576 6.18004 10.2501 6.21011 10.2407 6.23954C10.2319 6.26829 10.2213 6.29773 10.2101 6.32586C10.1982 6.35398 10.1851 6.38211 10.1706 6.40904C10.1562 6.43592 10.1406 6.46223 10.1237 6.48786C10.1068 6.51348 10.0881 6.53854 10.0686 6.56167C10.0493 6.58542 10.0286 6.60861 10.0067 6.63054C9.98544 6.65179 9.96225 6.67311 9.9385 6.69242C9.91475 6.71186 9.88969 6.73004 9.86406 6.74686C9.83906 6.76379 9.81212 6.77998 9.78525 6.79448C9.75838 6.80879 9.73019 6.82192 9.70206 6.83323C9.67394 6.84511 9.64513 6.85573 9.61575 6.86448C9.58638 6.87329 9.55694 6.88079 9.52694 6.88698C9.49694 6.89317 9.46625 6.89761 9.43563 6.90073C9.405 6.90392 9.37431 6.90511 9.34369 6.90511C9.31306 6.90511 9.28175 6.90386 9.25113 6.90073C9.22113 6.89761 9.19044 6.89323 9.16044 6.88698C9.13044 6.88073 9.10038 6.87323 9.071 6.86448C9.04225 6.85573 9.01281 6.84511 8.98469 6.83323C8.95656 6.82198 8.92837 6.80886 8.9015 6.79448C8.87463 6.78011 8.84831 6.76386 8.82269 6.74686C8.79706 6.72998 8.772 6.71186 8.74887 6.69242C8.72512 6.67305 8.70194 6.65179 8.68006 6.63054C8.65819 6.60861 8.6375 6.58542 8.61812 6.56167C8.59875 6.53854 8.58056 6.51348 8.56369 6.48786C8.54681 6.46223 8.53056 6.43592 8.51612 6.40904C8.50175 6.38211 8.48862 6.35398 8.47731 6.32586C8.46544 6.29773 8.45481 6.26829 8.44606 6.23954C8.43731 6.21011 8.42981 6.18011 8.42356 6.15004C8.41731 6.12011 8.41294 6.08936 8.40981 6.05942C8.40669 6.02879 8.40544 5.99748 8.40544 5.96686C8.40544 5.93623 8.40669 5.90561 8.40981 5.87492C8.41294 5.84429 8.41731 5.81361 8.42356 5.78361C8.42981 5.75361 8.43731 5.72354 8.44606 5.69479C8.45481 5.66536 8.46544 5.63654 8.47731 5.60779C8.48856 5.57967 8.50169 5.55211 8.51612 5.52529C8.5305 5.49836 8.54675 5.47148 8.56369 5.44642C8.58056 5.42086 8.59875 5.39573 8.61812 5.37204C8.6375 5.34829 8.65819 5.32511 8.68006 5.30386C8.70194 5.28192 8.72512 5.26123 8.74887 5.24192C8.772 5.22248 8.79706 5.20373 8.82269 5.18686C8.84831 5.16992 8.87463 5.15429 8.9015 5.13992C8.92837 5.12554 8.95656 5.11242 8.98469 5.10048C9.01281 5.08917 9.04225 5.07854 9.071 5.06986C9.10038 5.06048 9.13044 5.05292 9.16044 5.04736C9.19044 5.04111 9.22113 5.03673 9.25113 5.03361C9.31244 5.02736 9.37437 5.02736 9.43569 5.03361C9.46631 5.03673 9.497 5.04111 9.527 5.04736C9.557 5.05298 9.58644 5.06048 9.61581 5.06986C9.64519 5.07861 9.674 5.08923 9.70212 5.10048C9.73025 5.11229 9.75844 5.12542 9.78531 5.13992C9.81219 5.15423 9.83913 5.16986 9.86413 5.18686C9.88975 5.20373 9.91481 5.22248 9.93856 5.24192C9.96231 5.26129 9.9855 5.28198 10.0068 5.30386C10.0286 5.32511 10.0493 5.34829 10.0687 5.37204C10.0881 5.39579 10.1069 5.42086 10.1237 5.44642C10.1406 5.47142 10.1563 5.49836 10.1707 5.52529C10.1851 5.55217 10.1982 5.57967 10.2101 5.60779C10.2214 5.63654 10.232 5.66536 10.2408 5.69479C10.2501 5.72354 10.2576 5.75354 10.2633 5.78361C10.2695 5.81354 10.2739 5.84429 10.277 5.87492C10.2801 5.90554 10.282 5.93617 10.282 5.96686C10.2819 5.99754 10.2801 6.02873 10.2769 6.05942ZM27.8211 18.1457H12.7214C12.2032 18.1457 11.7831 17.7255 11.7831 17.2073C11.7831 16.689 12.2032 16.2689 12.7214 16.2689H27.8211C28.3393 16.2689 28.7594 16.689 28.7594 17.2073C28.7594 17.7255 28.3394 18.1457 27.8211 18.1457ZM27.8211 13.7667H21.7436C21.2254 13.7667 20.8053 13.3465 20.8053 12.8283C20.8053 12.31 21.2254 11.8899 21.7436 11.8899H27.8211C28.3394 11.8899 28.7595 12.31 28.7595 12.8283C28.7595 13.3465 28.3394 13.7667 27.8211 13.7667ZM27.8211 10.1837H21.7436C21.2254 10.1837 20.8053 9.76354 20.8053 9.24529C20.8053 8.72704 21.2254 8.30692 21.7436 8.30692H27.8211C28.3394 8.30692 28.7595 8.72704 28.7595 9.24529C28.7595 9.76354 28.3394 10.1837 27.8211 10.1837Z" fill="white"/>
</svg>
