<svg width="32" height="32" viewBox="0 0 32 32" fill="none" xmlns="http://www.w3.org/2000/svg">
<g opacity="0.6">
<path d="M17.038 10.1835H13.6599V12.0255H17.038V10.1835Z" fill="white"/>
<path d="M8.40516 10.1835H5.0271V16.269H8.40516V10.1835Z" fill="white"/>
<path d="M0 21.5334V22.1908C0 23.3733 0.962062 24.3354 2.14469 24.3354H13.1267V28.0464H10.3221C9.80381 28.0464 9.38369 28.4665 9.38369 28.9848C9.38369 29.503 9.80381 29.9231 10.3221 29.9231H13.1267H18.7481H21.6778C22.1961 29.9231 22.6162 29.503 22.6162 28.9848C22.6162 28.4665 22.1961 28.0464 21.6778 28.0464H18.7481V24.3354H29.8554C31.0379 24.3354 32 23.3733 32 22.1908V21.5334H0Z" fill="white"/>
<path d="M29.8554 2.0769H2.14469C0.962062 2.0769 0 3.03897 0 4.22153V19.6567H32V4.22153C32 3.03897 31.0379 2.0769 29.8554 2.0769ZM11.7831 9.51672C11.7831 8.84965 12.3258 8.3069 12.9929 8.3069H17.7047C18.3718 8.3069 18.9146 8.84965 18.9146 9.51672V12.6926C18.9146 13.3597 18.3718 13.9024 17.7047 13.9024H12.9929C12.3258 13.9024 11.7831 13.3597 11.7831 12.6926V9.51672ZM5.78225 5.87484C5.78538 5.84422 5.78975 5.81353 5.796 5.78353C5.80225 5.75353 5.80975 5.72347 5.8185 5.69472C5.82725 5.66528 5.83787 5.63647 5.84975 5.60772C5.861 5.57959 5.87413 5.55203 5.88856 5.52522C5.90294 5.49828 5.91919 5.4714 5.93612 5.44634C5.953 5.42078 5.97113 5.39565 5.99056 5.37197C6.00994 5.34822 6.03062 5.32503 6.0525 5.30378C6.07437 5.28184 6.09756 5.26115 6.12131 5.24184C6.14444 5.2224 6.1695 5.20365 6.19513 5.18678C6.22075 5.16984 6.24706 5.15422 6.27394 5.13984C6.30081 5.12547 6.329 5.11234 6.35712 5.1004C6.38525 5.08909 6.41469 5.07847 6.44344 5.06978C6.47281 5.0604 6.50287 5.05284 6.53288 5.04728C6.56288 5.04103 6.59356 5.03665 6.62356 5.03353C6.68488 5.02728 6.74681 5.02728 6.80813 5.03353C6.83875 5.03665 6.86944 5.04103 6.89944 5.04728C6.92944 5.0529 6.95887 5.0604 6.98825 5.06978C7.01762 5.07853 7.04644 5.08915 7.07456 5.1004C7.10269 5.11222 7.13088 5.12534 7.15775 5.13984C7.18463 5.15415 7.21156 5.16978 7.23656 5.18678C7.26219 5.20365 7.28725 5.2224 7.311 5.24184C7.33475 5.26122 7.35794 5.2819 7.37919 5.30378C7.40106 5.32503 7.42175 5.34822 7.44112 5.37197C7.4605 5.39572 7.47931 5.42078 7.49619 5.44634C7.51306 5.47134 7.52875 5.49828 7.54313 5.52522C7.5575 5.55209 7.57062 5.57959 7.58256 5.60772C7.59381 5.63647 7.60444 5.66528 7.61319 5.69472C7.62256 5.72347 7.63006 5.75347 7.63569 5.78353C7.64194 5.81347 7.64631 5.84422 7.64944 5.87484C7.65256 5.90547 7.65444 5.93609 7.65444 5.96678C7.65444 5.99747 7.65256 6.02872 7.64944 6.05934C7.64631 6.08928 7.64194 6.12003 7.63569 6.14997C7.63006 6.17997 7.62256 6.21003 7.61319 6.23947C7.60444 6.26822 7.59381 6.29765 7.58256 6.32578C7.57069 6.3539 7.55756 6.38203 7.54313 6.40897C7.52875 6.43584 7.51313 6.46215 7.49619 6.48778C7.47931 6.5134 7.46056 6.53847 7.44112 6.56159C7.42175 6.58534 7.40106 6.60853 7.37919 6.63047C7.35794 6.65172 7.33475 6.67303 7.311 6.69234C7.28725 6.71178 7.26219 6.72997 7.23656 6.74678C7.21156 6.76372 7.18463 6.7799 7.15775 6.7944C7.13088 6.80872 7.10269 6.82184 7.07456 6.83315C7.04644 6.84503 7.01762 6.85565 6.98825 6.8644C6.95887 6.87322 6.92944 6.88072 6.89944 6.8869C6.86944 6.89309 6.83875 6.89753 6.80813 6.90065C6.7775 6.90384 6.74681 6.90503 6.71619 6.90503C6.68556 6.90503 6.65425 6.90378 6.62362 6.90065C6.59362 6.89753 6.56294 6.89315 6.53294 6.8869C6.50294 6.88065 6.47288 6.87315 6.4435 6.8644C6.41475 6.85565 6.38531 6.84503 6.35719 6.83315C6.32906 6.8219 6.30088 6.80878 6.274 6.7944C6.24713 6.78003 6.22081 6.76378 6.19519 6.74678C6.16956 6.7299 6.1445 6.71178 6.12138 6.69234C6.09763 6.67297 6.07444 6.65172 6.05256 6.63047C6.03069 6.60853 6.01 6.58534 5.99062 6.56159C5.97125 6.53847 5.95306 6.5134 5.93619 6.48778C5.91931 6.46215 5.903 6.43584 5.88863 6.40897C5.87425 6.38203 5.86112 6.3539 5.84981 6.32578C5.83794 6.29765 5.82731 6.26822 5.81856 6.23947C5.80981 6.21003 5.80231 6.18003 5.79606 6.14997C5.78981 6.12003 5.78544 6.08928 5.78231 6.05934C5.77919 6.02872 5.77794 5.9974 5.77794 5.96678C5.77787 5.93615 5.77912 5.90547 5.78225 5.87484ZM3.15488 5.87484C3.158 5.84422 3.16238 5.81353 3.16863 5.78353C3.17488 5.75353 3.18237 5.72347 3.19112 5.69472C3.19987 5.66528 3.2105 5.63647 3.22237 5.60772C3.23362 5.57959 3.24675 5.55203 3.26119 5.52522C3.27556 5.49828 3.29181 5.4714 3.30875 5.44634C3.32562 5.42078 3.34375 5.39565 3.36319 5.37197C3.38256 5.34822 3.40325 5.32503 3.42512 5.30378C3.447 5.28184 3.47019 5.26115 3.49394 5.24184C3.51706 5.2224 3.54212 5.20365 3.56775 5.18678C3.59337 5.16984 3.61969 5.15422 3.64656 5.13984C3.67344 5.12547 3.70162 5.11234 3.72975 5.1004C3.75787 5.08909 3.78731 5.07847 3.81606 5.06978C3.84544 5.0604 3.8755 5.05284 3.9055 5.04728C3.9355 5.04103 3.96619 5.03665 3.99619 5.03353C4.0575 5.02728 4.11944 5.02728 4.18075 5.03353C4.21137 5.03665 4.24206 5.04103 4.27206 5.04728C4.30206 5.0529 4.3315 5.0604 4.36088 5.06978C4.39025 5.07853 4.41906 5.08915 4.44719 5.1004C4.47531 5.11222 4.5035 5.12534 4.53038 5.13984C4.55725 5.15415 4.58419 5.16978 4.60919 5.18678C4.63481 5.20365 4.65988 5.2224 4.68363 5.24184C4.70738 5.26122 4.73056 5.2819 4.75181 5.30378C4.77369 5.32503 4.79437 5.34822 4.81375 5.37197C4.83312 5.39572 4.85194 5.42078 4.86881 5.44634C4.88569 5.47134 4.90131 5.49828 4.91575 5.52522C4.93013 5.55209 4.94325 5.57959 4.95519 5.60772C4.96644 5.63647 4.97706 5.66528 4.98581 5.69472C4.99519 5.72347 5.00269 5.75347 5.00831 5.78353C5.01456 5.81347 5.01894 5.84422 5.02206 5.87484C5.02519 5.90547 5.02706 5.93609 5.02706 5.96678C5.02706 5.99747 5.02519 6.02872 5.02206 6.05934C5.01894 6.08928 5.01456 6.12003 5.00831 6.14997C5.00269 6.17997 4.99519 6.21003 4.98581 6.23947C4.97706 6.26822 4.96644 6.29765 4.95519 6.32578C4.94331 6.3539 4.93019 6.38203 4.91575 6.40897C4.90137 6.43584 4.88575 6.46215 4.86881 6.48778C4.85194 6.5134 4.83312 6.53847 4.81375 6.56159C4.79437 6.58534 4.77369 6.60853 4.75181 6.63047C4.73056 6.65172 4.70738 6.67303 4.68363 6.69234C4.65988 6.71178 4.63481 6.72997 4.60919 6.74678C4.58419 6.76372 4.55725 6.7799 4.53038 6.7944C4.5035 6.80872 4.47531 6.82184 4.44719 6.83315C4.41906 6.84503 4.39025 6.85565 4.36088 6.8644C4.3315 6.87322 4.30206 6.88072 4.27206 6.8869C4.24206 6.89309 4.21137 6.89753 4.18075 6.90065C4.15013 6.90384 4.11944 6.90503 4.08881 6.90503C4.05819 6.90503 4.02688 6.90378 3.99625 6.90065C3.96625 6.89753 3.93556 6.89315 3.90556 6.8869C3.87556 6.88065 3.8455 6.87315 3.81612 6.8644C3.78737 6.85565 3.75794 6.84503 3.72981 6.83315C3.70169 6.8219 3.6735 6.80878 3.64663 6.7944C3.61975 6.78003 3.59344 6.76378 3.56781 6.74678C3.54219 6.7299 3.51712 6.71178 3.494 6.69234C3.47025 6.67297 3.44706 6.65172 3.42519 6.63047C3.40331 6.60853 3.38263 6.58534 3.36325 6.56159C3.34387 6.53847 3.32569 6.5134 3.30881 6.48778C3.29194 6.46215 3.27569 6.43584 3.26125 6.40897C3.24688 6.38203 3.23375 6.3539 3.22244 6.32578C3.21056 6.29765 3.19994 6.26822 3.19119 6.23947C3.18244 6.21003 3.17494 6.18003 3.16869 6.14997C3.16244 6.12003 3.15806 6.08928 3.15494 6.05934C3.15181 6.02872 3.15056 5.9974 3.15056 5.96678C3.1505 5.93615 3.15175 5.90547 3.15488 5.87484ZM10.2817 16.9358C10.2817 17.6029 9.73906 18.1457 9.07194 18.1457H4.36006C3.69294 18.1457 3.15025 17.6029 3.15025 16.9358V9.51672C3.15025 8.84965 3.693 8.3069 4.36006 8.3069H9.07194C9.73906 8.3069 10.2817 8.84965 10.2817 9.51672V16.9358ZM10.2769 6.0594C10.2738 6.08934 10.2694 6.12009 10.2632 6.15003C10.2576 6.18003 10.2501 6.21009 10.2407 6.23953C10.2319 6.26828 10.2213 6.29772 10.2101 6.32584C10.1982 6.35397 10.1851 6.38209 10.1706 6.40903C10.1562 6.4359 10.1406 6.46222 10.1237 6.48784C10.1068 6.51347 10.0881 6.53853 10.0686 6.56165C10.0493 6.5854 10.0286 6.60859 10.0067 6.63053C9.98544 6.65178 9.96225 6.67309 9.9385 6.6924C9.91475 6.71184 9.88969 6.73003 9.86406 6.74684C9.83906 6.76378 9.81212 6.77997 9.78525 6.79447C9.75838 6.80878 9.73019 6.8219 9.70206 6.83322C9.67394 6.84509 9.64513 6.85572 9.61575 6.86447C9.58638 6.87328 9.55694 6.88078 9.52694 6.88697C9.49694 6.89315 9.46625 6.89759 9.43563 6.90072C9.405 6.9039 9.37431 6.90509 9.34369 6.90509C9.31306 6.90509 9.28175 6.90384 9.25113 6.90072C9.22113 6.89759 9.19044 6.89322 9.16044 6.88697C9.13044 6.88072 9.10038 6.87322 9.071 6.86447C9.04225 6.85572 9.01281 6.84509 8.98469 6.83322C8.95656 6.82197 8.92837 6.80884 8.9015 6.79447C8.87463 6.78009 8.84831 6.76384 8.82269 6.74684C8.79706 6.72997 8.772 6.71184 8.74887 6.6924C8.72512 6.67303 8.70194 6.65178 8.68006 6.63053C8.65819 6.60859 8.6375 6.5854 8.61812 6.56165C8.59875 6.53853 8.58056 6.51347 8.56369 6.48784C8.54681 6.46222 8.53056 6.4359 8.51612 6.40903C8.50175 6.38209 8.48862 6.35397 8.47731 6.32584C8.46544 6.29772 8.45481 6.26828 8.44606 6.23953C8.43731 6.21009 8.42981 6.18009 8.42356 6.15003C8.41731 6.12009 8.41294 6.08934 8.40981 6.0594C8.40669 6.02878 8.40544 5.99747 8.40544 5.96684C8.40544 5.93622 8.40669 5.90559 8.40981 5.8749C8.41294 5.84428 8.41731 5.81359 8.42356 5.78359C8.42981 5.75359 8.43731 5.72353 8.44606 5.69478C8.45481 5.66534 8.46544 5.63653 8.47731 5.60778C8.48856 5.57965 8.50169 5.55209 8.51612 5.52528C8.5305 5.49834 8.54675 5.47147 8.56369 5.4464C8.58056 5.42084 8.59875 5.39572 8.61812 5.37203C8.6375 5.34828 8.65819 5.32509 8.68006 5.30384C8.70194 5.2819 8.72512 5.26122 8.74887 5.2419C8.772 5.22247 8.79706 5.20372 8.82269 5.18684C8.84831 5.1699 8.87463 5.15428 8.9015 5.1399C8.92837 5.12553 8.95656 5.1124 8.98469 5.10047C9.01281 5.08915 9.04225 5.07853 9.071 5.06984C9.10038 5.06047 9.13044 5.0529 9.16044 5.04734C9.19044 5.04109 9.22113 5.03672 9.25113 5.03359C9.31244 5.02734 9.37437 5.02734 9.43569 5.03359C9.46631 5.03672 9.497 5.04109 9.527 5.04734C9.557 5.05297 9.58644 5.06047 9.61581 5.06984C9.64519 5.07859 9.674 5.08922 9.70212 5.10047C9.73025 5.11228 9.75844 5.1254 9.78531 5.1399C9.81219 5.15422 9.83913 5.16984 9.86413 5.18684C9.88975 5.20372 9.91481 5.22247 9.93856 5.2419C9.96231 5.26128 9.9855 5.28197 10.0068 5.30384C10.0286 5.32509 10.0493 5.34828 10.0687 5.37203C10.0881 5.39578 10.1069 5.42084 10.1237 5.4464C10.1406 5.4714 10.1563 5.49834 10.1707 5.52528C10.1851 5.55215 10.1982 5.57965 10.2101 5.60778C10.2214 5.63653 10.232 5.66534 10.2408 5.69478C10.2501 5.72353 10.2576 5.75353 10.2633 5.78359C10.2695 5.81353 10.2739 5.84428 10.277 5.8749C10.2801 5.90553 10.282 5.93615 10.282 5.96684C10.2819 5.99753 10.2801 6.02872 10.2769 6.0594ZM27.8211 18.1457H12.7214C12.2032 18.1457 11.7831 17.7255 11.7831 17.2073C11.7831 16.689 12.2032 16.2689 12.7214 16.2689H27.8211C28.3393 16.2689 28.7594 16.689 28.7594 17.2073C28.7594 17.7255 28.3394 18.1457 27.8211 18.1457ZM27.8211 13.7667H21.7436C21.2254 13.7667 20.8053 13.3465 20.8053 12.8283C20.8053 12.31 21.2254 11.8899 21.7436 11.8899H27.8211C28.3394 11.8899 28.7595 12.31 28.7595 12.8283C28.7595 13.3465 28.3394 13.7667 27.8211 13.7667ZM27.8211 10.1837H21.7436C21.2254 10.1837 20.8053 9.76353 20.8053 9.24528C20.8053 8.72703 21.2254 8.3069 21.7436 8.3069H27.8211C28.3394 8.3069 28.7595 8.72703 28.7595 9.24528C28.7595 9.76353 28.3394 10.1837 27.8211 10.1837Z" fill="white"/>
</g>
</svg>
