<svg width="32" height="32" viewBox="0 0 32 32" fill="none" xmlns="http://www.w3.org/2000/svg">
<path d="M19.3984 0.94136H12.6016C10.8354 0.94136 9.39844 2.3783 9.39844 4.14454V4.71479H11.2734V4.14454C11.2734 3.41217 11.8693 2.81636 12.6016 2.81636H19.3984C20.1307 2.81636 20.7266 3.41217 20.7266 4.14454V4.71479H22.6016V4.14454C22.6016 2.37836 21.1646 0.94136 19.3984 0.94136Z" fill="white"/>
<path d="M16.9453 16.9414V14.1132H15.0547V16.9414C15.0547 17.4591 14.6349 17.8789 14.1172 17.8789H11.2891V19.7695H14.1172C14.6349 19.7695 15.0547 20.1892 15.0547 20.707V23.5351H16.9453V20.707C16.9453 20.1892 17.3651 19.7695 17.8828 19.7695H20.7109V17.8789H17.8828C17.3651 17.8789 16.9453 17.4592 16.9453 16.9414Z" fill="white"/>
<path d="M0 11.3554V26.2931C0 28.5999 1.64781 30.5287 3.82806 30.9655V6.68294C1.64781 7.11969 0 9.0485 0 11.3554Z" fill="white"/>
<path d="M28.1719 6.68294V30.9655C30.3521 30.5287 31.9999 28.5999 31.9999 26.293V11.3554C31.9999 9.0485 30.3521 7.11969 28.1719 6.68294Z" fill="white"/>
<path d="M26.297 6.58989H5.70312V31.0586H26.297V6.58989ZM22.586 20.707C22.586 21.2248 22.1663 21.6445 21.6485 21.6445H18.8204V24.4726C18.8204 24.9904 18.4006 25.4101 17.8829 25.4101H14.1173C13.5995 25.4101 13.1798 24.9904 13.1798 24.4726V21.6445H10.3516C9.83388 21.6445 9.41413 21.2248 9.41413 20.707V16.9414C9.41413 16.4236 9.83388 16.0039 10.3516 16.0039H13.1798V13.1758C13.1798 12.658 13.5995 12.2383 14.1173 12.2383H17.8829C18.4006 12.2383 18.8204 12.658 18.8204 13.1758V16.0039H21.6485C22.1663 16.0039 22.586 16.4236 22.586 16.9414V20.707Z" fill="white"/>
</svg>
