<svg width="32" height="32" viewBox="0 0 32 32" fill="none" xmlns="http://www.w3.org/2000/svg">
<g opacity="0.4" clip-path="url(#clip0)">
<path d="M31.359 14.1064L28.6874 13.2158C28.6027 12.8285 28.5 12.4446 28.3801 12.0669L30.2481 9.96037C30.5159 9.65844 30.5604 9.21906 30.3586 8.86963L29.3545 7.13044C29.1528 6.781 28.7504 6.59987 28.3547 6.68069L25.5907 7.24619C25.3249 6.95513 25.0452 6.67537 24.7539 6.40906L25.3194 3.64544C25.4003 3.25006 25.2191 2.84731 24.8697 2.64556L23.1304 1.64137C22.7811 1.43962 22.3417 1.484 22.0397 1.75188L19.9331 3.61994C19.5557 3.50012 19.1719 3.39731 18.7843 3.31238L17.8936 0.641C17.7659 0.258187 17.4076 0 17.0041 0H14.9958C14.5923 0 14.2341 0.258188 14.1065 0.640938L13.2157 3.31231C12.8282 3.39731 12.4443 3.50006 12.0669 3.61987L9.96037 1.75188C9.65837 1.48406 9.219 1.43969 8.86963 1.64137L7.13037 2.64556C6.78087 2.84731 6.59975 3.25006 6.68069 3.64544L7.24619 6.40906C6.95487 6.67531 6.67519 6.95506 6.40931 7.24619L3.64538 6.68069C3.24994 6.59981 2.84725 6.781 2.64556 7.13044L1.64144 8.86963C1.43963 9.21906 1.48413 9.6585 1.75194 9.96037L3.62 12.0669C3.50006 12.4446 3.39737 12.8285 3.31262 13.2158L0.641062 14.1064C0.258188 14.2341 0 14.5923 0 14.9958V17.0042C0 17.4077 0.25825 17.766 0.641125 17.8936L3.3125 18.7838C3.39725 19.1713 3.5 19.5552 3.61994 19.9331L1.75188 22.0396C1.48413 22.3416 1.43962 22.7809 1.64137 23.1304L2.6455 24.8696C2.84731 25.219 3.24981 25.4002 3.64531 25.3193L6.40925 24.7538C6.67525 25.045 6.95487 25.3247 7.24613 25.5907L6.68062 28.3546C6.59975 28.7499 6.78087 29.1526 7.13031 29.3544L8.86956 30.3585C9.21912 30.5603 9.65838 30.5158 9.96031 30.248L12.0669 28.3799C12.4445 28.4998 12.8284 28.6026 13.2157 28.6873L14.1064 31.3589C14.234 31.7417 14.5923 31.9999 14.9958 31.9999H17.0041C17.4076 31.9999 17.7658 31.7417 17.8934 31.3589L18.7841 28.6873C19.1714 28.6026 19.5553 28.4998 19.9329 28.3799L22.0395 30.248C22.3414 30.5157 22.7808 30.5602 23.1303 30.3585L24.8695 29.3544C25.2189 29.1526 25.4001 28.7499 25.3192 28.3546L24.7537 25.5907C25.0449 25.3247 25.3246 25.045 25.5906 24.7538L28.3545 25.3193C28.7499 25.4003 29.1526 25.2191 29.3543 24.8696L30.3584 23.1304C30.5602 22.7809 30.5158 22.3415 30.2479 22.0396L28.3799 19.9331C28.4998 19.5552 28.6026 19.1713 28.6873 18.7838L31.3587 17.8936C31.7416 17.766 31.9998 17.4077 31.9998 17.0042V14.9958C32 14.5923 31.7418 14.2341 31.359 14.1064ZM19.6486 7.80438L17.1062 12.2085C16.3728 11.9946 15.6055 12.0036 14.8946 12.2109L12.3526 7.80837C14.6173 6.8035 17.2692 6.743 19.6486 7.80438ZM18.075 16C18.075 17.1442 17.1441 18.075 16 18.075C14.8559 18.075 13.925 17.1441 13.925 16C13.925 14.8559 14.8559 13.925 16 13.925C17.1441 13.925 18.075 14.8558 18.075 16ZM10.7291 8.74575L13.2711 13.1484C12.7362 13.6604 12.3447 14.3205 12.1634 15.0626H7.07806C7.34837 12.4711 8.72663 10.2048 10.7291 8.74575ZM10.7291 23.2542C8.72663 21.7952 7.34844 19.5289 7.07806 16.9375H12.1634C12.3447 17.6796 12.7362 18.3396 13.2711 18.8516L10.7291 23.2542ZM12.3514 24.1956L14.8938 19.7915C15.6272 20.0054 16.3945 19.9964 17.1054 19.7891L19.6474 24.1916C17.3827 25.1965 14.7308 25.257 12.3514 24.1956ZM21.2709 23.2542L18.7289 18.8516C19.2638 18.3396 19.6552 17.6795 19.8366 16.9375H24.9219C24.6516 19.5288 23.2734 21.7952 21.2709 23.2542ZM19.8367 15.0625C19.6553 14.3204 19.2638 13.6604 18.729 13.1483L21.2709 8.74569C23.2734 10.2047 24.6517 12.4711 24.922 15.0624H19.8367V15.0625Z" fill="white"/>
</g>
<defs>
<clipPath id="clip0">
<rect width="32" height="32" fill="white"/>
</clipPath>
</defs>
</svg>
