<svg width="760" height="387" viewBox="0 0 760 387" fill="none" xmlns="http://www.w3.org/2000/svg">
<mask id="mask0" mask-type="alpha" maskUnits="userSpaceOnUse" x="0" y="0" width="760" height="387">
<rect width="760" height="386.909" fill="#C4C4C4"/>
</mask>
<g mask="url(#mask0)">
<path d="M-119.997 -71.1038C-131.441 -104.845 -137.163 -121.715 -128.785 -133.403C-120.407 -145.091 -102.593 -145.091 -66.9639 -145.091H825.869C861.941 -145.091 879.977 -145.091 888.344 -133.253C896.712 -121.416 890.695 -104.413 878.661 -70.4082L729.944 349.82C723.563 367.851 720.372 376.866 713.107 382.001C705.842 387.137 696.279 387.137 677.152 387.137H75.5652C56.1863 387.137 46.4969 387.137 39.1831 381.895C31.8694 376.652 28.7571 367.476 22.5326 349.124L-119.997 -71.1038Z" fill="#0096EB" fill-opacity="0.7"/>
</g>
</svg>
