<svg width="53" height="53" viewBox="0 0 53 53" fill="none" xmlns="http://www.w3.org/2000/svg">
<rect x="9" y="7" width="33" height="39" fill="white"/>
<path fill-rule="evenodd" clip-rule="evenodd" d="M0 26.5001C0 41.1356 11.8645 53.0001 26.5 53.0001C41.1355 53.0001 53 41.1356 53 26.5001C53 11.8645 41.1355 6.10352e-05 26.5 6.10352e-05C11.8645 6.10352e-05 0 11.8645 0 26.5001ZM27.9024 8.97301L12.3311 24.4021C11.1227 25.6056 11.1227 27.5496 12.3311 28.7531L27.9024 44.1822C29.0671 45.1726 30.7893 45.1726 31.954 44.1822C33.259 43.0743 33.4114 41.1241 32.2934 39.8311L18.9334 26.593L32.2936 13.324C33.5019 12.1205 33.5019 10.1765 32.2936 8.97301C31.0789 7.7757 29.1169 7.7757 27.9024 8.97301ZM29.5 30.0001C31.433 30.0001 33 28.4331 33 26.5001C33 24.5671 31.433 23.0001 29.5 23.0001C27.567 23.0001 26 24.5671 26 26.5001C26 28.4331 27.567 30.0001 29.5 30.0001Z" fill="#0096EB"/>
</svg>
