<svg width="53" height="53" viewBox="0 0 53 53" fill="none" xmlns="http://www.w3.org/2000/svg">
<path fill-rule="evenodd" clip-rule="evenodd" d="M53 26.5001C53 41.1356 41.1355 53.0001 26.5 53.0001C11.8645 53.0001 0 41.1356 0 26.5001C0 11.8645 11.8645 6.10352e-05 26.5 6.10352e-05C41.1355 6.10352e-05 53 11.8645 53 26.5001ZM25.0976 8.97301L40.6689 24.4021C41.8773 25.6056 41.8773 27.5496 40.6689 28.7531L25.0976 44.1822C23.9329 45.1726 22.2107 45.1726 21.046 44.1822C19.741 43.0743 19.5886 41.1241 20.7066 39.8311L34.0666 26.593L20.7064 13.324C19.4981 12.1205 19.4981 10.1765 20.7064 8.97301C21.9211 7.7757 23.8831 7.7757 25.0976 8.97301ZM23.5 30.0001C21.567 30.0001 20 28.4331 20 26.5001C20 24.5671 21.567 23.0001 23.5 23.0001C25.433 23.0001 27 24.5671 27 26.5001C27 28.4331 25.433 30.0001 23.5 30.0001Z" fill="#0096EB" fill-opacity="0.87"/>
</svg>
