<svg width="360" height="234" viewBox="0 0 360 234" fill="none" xmlns="http://www.w3.org/2000/svg">
<path d="M-50.9057 46.6618C-62.3497 12.9207 -68.0717 -3.94988 -59.6942 -15.6376C-51.3166 -27.3253 -33.5021 -27.3253 2.12695 -27.3253H359.778C395.85 -27.3253 413.886 -27.3253 422.254 -15.4877C430.621 -3.65 424.604 13.3525 412.57 47.3574L359.84 196.357C353.459 214.388 350.268 223.403 343.003 228.539C335.738 233.675 326.174 233.675 307.048 233.675H52.6634C33.2845 233.675 23.595 233.675 16.2813 228.432C8.96751 223.19 5.85526 214.014 -0.369232 195.662L-50.9057 46.6618Z" fill="#0096EB" fill-opacity="0.7"/>
<path d="M-40.8072 -7.82889C-51.5763 -41.2582 -56.9608 -57.9729 -48.5736 -69.4864C-40.1864 -81 -22.6259 -81 12.4952 -81H349.477C385.015 -81 402.784 -81 411.163 -69.3433C419.542 -57.6866 413.881 -40.8436 402.558 -7.15767L352.006 143.235C345.815 161.654 342.72 170.864 335.396 176.128C328.072 181.393 318.356 181.393 298.925 181.393H60.9435C41.2674 181.393 31.4294 181.393 24.0601 176.025C16.6909 170.657 13.6743 161.293 7.64108 142.564L-40.8072 -7.82889Z" fill="url(#paint0_linear)"/>
<path d="M-40.8072 31.1711C-51.5763 -2.25819 -56.9608 -18.9729 -48.5736 -30.4864C-40.1864 -42 -22.6259 -42 12.4952 -42H349.477C385.015 -42 402.784 -42 411.163 -30.3433C419.542 -18.6866 413.881 -1.84364 402.558 31.8423L352.006 182.235C345.815 200.654 342.72 209.864 335.396 215.128C328.072 220.393 318.356 220.393 298.925 220.393H60.9435C41.2674 220.393 31.4294 220.393 24.0601 215.025C16.6909 209.657 13.6743 200.293 7.64108 181.564L-40.8072 31.1711Z" fill="url(#paint1_linear)"/>
<defs>
<linearGradient id="paint0_linear" x1="201.198" y1="-123.937" x2="169.183" y2="291.689" gradientUnits="userSpaceOnUse">
<stop stop-color="#0066FF"/>
<stop offset="0.430576" stop-color="#00369C"/>
<stop offset="0.9999" stop-color="#0031C4"/>
<stop offset="1" stop-color="#018FF6"/>
</linearGradient>
<linearGradient id="paint1_linear" x1="201.198" y1="-84.9371" x2="169.183" y2="330.689" gradientUnits="userSpaceOnUse">
<stop stop-color="#0066FF"/>
<stop offset="0.430576" stop-color="#00369C"/>
<stop offset="0.9999" stop-color="#0031C4"/>
<stop offset="1" stop-color="#018FF6"/>
</linearGradient>
</defs>
</svg>
