<svg width="17" height="17" viewBox="0 0 17 17" fill="none" xmlns="http://www.w3.org/2000/svg">
<path d="M16.3981 13.3965L13.6001 10.5985C14.1089 9.58105 14.448 8.39401 14.448 7.20698C14.448 3.22194 11.2261 0 7.24104 0C3.256 0 0.0340576 3.22194 0.0340576 7.20698C0.0340576 11.192 3.256 14.414 7.24104 14.414C8.42807 14.414 9.6151 14.0748 10.6326 13.5661L13.4306 16.3641C14.2784 17.212 15.5503 17.212 16.3981 16.3641C17.1612 15.5162 17.1612 14.2444 16.3981 13.3965ZM7.24104 12.7182C4.18867 12.7182 1.72982 10.2594 1.72982 7.20698C1.72982 4.15461 4.18867 1.69576 7.24104 1.69576C10.2934 1.69576 12.7523 4.15461 12.7523 7.20698C12.7523 10.2594 10.2934 12.7182 7.24104 12.7182Z" fill="url(#paint0_linear)"/>
<defs>
<linearGradient id="paint0_linear" x1="9.18069" y1="-2.78182" x2="5.33628" y2="23.7486" gradientUnits="userSpaceOnUse">
<stop stop-color="#0066FF"/>
<stop offset="0.430576" stop-color="#00369C"/>
<stop offset="0.9999" stop-color="#0031C4"/>
<stop offset="1" stop-color="#018FF6"/>
</linearGradient>
</defs>
</svg>
