<svg width="17" height="17" viewBox="0 0 17 17" fill="none" xmlns="http://www.w3.org/2000/svg">
<g clip-path="url(#clip0)">
<path d="M15.5524 12.9853L12.919 10.3519C13.3978 9.39429 13.717 8.27708 13.717 7.15987C13.717 3.40925 10.6845 0.376831 6.93392 0.376831C3.1833 0.376831 0.150879 3.40925 0.150879 7.15987C0.150879 10.9105 3.1833 13.9429 6.93392 13.9429C8.05113 13.9429 9.16833 13.6237 10.1259 13.1449L12.7594 15.7783C13.5574 16.5763 14.7544 16.5763 15.5524 15.7783C16.2706 14.9803 16.2706 13.7833 15.5524 12.9853ZM6.93392 12.3469C4.0611 12.3469 1.74689 10.0327 1.74689 7.15987C1.74689 4.28706 4.0611 1.97284 6.93392 1.97284C9.80674 1.97284 12.121 4.28706 12.121 7.15987C12.121 10.0327 9.80674 12.3469 6.93392 12.3469Z" fill="white"/>
</g>
<defs>
<clipPath id="clip0">
<rect width="16" height="16" fill="white" transform="translate(0.121094 0.376831)"/>
</clipPath>
</defs>
</svg>
