<svg width="22" height="23" viewBox="0 0 22 23" fill="none" xmlns="http://www.w3.org/2000/svg">
<g clip-path="url(#clip0)">
<path d="M11.4274 22.0952C11.3568 22.0952 11.2863 22.0952 11.2153 22.0949C9.54519 22.099 8.00208 22.0566 6.50139 21.9652C5.12554 21.8815 3.86966 21.406 2.86931 20.5903C1.90407 19.8033 1.24492 18.739 0.910224 17.4275C0.618929 16.2858 0.603486 15.165 0.588694 14.0809C0.577966 13.3031 0.566912 12.3814 0.564636 11.4441C0.566912 10.503 0.577966 9.58128 0.588694 8.80347C0.603486 7.71956 0.618929 6.59876 0.910224 5.45683C1.24492 4.14535 1.90407 3.08112 2.86931 2.29404C3.86966 1.47835 5.12554 1.00288 6.50155 0.919167C8.00224 0.827975 9.54568 0.785386 11.2193 0.78945C12.8899 0.785874 14.4325 0.827975 15.9332 0.919167C17.309 1.00288 18.5649 1.47835 19.5653 2.29404C20.5307 3.08112 21.1897 4.14535 21.5244 5.45683C21.8157 6.5986 21.8311 7.71956 21.8459 8.80347C21.8566 9.58128 21.8678 10.503 21.8699 11.4402C21.8678 12.3814 21.8566 13.3031 21.8459 14.0809C21.8397 14.5406 21.46 14.908 21.0024 14.9018C20.5427 14.8955 20.1753 14.5177 20.1815 14.0581C20.1921 13.2849 20.2033 12.3692 20.2054 11.4402C20.2033 10.5151 20.1921 9.59949 20.1815 8.82622C20.168 7.83937 20.154 6.81886 19.9115 5.86841C19.6669 4.90968 19.1964 4.14113 18.5134 3.58406C17.7746 2.98147 16.8724 2.64385 15.8321 2.58062C14.3667 2.49154 12.8582 2.45041 11.2193 2.45383C9.57656 2.44993 8.06791 2.49154 6.6025 2.58062C5.56216 2.64385 4.66015 2.98147 3.92119 3.5839C3.23814 4.14096 2.76771 4.90951 2.52307 5.86841C2.28054 6.81886 2.26656 7.83937 2.25307 8.82622C2.24251 9.59949 2.23145 10.5151 2.22918 11.4441C2.23145 12.3692 2.24251 13.2849 2.25307 14.0581C2.26656 15.045 2.28054 16.0655 2.52307 17.016C2.76771 17.9747 3.23814 18.7432 3.92119 19.3003C4.66015 19.9029 5.56216 20.2405 6.6025 20.3038C8.06791 20.3928 9.57689 20.4344 11.2154 20.4304C12.8583 20.4343 14.3667 20.3928 15.8321 20.3038C16.8724 20.2405 17.7744 19.9029 18.5134 19.3003C19.0054 18.899 19.3899 18.384 19.656 17.7696C19.8387 17.3479 20.3286 17.154 20.7504 17.3367C21.1723 17.5194 21.366 18.0093 21.1835 18.4311C20.8104 19.2925 20.266 20.019 19.5653 20.5903C18.5649 21.4062 17.309 21.8815 15.9332 21.9652C14.4961 22.0527 13.0198 22.0952 11.4274 22.0952ZM16.3773 11.4422C16.3773 8.57394 14.0438 6.2405 11.1756 6.2405C8.30751 6.2405 5.97391 8.57394 5.97391 11.4422C5.97391 14.3104 8.30751 16.6439 11.1756 16.6439C14.0438 16.6439 16.3773 14.3104 16.3773 11.4422ZM14.7127 11.4422C14.7127 13.3925 13.1261 14.9793 11.1756 14.9793C9.22529 14.9793 7.63845 13.3925 7.63845 11.4422C7.63845 9.49188 9.22529 7.90504 11.1756 7.90504C13.1261 7.90504 14.7127 9.49188 14.7127 11.4422ZM16.9599 4.57596C16.2705 4.57596 15.7115 5.13481 15.7115 5.82436C15.7115 6.51391 16.2705 7.07277 16.9599 7.07277C17.6494 7.07277 18.2083 6.51391 18.2083 5.82436C18.2083 5.13481 17.6494 4.57596 16.9599 4.57596Z" fill="url(#paint0_linear)"/>
</g>
<defs>
<linearGradient id="paint0_linear" x1="12.0707" y1="-2.69726" x2="7.26965" y2="30.5583" gradientUnits="userSpaceOnUse">
<stop stop-color="#0066FF"/>
<stop offset="0.430576" stop-color="#00369C"/>
<stop offset="0.9999" stop-color="#0031C4"/>
<stop offset="1" stop-color="#018FF6"/>
</linearGradient>
<clipPath id="clip0">
<rect width="21.3061" height="21.3061" fill="white" transform="translate(0.564636 0.789108)"/>
</clipPath>
</defs>
</svg>
