<svg width="65" height="65" viewBox="0 0 65 65" fill="none" xmlns="http://www.w3.org/2000/svg">
<path d="M19.2969 46.7188H9.14062V44.6875H17.2656V40.625H19.2969V46.7188Z" fill="#FF3D00"/>
<path d="M17.2656 40.625H9.73578L6.68891 37.5781H3.04688V35.5469H7.52984L10.5767 38.5938H17.2656V40.625Z" fill="#FF3D00"/>
<path d="M15.2344 51.7969H21.3281V53.8281H15.2344V51.7969Z" fill="#FF3D00"/>
<path d="M29.4531 58.9062H27.4219V48.3295L29.4531 46.2983V39.6094H31.4844V47.1392L29.4531 49.1705V58.9062Z" fill="#FF3D00"/>
<path d="M27.7195 49.468L23.3594 45.108V32.5H25.3906V44.267L29.1555 48.032L27.7195 49.468Z" fill="#FF3D00"/>
<path d="M17.2656 32.5H19.2969V38.5938H17.2656V32.5Z" fill="#FF3D00"/>
<path d="M48.1548 42.6562H40.625V40.625H47.3139L50.3608 37.5781H57.8906V39.6094H51.2017L48.1548 42.6562Z" fill="#FF3D00"/>
<path d="M46.7188 55.8594H44.6875V47.7344H53.8281V49.7656H46.7188V55.8594Z" fill="#FF3D00"/>
<path d="M38.5938 57.8906H36.5625V49.3452L38.5938 47.3139V42.6562H40.625V48.1548L38.5938 50.1861V57.8906Z" fill="#FF3D00"/>
<path d="M40.625 40.625H38.5938V36.1421L43.9695 30.7664L45.4055 32.2025L40.625 36.983V40.625Z" fill="#FF3D00"/>
<path d="M57.8906 32.5H59.9219V37.5781H57.8906V32.5Z" fill="#FF3D00"/>
<path d="M29.4531 32.5H31.4844V37.5781H29.4531V32.5Z" fill="#FF3D00"/>
<path d="M18.2812 41.6406C19.4031 41.6406 20.3125 40.7312 20.3125 39.6094C20.3125 38.4875 19.4031 37.5781 18.2812 37.5781C17.1594 37.5781 16.25 38.4875 16.25 39.6094C16.25 40.7312 17.1594 41.6406 18.2812 41.6406Z" fill="#0047FF"/>
<path d="M30.4688 40.625C31.5906 40.625 32.5 39.7156 32.5 38.5938C32.5 37.4719 31.5906 36.5625 30.4688 36.5625C29.3469 36.5625 28.4375 37.4719 28.4375 38.5938C28.4375 39.7156 29.3469 40.625 30.4688 40.625Z" fill="#0047FF"/>
<path d="M39.6094 43.6719C40.7312 43.6719 41.6406 42.7625 41.6406 41.6406C41.6406 40.5188 40.7312 39.6094 39.6094 39.6094C38.4875 39.6094 37.5781 40.5188 37.5781 41.6406C37.5781 42.7625 38.4875 43.6719 39.6094 43.6719Z" fill="#0047FF"/>
<path d="M37.5781 60.9375C38.7 60.9375 39.6094 60.0281 39.6094 58.9062C39.6094 57.7844 38.7 56.875 37.5781 56.875C36.4563 56.875 35.5469 57.7844 35.5469 58.9062C35.5469 60.0281 36.4563 60.9375 37.5781 60.9375Z" fill="#0047FF"/>
<path d="M58.9062 40.625C60.0281 40.625 60.9375 39.7156 60.9375 38.5938C60.9375 37.4719 60.0281 36.5625 58.9062 36.5625C57.7844 36.5625 56.875 37.4719 56.875 38.5938C56.875 39.7156 57.7844 40.625 58.9062 40.625Z" fill="#0047FF"/>
<path d="M54.8438 50.7812C55.9656 50.7812 56.875 49.8718 56.875 48.75C56.875 47.6282 55.9656 46.7188 54.8438 46.7188C53.7219 46.7188 52.8125 47.6282 52.8125 48.75C52.8125 49.8718 53.7219 50.7812 54.8438 50.7812Z" fill="#0047FF"/>
<path d="M45.7031 58.9062C46.825 58.9062 47.7344 57.9968 47.7344 56.875C47.7344 55.7532 46.825 54.8438 45.7031 54.8438C44.5813 54.8438 43.6719 55.7532 43.6719 56.875C43.6719 57.9968 44.5813 58.9062 45.7031 58.9062Z" fill="#0047FF"/>
<path d="M28.4375 61.9531C29.5593 61.9531 30.4688 61.0437 30.4688 59.9219C30.4688 58.8 29.5593 57.8906 28.4375 57.8906C27.3157 57.8906 26.4062 58.8 26.4062 59.9219C26.4062 61.0437 27.3157 61.9531 28.4375 61.9531Z" fill="#0047FF"/>
<path d="M8.125 47.7344C9.24683 47.7344 10.1562 46.825 10.1562 45.7031C10.1562 44.5813 9.24683 43.6719 8.125 43.6719C7.00317 43.6719 6.09375 44.5813 6.09375 45.7031C6.09375 46.825 7.00317 47.7344 8.125 47.7344Z" fill="#0047FF"/>
<path d="M14.2188 54.8438C15.3406 54.8438 16.25 53.9343 16.25 52.8125C16.25 51.6907 15.3406 50.7812 14.2188 50.7812C13.0969 50.7812 12.1875 51.6907 12.1875 52.8125C12.1875 53.9343 13.0969 54.8438 14.2188 54.8438Z" fill="#0047FF"/>
<path d="M22.3438 54.8438C23.4656 54.8438 24.375 53.9343 24.375 52.8125C24.375 51.6907 23.4656 50.7812 22.3438 50.7812C21.2219 50.7812 20.3125 51.6907 20.3125 52.8125C20.3125 53.9343 21.2219 54.8438 22.3438 54.8438Z" fill="#0047FF"/>
<path d="M45.1818 11.0937C42.7169 7.91781 39.7046 5.64483 36.3794 4.64038C37.5585 6.3771 38.5478 8.88773 39.3379 11.8879C41.4382 11.7 43.3943 11.4288 45.1818 11.0937Z" fill="#0085FF"/>
<path d="M39.0841 22.0888C38.7621 19.0551 38.3081 16.3617 37.7729 14.0369C36.024 14.1568 34.2548 14.2187 32.4998 14.2187C30.7448 14.2187 28.9756 14.1568 27.2277 14.0369C26.6924 16.3617 26.2385 19.0561 25.9165 22.0888C28.0544 22.2543 30.2552 22.3437 32.4998 22.3437C34.7443 22.3437 36.9452 22.2543 39.0841 22.0888Z" fill="#0085FF"/>
<path d="M24.9024 4.04114C20.8633 5.11668 17.1674 7.02911 14.0078 9.58239C15.0986 9.96629 16.3173 10.3228 17.6651 10.6407C19.7217 7.78981 22.1805 5.53208 24.9024 4.04114Z" fill="#0085FF"/>
<path d="M32.5 24.3749C30.1783 24.3749 27.9175 24.2845 25.7268 24.12C25.5125 26.7048 25.3906 29.5018 25.3906 32.4999H39.6094C39.6094 29.5018 39.4875 26.7048 39.2732 24.12C37.0825 24.2845 34.8217 24.3749 32.5 24.3749Z" fill="#0085FF"/>
<path d="M19.8179 11.0936C21.6054 11.4298 23.5615 11.7 25.6618 11.8879C26.4519 8.8877 27.4412 6.37708 28.6203 4.63934C25.2962 5.6438 22.2828 7.91778 19.8179 11.0936Z" fill="#0085FF"/>
<path d="M23.9112 21.911C24.2138 19.0642 24.6384 16.3403 25.1838 13.8703C22.8742 13.6489 20.6307 13.3239 18.5416 12.8953C17.1095 15.1094 15.9152 17.6596 15.0234 20.4607C17.7758 21.0955 20.7627 21.5901 23.9112 21.911Z" fill="#0085FF"/>
<path d="M32.4998 12.1875C34.1512 12.1875 35.7417 12.1357 37.2692 12.0433C35.8473 6.90727 34.0202 4.0625 32.4998 4.0625C30.9795 4.0625 29.1523 6.90727 27.7305 12.0433C29.258 12.1357 30.8484 12.1875 32.4998 12.1875Z" fill="#0085FF"/>
<path d="M5.96273 19.7081C4.095 23.5766 3.04688 27.9154 3.04688 32.4999H11.1719C11.1719 28.7959 11.638 25.2443 12.4891 21.9577C10.0984 21.3169 7.91477 20.5592 5.96273 19.7081Z" fill="#0085FF"/>
<path d="M41.2832 23.9463C41.5198 26.7525 41.6407 29.643 41.6407 32.4999H51.797C51.797 28.9615 51.3531 25.5754 50.5477 22.4483C47.6867 23.1115 44.5789 23.6193 41.2832 23.9463Z" fill="#0085FF"/>
<path d="M52.722 11.0977C51.4596 11.5994 50.0479 12.0433 48.5244 12.4262C49.9067 14.6758 51.0604 17.2158 51.9349 19.9753C54.1825 19.3761 56.2452 18.6794 58.0764 17.9014C56.6311 15.3745 54.8233 13.0833 52.722 11.0977Z" fill="#0085FF"/>
<path d="M52.5107 21.9577C53.3618 25.2443 53.828 28.7959 53.828 32.4999H61.953C61.953 27.9154 60.9049 23.5766 59.0372 19.7081C57.0851 20.5592 54.9015 21.3169 52.5107 21.9577Z" fill="#0085FF"/>
<path d="M46.4586 12.8964C44.3695 13.325 42.1259 13.65 39.8164 13.8714C40.3618 16.3403 40.7863 19.0653 41.089 21.9121C44.2384 21.5911 47.2244 21.0965 49.9767 20.4628C49.085 17.6607 47.8916 15.1104 46.4586 12.8964Z" fill="#0085FF"/>
<path d="M40.0977 4.04114C42.8195 5.53208 45.2784 7.78981 47.335 10.6397C48.6827 10.3228 49.9015 9.96528 50.9923 9.58137C47.8337 7.03012 44.1368 5.1177 40.0977 4.04114Z" fill="#0085FF"/>
<path d="M23.7169 23.9463C20.4212 23.6193 17.3134 23.1115 14.4523 22.4483C13.647 25.5754 13.2031 28.9615 13.2031 32.4999H23.3594C23.3594 29.643 23.4802 26.7525 23.7169 23.9463Z" fill="#0085FF"/>
<path d="M16.4753 12.4262C14.9529 12.0433 13.5401 11.5994 12.2777 11.0977C10.1764 13.0843 8.36857 15.3755 6.92334 17.9024C8.75451 18.6804 10.8172 19.3771 13.0648 19.9763C13.9393 17.2158 15.093 14.6758 16.4753 12.4262Z" fill="#0085FF"/>
</svg>
