<svg width="184" height="41" viewBox="0 0 184 41" fill="none" xmlns="http://www.w3.org/2000/svg">
<path fill-rule="evenodd" clip-rule="evenodd" d="M34.3149 29.2702C33.6432 26.5631 31.8968 20.8472 30.2848 19.6407L31.4938 38.7835C29.1207 36.6566 22.8697 32.1707 16.8515 31.2425C16.3143 31.1596 15.3739 30.7783 15.2396 29.2702L12.6873 0.845805C12.6873 0.845805 12.6873 -0.198498 13.8963 0.0336797C17.5679 0.575057 25.9056 2.79478 29.8819 7.34269C31.1804 8.85092 33.8581 13.2132 34.1804 18.5964C34.1823 18.6288 34.1838 18.6663 34.1851 18.7075C34.1924 18.9152 34.2027 19.2149 34.3149 19.4086C34.4268 19.2149 34.4374 18.9152 34.4445 18.7075C34.4459 18.6663 34.4472 18.6288 34.4492 18.5964C34.7716 13.2132 37.4493 8.85092 38.7478 7.34269C42.724 2.79478 51.0616 0.575057 54.7334 0.0336797C55.9425 -0.198498 55.9425 0.845805 55.9425 0.845805L53.3901 29.2702C53.2557 30.7783 52.3154 31.1596 51.7781 31.2425C45.76 32.1707 39.509 36.6566 37.1358 38.7835L38.3448 19.6407C36.7327 20.8472 34.9865 26.5631 34.3149 29.2702Z" fill="url(#paint0_linear)"/>
<mask id="mask0" mask-type="alpha" maskUnits="userSpaceOnUse" x="0" y="2" width="184" height="39">
<path d="M49.0913 38.2864C45.8673 38.8667 44.2553 39.4853 43.5836 40.0267C43.3591 40.2076 41.9717 40.4908 40.3596 40.3748C45.4104 35.7339 52.3153 33.7231 55.1362 33.2977C56.3184 33.1122 56.5243 31.9055 56.4795 31.3255L58.4945 7.0777C58.6019 5.59267 60.3304 4.75734 61.1813 4.52531L66.9576 2.90093C68.3545 2.43687 68.4352 3.01695 68.3009 3.71306L64.5395 33.8778C64.2708 35.9661 62.1215 36.1982 61.4499 36.3141L49.0913 38.2864Z" fill="url(#paint1_linear)"/>
<path d="M19.7417 38.3367C22.9657 38.9169 24.5777 39.5356 25.2494 40.077C25.4739 40.2579 26.8613 40.5411 28.4734 40.4251C23.4224 35.7843 16.5177 33.7734 13.6966 33.3481C12.5146 33.1625 12.3086 31.9558 12.3533 31.3757L10.3384 7.12799C10.2309 5.64296 8.50246 4.80763 7.65174 4.5756L1.87544 2.95123C0.478375 2.48716 0.39778 3.06724 0.532111 3.76336L4.29343 33.928C4.56209 36.0164 6.71142 36.2485 7.38308 36.3644L19.7417 38.3367Z" fill="url(#paint2_linear)"/>
<path d="M90.6201 8.97637V11.3744H84.398V14.5104H89.1635V16.8162H84.398V20.0168H90.6201V22.4148H80.8604V8.97637H90.6201ZM108.047 15.691C108.047 16.6626 107.856 17.5602 107.475 18.3842C107.1 19.202 106.569 19.9122 105.883 20.5148C105.196 21.1112 104.367 21.5786 103.396 21.9168C102.432 22.2488 101.36 22.4148 100.181 22.4148H94.2916V8.97637H100.181C101.36 8.97637 102.432 9.14552 103.396 9.48365C104.367 9.82178 105.196 10.2892 105.883 10.8856C106.569 11.482 107.1 12.1922 107.475 13.0162C107.856 13.834 108.047 14.7257 108.047 15.691ZM104.447 15.691C104.447 15.0269 104.35 14.4274 104.155 13.8924C103.961 13.3575 103.68 12.9055 103.313 12.5366C102.952 12.1616 102.508 11.8756 101.981 11.6788C101.454 11.4759 100.854 11.3744 100.181 11.3744H97.8293V20.0168H100.181C100.854 20.0168 101.454 19.9184 101.981 19.7216C102.508 19.5187 102.952 19.2328 103.313 18.8638C103.68 18.4888 103.961 18.0337 104.155 17.4988C104.35 16.9638 104.447 16.3612 104.447 15.691ZM117.707 19.9522C118.178 19.9522 118.598 19.8845 118.966 19.7493C119.34 19.6078 119.656 19.408 119.912 19.1498C120.169 18.8915 120.363 18.5779 120.495 18.209C120.634 17.8339 120.703 17.4097 120.703 16.9361V8.97637H124.22V16.9361C124.22 17.7602 124.067 18.5165 123.762 19.2051C123.464 19.8937 123.034 20.4871 122.472 20.9852C121.91 21.4833 121.227 21.8706 120.422 22.1473C119.618 22.4241 118.712 22.5624 117.707 22.5624C116.694 22.5624 115.785 22.4241 114.98 22.1473C114.176 21.8706 113.493 21.4833 112.931 20.9852C112.369 20.4871 111.939 19.8937 111.64 19.2051C111.342 18.5165 111.193 17.7602 111.193 16.9361V8.97637H114.71V16.9269C114.71 17.4004 114.776 17.8247 114.908 18.1997C115.046 18.5687 115.244 18.8854 115.501 19.1498C115.757 19.408 116.069 19.6078 116.437 19.7493C116.812 19.8845 117.235 19.9522 117.707 19.9522ZM135.303 20.1643C135.789 20.1643 136.219 20.1274 136.593 20.0536C136.968 19.9799 137.322 19.8815 137.655 19.7585V17.7201H136.156C135.934 17.7201 135.761 17.6679 135.636 17.5633C135.511 17.4587 135.449 17.3267 135.449 17.1667V15.4512H140.839V21.1236C140.45 21.3757 140.044 21.5939 139.621 21.7784C139.205 21.9568 138.758 22.1044 138.279 22.2211C137.807 22.3379 137.301 22.4241 136.76 22.4794C136.226 22.5347 135.65 22.5624 135.033 22.5624C133.923 22.5624 132.896 22.3903 131.953 22.0459C131.009 21.6954 130.191 21.2158 129.497 20.607C128.81 19.9922 128.269 19.2665 127.874 18.4303C127.485 17.5879 127.291 16.6748 127.291 15.691C127.291 14.6888 127.479 13.7694 127.853 12.9332C128.228 12.0907 128.762 11.3652 129.456 10.7565C130.156 10.1477 130.999 9.67421 131.984 9.33608C132.976 8.99795 134.082 8.8288 135.303 8.8288C135.934 8.8288 136.527 8.87491 137.082 8.96715C137.637 9.05938 138.147 9.18537 138.612 9.3453C139.083 9.50524 139.514 9.69579 139.902 9.91715C140.29 10.1385 140.637 10.3783 140.943 10.6366L139.923 12.0109C139.826 12.14 139.708 12.2414 139.569 12.3152C139.437 12.389 139.292 12.4259 139.132 12.4259C138.924 12.4259 138.709 12.3645 138.487 12.2414C138.209 12.0939 137.946 11.9679 137.696 11.8633C137.453 11.7526 137.204 11.6635 136.947 11.5958C136.69 11.5281 136.42 11.479 136.136 11.4482C135.851 11.4174 135.532 11.4021 135.178 11.4021C134.519 11.4021 133.926 11.5067 133.399 11.7157C132.872 11.9186 132.421 12.2077 132.046 12.5827C131.679 12.9577 131.394 13.4097 131.193 13.9385C130.992 14.4611 130.891 15.0453 130.891 15.691C130.891 16.4043 131.002 17.0376 131.224 17.591C131.446 18.1444 131.751 18.6117 132.14 18.993C132.535 19.3743 133 19.6663 133.534 19.8692C134.075 20.066 134.665 20.1643 135.303 20.1643ZM158.754 22.4148H156.028C155.723 22.4148 155.469 22.3534 155.268 22.2304C155.074 22.1012 154.939 21.9384 154.862 21.7415L153.968 19.3988H148.203L147.308 21.7415C147.239 21.9136 147.104 22.0704 146.903 22.2119C146.701 22.3471 146.455 22.4148 146.164 22.4148H143.417L149.285 8.97637H152.886L158.754 22.4148ZM149.015 17.2774H153.156L151.762 13.5973C151.672 13.3636 151.564 13.09 151.439 12.7764C151.321 12.4567 151.203 12.1123 151.085 11.7434C150.975 12.1184 150.86 12.4659 150.742 12.7856C150.624 13.1053 150.513 13.382 150.409 13.6157L149.015 17.2774ZM165.503 22.4148H161.965V8.97637H165.503V22.4148ZM171.835 8.97637C171.988 8.97637 172.116 8.98246 172.22 8.99482C172.324 9.00718 172.418 9.03171 172.501 9.0686C172.584 9.09941 172.664 9.14552 172.741 9.20695C172.817 9.26838 172.904 9.35139 173.001 9.45598L180.201 17.5264C180.173 17.2682 180.152 17.0192 180.138 16.7793C180.125 16.5335 180.118 16.3029 180.118 16.0876V8.97637H183.218V22.4148H181.387C181.117 22.4148 180.888 22.3779 180.7 22.3041C180.513 22.2304 180.333 22.0951 180.159 21.8983L173.011 13.8924C173.032 14.1261 173.049 14.3567 173.063 14.5842C173.077 14.8055 173.084 15.0145 173.084 15.2114V22.4148H169.983V8.97637H171.835Z" fill="#0134AC"/>
<path d="M86.1467 26.516C86.7668 26.516 87.3308 26.6065 87.8386 26.788C88.3464 26.9695 88.7821 27.2293 89.1456 27.5677C89.5091 27.901 89.7898 28.3082 89.9875 28.7886C90.1853 29.2691 90.2842 29.8111 90.2842 30.4142C90.2842 31.0173 90.1853 31.5616 89.9875 32.047C89.7898 32.5275 89.5091 32.9369 89.1456 33.2752C88.7821 33.6135 88.3464 33.8734 87.8386 34.0549C87.3308 34.2363 86.7668 34.3271 86.1467 34.3271C85.5213 34.3271 84.9519 34.2363 84.4388 34.0549C83.9309 33.8734 83.4952 33.6135 83.1317 33.2752C82.7683 32.9369 82.4849 32.5275 82.2818 32.047C82.084 31.5616 81.9851 31.0173 81.9851 30.4142C81.9851 29.8111 82.084 29.2691 82.2818 28.7886C82.4849 28.3082 82.7683 27.901 83.1317 27.5677C83.4952 27.2293 83.9309 26.9695 84.4388 26.788C84.9519 26.6065 85.5213 26.516 86.1467 26.516ZM86.1467 32.8045C86.7775 32.8045 87.2452 32.606 87.5499 32.2088C87.8546 31.8067 88.007 31.2108 88.007 30.4214C88.007 29.6368 87.8546 29.0461 87.5499 28.649C87.2452 28.2468 86.7775 28.0459 86.1467 28.0459C85.4999 28.0459 85.0241 28.2468 84.7194 28.649C84.4147 29.0461 84.2624 29.6368 84.2624 30.4214C84.2624 31.2108 84.4147 31.8067 84.7194 32.2088C85.0241 32.606 85.4999 32.8045 86.1467 32.8045ZM104.63 26.6337L101.383 34.2167H99.3779L96.1304 26.6337H97.9667C98.127 26.6337 98.2607 26.6679 98.3676 26.7366C98.4745 26.8052 98.5494 26.8935 98.5921 27.0014L99.9792 30.7525C100.07 31.0074 100.15 31.2574 100.22 31.5027C100.289 31.7429 100.351 31.9857 100.404 32.2308C100.463 31.9857 100.527 31.7429 100.597 31.5027C100.672 31.2574 100.757 31.0074 100.853 30.7525L102.289 27.0014C102.326 26.8935 102.398 26.8052 102.505 26.7366C102.612 26.6679 102.738 26.6337 102.882 26.6337H104.63ZM116.162 29.5316C116.162 29.3207 116.13 29.1197 116.066 28.9285C116.007 28.7372 115.911 28.568 115.777 28.4209C115.644 28.2738 115.475 28.1586 115.272 28.0753C115.069 27.987 114.826 27.9429 114.542 27.9429C114.013 27.9429 113.599 28.08 113.3 28.3548C113 28.6293 112.805 29.0215 112.714 29.5316H116.162ZM112.682 30.7378C112.752 31.4487 112.971 31.9685 113.34 32.2971C113.714 32.6255 114.2 32.7898 114.799 32.7898C115.104 32.7898 115.366 32.7579 115.585 32.6943C115.809 32.6255 116.005 32.5519 116.17 32.4736C116.341 32.3901 116.494 32.3166 116.627 32.253C116.766 32.1842 116.903 32.15 117.036 32.15C117.207 32.15 117.341 32.2088 117.437 32.3265L118.079 33.062C117.843 33.3121 117.584 33.5203 117.301 33.6871C117.018 33.8489 116.723 33.9788 116.419 34.077C116.114 34.17 115.807 34.2339 115.497 34.2682C115.187 34.3074 114.887 34.3271 114.599 34.3271C114.021 34.3271 113.481 34.2411 112.979 34.0696C112.482 33.893 112.046 33.6357 111.672 33.2974C111.303 32.9541 111.012 32.53 110.798 32.0249C110.584 31.5197 110.477 30.9338 110.477 30.2671C110.477 29.7522 110.568 29.2668 110.75 28.8108C110.937 28.3548 111.204 27.9576 111.552 27.6193C111.899 27.2809 112.321 27.0137 112.819 26.8175C113.316 26.6165 113.877 26.516 114.502 26.516C115.032 26.516 115.518 26.5943 115.962 26.7514C116.411 26.9032 116.796 27.1264 117.116 27.4206C117.442 27.7148 117.694 28.0776 117.87 28.5091C118.052 28.9357 118.143 29.4236 118.143 29.9729C118.143 30.1248 118.135 30.2499 118.119 30.3479C118.103 30.4459 118.076 30.5244 118.038 30.5833C118.001 30.6421 117.95 30.6837 117.886 30.7084C117.822 30.7279 117.739 30.7378 117.638 30.7378H112.682ZM127.206 27.884C127.468 27.4525 127.77 27.1117 128.112 26.8616C128.454 26.6115 128.855 26.4866 129.315 26.4866C129.689 26.4866 129.994 26.5674 130.229 26.7292L130.084 28.2296C130.058 28.3276 130.015 28.3964 129.956 28.4356C129.903 28.47 129.828 28.4872 129.731 28.4872C129.646 28.4872 129.523 28.4772 129.363 28.4577C129.202 28.4331 129.053 28.4209 128.914 28.4209C128.711 28.4209 128.529 28.4478 128.368 28.5019C128.213 28.5557 128.074 28.6318 127.951 28.7298C127.829 28.8278 127.716 28.9479 127.615 29.0903C127.518 29.2324 127.428 29.3942 127.342 29.5757V34.2167H125.129V26.6337H126.436C126.661 26.6337 126.815 26.6704 126.901 26.7439C126.987 26.8175 127.048 26.9449 127.085 27.1264L127.206 27.884ZM141.911 28.193C141.853 28.2762 141.791 28.3376 141.727 28.3767C141.668 28.4111 141.585 28.4283 141.478 28.4283C141.371 28.4283 141.262 28.4037 141.15 28.3548C141.037 28.3057 140.912 28.2541 140.773 28.2002C140.634 28.1414 140.473 28.0875 140.292 28.0384C140.115 27.9893 139.909 27.9648 139.674 27.9648C139.316 27.9648 139.038 28.0334 138.84 28.1708C138.642 28.3032 138.543 28.4797 138.543 28.7004C138.543 28.8524 138.6 28.9798 138.712 29.0828C138.824 29.1858 138.971 29.2765 139.153 29.3551C139.34 29.4286 139.551 29.4997 139.786 29.5683C140.022 29.6321 140.262 29.7031 140.508 29.7816C140.759 29.86 141.003 29.9507 141.238 30.0537C141.473 30.1567 141.681 30.2866 141.863 30.4436C142.05 30.5955 142.2 30.7819 142.312 31.0026C142.424 31.2183 142.481 31.4806 142.481 31.7895C142.481 32.1572 142.406 32.4981 142.256 32.8119C142.112 33.1209 141.898 33.3879 141.615 33.6135C141.331 33.8392 140.978 34.0157 140.556 34.1431C140.134 34.2705 139.647 34.3343 139.097 34.3343C138.813 34.3343 138.533 34.3099 138.255 34.2608C137.977 34.2167 137.712 34.1529 137.461 34.0696C137.21 33.9813 136.975 33.8808 136.755 33.7681C136.536 33.6552 136.346 33.5327 136.186 33.4003L136.699 32.6427C136.758 32.5544 136.83 32.4858 136.916 32.4367C137.007 32.3876 137.122 32.3632 137.261 32.3632C137.394 32.3632 137.517 32.3951 137.629 32.4589C137.742 32.5177 137.867 32.5838 138.006 32.6574C138.145 32.726 138.308 32.7923 138.495 32.8561C138.688 32.9149 138.926 32.9443 139.209 32.9443C139.423 32.9443 139.607 32.9222 139.762 32.878C139.917 32.8339 140.043 32.7751 140.139 32.7015C140.235 32.623 140.305 32.5372 140.348 32.4442C140.396 32.346 140.42 32.2455 140.42 32.1425C140.42 31.9758 140.361 31.8411 140.243 31.7381C140.131 31.6302 139.981 31.5369 139.794 31.4586C139.613 31.3801 139.402 31.309 139.161 31.2452C138.92 31.1814 138.674 31.1103 138.423 31.032C138.177 30.9535 137.934 30.8603 137.694 30.7525C137.458 30.6446 137.247 30.5097 137.06 30.3479C136.878 30.1811 136.729 29.9777 136.611 29.7375C136.499 29.4972 136.443 29.2055 136.443 28.8622C136.443 28.5483 136.509 28.2518 136.643 27.9723C136.777 27.6878 136.977 27.4378 137.244 27.2221C137.512 27.0062 137.843 26.8346 138.239 26.7072C138.64 26.5796 139.102 26.516 139.626 26.516C140.214 26.516 140.749 26.6043 141.23 26.7808C141.711 26.9573 142.106 27.1877 142.417 27.4722L141.911 28.193ZM154.723 29.5316C154.723 29.3207 154.691 29.1197 154.627 28.9285C154.568 28.7372 154.472 28.568 154.338 28.4209C154.204 28.2738 154.036 28.1586 153.833 28.0753C153.63 27.987 153.386 27.9429 153.103 27.9429C152.574 27.9429 152.16 28.08 151.86 28.3548C151.561 28.6293 151.366 29.0215 151.275 29.5316H154.723ZM151.243 30.7378C151.312 31.4487 151.532 31.9685 151.9 32.2971C152.275 32.6255 152.761 32.7898 153.36 32.7898C153.664 32.7898 153.926 32.7579 154.146 32.6943C154.37 32.6255 154.565 32.5519 154.731 32.4736C154.902 32.3901 155.054 32.3166 155.188 32.253C155.327 32.1842 155.463 32.15 155.597 32.15C155.768 32.15 155.902 32.2088 155.998 32.3265L156.639 33.062C156.404 33.3121 156.145 33.5203 155.862 33.6871C155.578 33.8489 155.284 33.9788 154.979 34.077C154.675 34.17 154.367 34.2339 154.057 34.2682C153.747 34.3074 153.448 34.3271 153.159 34.3271C152.582 34.3271 152.042 34.2411 151.54 34.0696C151.043 33.893 150.607 33.6357 150.233 33.2974C149.864 32.9541 149.572 32.53 149.359 32.0249C149.145 31.5197 149.038 30.9338 149.038 30.2671C149.038 29.7522 149.129 29.2668 149.311 28.8108C149.498 28.3548 149.765 27.9576 150.112 27.6193C150.46 27.2809 150.882 27.0137 151.379 26.8175C151.876 26.6165 152.438 26.516 153.063 26.516C153.592 26.516 154.079 26.5943 154.523 26.7514C154.972 26.9032 155.356 27.1264 155.677 27.4206C156.003 27.7148 156.255 28.0776 156.431 28.5091C156.613 28.9357 156.704 29.4236 156.704 29.9729C156.704 30.1248 156.695 30.2499 156.679 30.3479C156.663 30.4459 156.637 30.5244 156.599 30.5833C156.562 30.6421 156.511 30.6837 156.447 30.7084C156.383 30.7279 156.3 30.7378 156.198 30.7378H151.243ZM168.012 31.0467C167.472 31.0712 167.023 31.1153 166.665 31.1791C166.306 31.238 166.02 31.3163 165.806 31.4145C165.598 31.5125 165.448 31.6252 165.357 31.7528C165.272 31.8753 165.229 32.0101 165.229 32.1572C165.229 32.4514 165.317 32.6599 165.494 32.7825C165.676 32.905 165.927 32.9663 166.248 32.9663C166.616 32.9663 166.934 32.9075 167.202 32.7898C167.474 32.6671 167.744 32.4784 168.012 32.2235V31.0467ZM163.505 27.6854C163.992 27.2832 164.529 26.9842 165.117 26.788C165.705 26.5871 166.341 26.4866 167.025 26.4866C167.517 26.4866 167.955 26.5601 168.34 26.7072C168.731 26.8543 169.059 27.0603 169.327 27.3251C169.599 27.5849 169.808 27.8963 169.952 28.2591C170.096 28.6218 170.169 29.019 170.169 29.4506V34.2167H169.158C168.95 34.2167 168.789 34.1897 168.677 34.1359C168.57 34.0818 168.482 33.9691 168.413 33.7975L168.236 33.3121C168.028 33.4787 167.825 33.6258 167.627 33.7534C167.434 33.8808 167.234 33.9887 167.025 34.077C166.817 34.1603 166.592 34.2241 166.352 34.2682C166.117 34.3124 165.852 34.3343 165.558 34.3343C165.195 34.3343 164.863 34.2902 164.564 34.202C164.264 34.1137 164.005 33.9838 163.786 33.8122C163.572 33.6357 163.406 33.4173 163.289 33.1575C163.171 32.8977 163.112 32.5985 163.112 32.2602C163.112 31.9807 163.19 31.7012 163.345 31.4217C163.5 31.1422 163.765 30.8897 164.139 30.6643C164.518 30.4337 165.021 30.2449 165.646 30.0978C166.277 29.9458 167.065 29.86 168.012 29.8405V29.4506C168.012 28.9749 167.902 28.6268 167.683 28.4062C167.464 28.1805 167.148 28.0678 166.737 28.0678C166.432 28.0678 166.178 28.1022 165.975 28.1708C165.772 28.2346 165.593 28.3057 165.438 28.3842C165.288 28.4577 165.146 28.5288 165.013 28.5974C164.879 28.6612 164.724 28.6931 164.548 28.6931C164.393 28.6931 164.262 28.6587 164.155 28.5901C164.053 28.5166 163.968 28.4306 163.898 28.3326L163.505 27.6854ZM182.649 28.193C182.59 28.2762 182.529 28.3376 182.465 28.3767C182.406 28.4111 182.323 28.4283 182.216 28.4283C182.109 28.4283 181.999 28.4037 181.887 28.3548C181.775 28.3057 181.649 28.2541 181.51 28.2002C181.371 28.1414 181.211 28.0875 181.029 28.0384C180.853 27.9893 180.647 27.9648 180.412 27.9648C180.054 27.9648 179.775 28.0334 179.578 28.1708C179.38 28.3032 179.281 28.4797 179.281 28.7004C179.281 28.8524 179.337 28.9798 179.45 29.0828C179.562 29.1858 179.709 29.2765 179.89 29.3551C180.078 29.4286 180.289 29.4997 180.524 29.5683C180.759 29.6321 181 29.7031 181.246 29.7816C181.497 29.86 181.74 29.9507 181.975 30.0537C182.211 30.1567 182.419 30.2866 182.601 30.4436C182.788 30.5955 182.937 30.7819 183.05 31.0026C183.162 31.2183 183.218 31.4806 183.218 31.7895C183.218 32.1572 183.143 32.4981 182.994 32.8119C182.849 33.1209 182.635 33.3879 182.352 33.6135C182.069 33.8392 181.716 34.0157 181.294 34.1431C180.871 34.2705 180.385 34.3343 179.834 34.3343C179.551 34.3343 179.27 34.3099 178.992 34.2608C178.715 34.2167 178.45 34.1529 178.199 34.0696C177.947 33.9813 177.712 33.8808 177.493 33.7681C177.274 33.6552 177.084 33.5327 176.924 33.4003L177.437 32.6427C177.496 32.5544 177.568 32.4858 177.653 32.4367C177.744 32.3876 177.859 32.3632 177.998 32.3632C178.132 32.3632 178.255 32.3951 178.367 32.4589C178.479 32.5177 178.605 32.5838 178.744 32.6574C178.883 32.726 179.046 32.7923 179.233 32.8561C179.425 32.9149 179.663 32.9443 179.947 32.9443C180.16 32.9443 180.345 32.9222 180.5 32.878C180.655 32.8339 180.781 32.7751 180.877 32.7015C180.973 32.623 181.042 32.5372 181.085 32.4442C181.133 32.346 181.157 32.2455 181.157 32.1425C181.157 31.9758 181.099 31.8411 180.981 31.7381C180.869 31.6302 180.719 31.5369 180.532 31.4586C180.35 31.3801 180.139 31.309 179.899 31.2452C179.658 31.1814 179.412 31.1103 179.161 31.032C178.915 30.9535 178.672 30.8603 178.431 30.7525C178.196 30.6446 177.985 30.5097 177.798 30.3479C177.616 30.1811 177.466 29.9777 177.349 29.7375C177.236 29.4972 177.18 29.2055 177.18 28.8622C177.18 28.5483 177.247 28.2518 177.381 27.9723C177.514 27.6878 177.715 27.4378 177.982 27.2221C178.249 27.0062 178.581 26.8346 178.976 26.7072C179.377 26.5796 179.84 26.516 180.364 26.516C180.952 26.516 181.486 26.6043 181.967 26.7808C182.448 26.9573 182.844 27.1877 183.154 27.4722L182.649 28.193Z" fill="#272727"/>
</mask>
<g mask="url(#mask0)">
<path d="M0 0H185V40H0V0Z" fill="white"/>
</g>
<defs>
<linearGradient id="paint0_linear" x1="47.7285" y1="1.55628" x2="27.7996" y2="44.6657" gradientUnits="userSpaceOnUse">
<stop stop-color="#FF0000"/>
<stop offset="1" stop-color="#CE0000"/>
</linearGradient>
<linearGradient id="paint1_linear" x1="63.0322" y1="4.24566" x2="39.2304" y2="38.546" gradientUnits="userSpaceOnUse">
<stop stop-color="#FF0000"/>
<stop offset="1" stop-color="#CE0000"/>
</linearGradient>
<linearGradient id="paint2_linear" x1="5.80073" y1="4.29597" x2="29.6026" y2="38.5963" gradientUnits="userSpaceOnUse">
<stop stop-color="#FF0000"/>
<stop offset="1" stop-color="#CE0000"/>
</linearGradient>
</defs>
</svg>
