<svg width="24" height="24" viewBox="0 0 24 24" fill="none" xmlns="http://www.w3.org/2000/svg">
<g clip-path="url(#clip0)">
<path d="M11.6218 0.376831C5.27075 0.376831 0.12207 5.52566 0.12207 11.8767C0.12207 18.2276 5.27075 23.3768 11.6218 23.3768C17.9729 23.3768 23.1219 18.2276 23.1219 11.8767C23.1219 5.52566 17.9729 0.376831 11.6218 0.376831ZM11.622 4.41613L18.4273 8.65967H4.8168L11.622 4.41613ZM18.5121 15.4361H18.5114C18.5114 16.1167 17.9597 16.6683 17.2792 16.6683H5.96489C5.28424 16.6683 4.7327 16.1167 4.7327 15.4361V8.9297C4.7327 8.85771 4.74006 8.78771 4.75202 8.71894L11.254 12.7733C11.262 12.7783 11.2705 12.7817 11.2787 12.7863C11.2873 12.791 11.296 12.7957 11.3048 12.8C11.3507 12.8237 11.398 12.8428 11.4464 12.8553C11.4514 12.8567 11.4564 12.8573 11.4613 12.8584C11.5144 12.8709 11.5681 12.8788 11.6218 12.8788H11.6222C11.6226 12.8788 11.623 12.8788 11.623 12.8788C11.6766 12.8788 11.7304 12.8712 11.7834 12.8584C11.7884 12.8572 11.7934 12.8567 11.7984 12.8553C11.8467 12.8428 11.8938 12.8237 11.94 12.8C11.9487 12.7957 11.9574 12.791 11.966 12.7863C11.9742 12.7817 11.9828 12.7783 11.9907 12.7733L18.4927 8.71894C18.5047 8.78771 18.5121 8.85755 18.5121 8.9297V15.4361Z" fill="white"/>
</g>
<defs>
<clipPath id="clip0">
<rect width="23" height="23" fill="white" transform="translate(0.121094 0.376831)"/>
</clipPath>
</defs>
</svg>
