<svg width="32" height="32" viewBox="0 0 32 32" fill="none" xmlns="http://www.w3.org/2000/svg">
<path d="M16.9375 20.5592C18.0153 20.2945 18.8125 19.6007 18.8125 18.8034C18.8125 18.0061 18.0153 17.3124 16.9375 17.0477V20.5592Z" fill="white"/>
<path d="M16 5.6875C10.3137 5.6875 5.6875 10.3137 5.6875 16C5.6875 21.6863 10.3137 26.3125 16 26.3125C21.6863 26.3125 26.3125 21.6863 26.3125 16C26.3125 10.3137 21.6863 5.6875 16 5.6875ZM20.6875 18.8034C20.6875 20.6146 19.0744 22.1291 16.9375 22.4775V23.5C16.9375 24.0182 16.5182 24.4375 16 24.4375C15.4818 24.4375 15.0625 24.0182 15.0625 23.5V22.4775C12.9256 22.1291 11.3125 20.6146 11.3125 18.8034C11.3125 18.2852 11.7318 17.8659 12.25 17.8659C12.7682 17.8659 13.1875 18.2852 13.1875 18.8034C13.1875 19.6007 13.9847 20.2944 15.0625 20.5591V16.8525C12.9256 16.5041 11.3125 14.9896 11.3125 13.1784C11.3125 11.3671 12.9256 9.85262 15.0625 9.50425V8.49088C15.0625 7.97269 15.4818 7.55337 16 7.55337C16.5182 7.55337 16.9375 7.97269 16.9375 8.49088V9.50425C19.0744 9.85262 20.6875 11.3671 20.6875 13.1784C20.6875 13.6966 20.2682 14.1159 19.75 14.1159C19.2318 14.1159 18.8125 13.6966 18.8125 13.1784C18.8125 12.3811 18.0153 11.6873 16.9375 11.4226V15.1292C19.0744 15.4776 20.6875 16.9921 20.6875 18.8034Z" fill="white"/>
<path d="M15.0625 11.4226C13.9847 11.6873 13.1875 12.381 13.1875 13.1784C13.1875 13.9757 13.9847 14.6694 15.0625 14.9341V11.4226Z" fill="white"/>
<path d="M16 0C7.21187 0 0 7.21187 0 16C0 24.7881 7.21187 32 16 32C24.7881 32 32 24.7881 32 16C32 7.21187 24.7881 0 16 0ZM16 28.1875C9.28 28.1875 3.8125 22.72 3.8125 16C3.8125 9.28 9.28 3.8125 16 3.8125C22.72 3.8125 28.1875 9.28 28.1875 16C28.1875 22.72 22.72 28.1875 16 28.1875Z" fill="white"/>
</svg>
