<svg width="40" height="39" viewBox="0 0 40 39" fill="none" xmlns="http://www.w3.org/2000/svg">
<g filter="url(#filter0_d)">
<path fill-rule="evenodd" clip-rule="evenodd" d="M37.5518 17.5C37.5518 27.165 29.7167 35 20.0518 35C10.3868 35 2.55176 27.165 2.55176 17.5C2.55176 7.83502 10.3868 0 20.0518 0C29.7167 0 37.5518 7.83502 37.5518 17.5ZM19.3194 8.34406L27.4536 16.404C28.0849 17.0327 28.0849 18.0482 27.4536 18.6769L19.3194 26.7369C18.711 27.2543 17.8113 27.2543 17.2029 26.7369C16.5212 26.1582 16.4415 25.1394 17.0256 24.464L24.0047 17.5485L17.0255 10.617C16.3943 9.98828 16.3943 8.97278 17.0255 8.34406C17.66 7.7186 18.6849 7.7186 19.3194 8.34406ZM18.3021 19.25C17.3356 19.25 16.5521 18.4665 16.5521 17.5C16.5521 16.5335 17.3356 15.75 18.3021 15.75C19.2686 15.75 20.0521 16.5335 20.0521 17.5C20.0521 18.4665 19.2686 19.25 18.3021 19.25Z" fill="url(#paint0_linear)"/>
</g>
<defs>
<filter id="filter0_d" x="0.551758" y="0" width="39" height="39" filterUnits="userSpaceOnUse" color-interpolation-filters="sRGB">
<feFlood flood-opacity="0" result="BackgroundImageFix"/>
<feColorMatrix in="SourceAlpha" type="matrix" values="0 0 0 0 0 0 0 0 0 0 0 0 0 0 0 0 0 0 127 0"/>
<feOffset dy="2"/>
<feGaussianBlur stdDeviation="1"/>
<feColorMatrix type="matrix" values="0 0 0 0 0 0 0 0 0 0 0 0 0 0 0 0 0 0 0.25 0"/>
<feBlend mode="normal" in2="BackgroundImageFix" result="effect1_dropShadow"/>
<feBlend mode="normal" in="SourceGraphic" in2="effect1_dropShadow" result="shape"/>
</filter>
<linearGradient id="paint0_linear" x1="18.6498" y1="-5.72727" x2="26.5363" y2="48.9025" gradientUnits="userSpaceOnUse">
<stop stop-color="#0066FF"/>
<stop offset="0.430576" stop-color="#00369C"/>
<stop offset="0.9999" stop-color="#0031C4"/>
<stop offset="1" stop-color="#018FF6"/>
</linearGradient>
</defs>
</svg>
