<svg width="32" height="32" viewBox="0 0 32 32" fill="none" xmlns="http://www.w3.org/2000/svg">
<path d="M15.621 24.9498C16.2897 24.9498 16.8319 24.4077 16.8319 23.7389C16.8319 23.0702 16.2897 22.5281 15.621 22.5281C14.9523 22.5281 14.4102 23.0702 14.4102 23.7389C14.4102 24.4077 14.9523 24.9498 15.621 24.9498Z" fill="white"/>
<path d="M18.9991 7.42914H12.243C11.8643 7.42914 11.5562 7.72291 11.5562 8.08334V20.8545C11.5562 21.2153 11.8641 21.5087 12.243 21.5087H18.9991C19.3779 21.5087 19.686 21.2149 19.686 20.8545V8.08334C19.6858 7.72261 19.3779 7.42914 18.9991 7.42914Z" fill="white"/>
<path d="M15.6216 0.376831C7.06152 0.376831 0.12207 7.3168 0.12207 15.8765C0.12207 24.4362 7.06152 31.3768 15.6216 31.3768C24.1816 31.3768 31.1219 24.4367 31.1219 15.8765C31.1219 7.31639 24.1816 0.376831 15.6216 0.376831ZM21.6519 23.5257C21.6519 24.7097 20.6919 25.6697 19.5078 25.6697H11.7357C10.5517 25.6697 9.59164 24.7098 9.59164 23.5257V8.16021C9.59164 6.97621 10.5516 6.01614 11.7357 6.01614H19.5078C20.6918 6.01614 21.6519 6.97611 21.6519 8.16021V23.5257Z" fill="white"/>
</svg>
