<svg width="92" height="92" viewBox="0 0 92 92" fill="none" xmlns="http://www.w3.org/2000/svg">
<g clip-path="url(#clip0)">
<path d="M0.429688 71.8983C0.429688 74.8378 2.81251 77.2207 5.75205 77.2207H38.007V80.2423C38.007 83.2732 35.55 85.7304 32.5189 85.7304H20.9211V91.0528H70.7762V85.7304H59.0808C56.0499 85.7304 53.5928 83.2734 53.5928 80.2423V77.2207H85.9423C88.8818 77.2207 91.2646 74.8378 91.2646 71.8983V68.9059H0.429688L0.429688 71.8983Z" fill="url(#paint0_linear)"/>
<path d="M36.7109 0.35791L25.8094 11.2593H36.7109V0.35791Z" fill="url(#paint1_linear)"/>
<path d="M66.028 0.217773H42.033V16.5817H25.6691V53.4946H66.0278V0.217773L66.028 0.217773ZM57.7962 39.4208H33.9012V34.0985H57.7962V39.4208ZM57.7962 28.4447H33.9012V23.1224H57.7962V28.4447Z" fill="url(#paint2_linear)"/>
<path d="M85.9423 11.1937H71.3503V58.8168H20.3468V11.1937H5.75205C2.81251 11.1937 0.429688 13.5765 0.429688 16.5161V63.5833H91.2646V16.5161C91.2646 13.5767 88.8818 11.1937 85.9423 11.1937Z" fill="url(#paint3_linear)"/>
</g>
<defs>
<linearGradient id="paint0_linear" x1="74.0155" y1="69.7946" x2="70.318" y2="99.2078" gradientUnits="userSpaceOnUse">
<stop stop-color="#FF0000"/>
<stop offset="1" stop-color="#CE0000"/>
</linearGradient>
<linearGradient id="paint1_linear" x1="34.6407" y1="0.795357" x2="28.6504" y2="12.4138" gradientUnits="userSpaceOnUse">
<stop stop-color="#FF0000"/>
<stop offset="1" stop-color="#CE0000"/>
</linearGradient>
<linearGradient id="paint2_linear" x1="58.364" y1="2.35564" x2="24.9318" y2="51.4762" gradientUnits="userSpaceOnUse">
<stop stop-color="#FF0000"/>
<stop offset="1" stop-color="#CE0000"/>
</linearGradient>
<linearGradient id="paint3_linear" x1="74.0155" y1="13.296" x2="54.7056" y2="78.2319" gradientUnits="userSpaceOnUse">
<stop stop-color="#FF0000"/>
<stop offset="1" stop-color="#CE0000"/>
</linearGradient>
<clipPath id="clip0">
<rect width="90.8349" height="90.8349" fill="white" transform="translate(0.429688 0.217773)"/>
</clipPath>
</defs>
</svg>
