<svg width="109" height="106" viewBox="0 0 109 106" fill="none" xmlns="http://www.w3.org/2000/svg">
<path d="M54.5 35.1953C64.494 35.1953 72.5957 27.3166 72.5957 17.5977C72.5957 7.87874 64.494 0 54.5 0C44.506 0 36.4043 7.87874 36.4043 17.5977C36.4043 27.3166 44.506 35.1953 54.5 35.1953Z" fill="url(#paint0_linear)"/>
<path d="M67.7969 37.5793C63.9655 39.9989 59.3987 41.4063 54.4999 41.4063C49.6011 41.4063 45.0344 39.9989 41.203 37.5793C36.9675 39.1534 33.0405 41.4757 29.626 44.4561L54.4999 53.5272L79.3738 44.4561C75.9593 41.4757 72.0323 39.1532 67.7969 37.5793Z" fill="url(#paint1_linear)"/>
<path d="M92.8203 64.1797H90.6914C88.9278 64.1797 87.498 65.5701 87.498 67.2852V75.5664C87.498 77.2815 88.9278 78.6719 90.6914 78.6719H92.8203C96.9355 78.6719 100.271 75.4277 100.271 71.4258C100.271 67.4239 96.9355 64.1797 92.8203 64.1797Z" fill="url(#paint2_linear)"/>
<path d="M18.6186 48.5025C17.7576 49.0828 17.2441 50.0364 17.2441 51.055V57.9688H18.3086C23.591 57.9688 27.8887 62.1481 27.8887 67.2852V75.5664C27.8887 80.7035 23.591 84.8828 18.3086 84.8828H17.2441V91.4261C17.2441 92.7206 18.0699 93.8794 19.3162 94.3338L51.3066 106V58.9956L21.5588 48.1472C20.578 47.7892 19.4793 47.922 18.6186 48.5025Z" fill="url(#paint3_linear)"/>
<path d="M81.1113 75.5664V67.2852C81.1113 62.1481 85.409 57.9688 90.6914 57.9688H91.7559V51.055C91.7559 50.0364 91.2424 49.0828 90.3814 48.5025C89.5205 47.922 88.4216 47.7892 87.4412 48.1472L57.6934 58.9956V106L89.6838 94.3338C90.9301 93.8794 91.7559 92.7206 91.7559 91.4261V84.8828H90.6914C85.409 84.8828 81.1113 80.7035 81.1113 75.5664Z" fill="url(#paint4_linear)"/>
<path d="M21.502 75.5664V67.2852C21.502 65.5701 20.0722 64.1797 18.3086 64.1797H16.1797C12.0645 64.1797 8.72852 67.4239 8.72852 71.4258C8.72852 75.4277 12.0645 78.6719 16.1797 78.6719H18.3086C20.0722 78.6719 21.502 77.2815 21.502 75.5664Z" fill="url(#paint5_linear)"/>
<defs>
<linearGradient id="paint0_linear" x1="65.7231" y1="1.4123" x2="46.6987" y2="39.355" gradientUnits="userSpaceOnUse">
<stop stop-color="#FF0000"/>
<stop offset="1" stop-color="#CE0000"/>
</linearGradient>
<linearGradient id="paint1_linear" x1="69.9269" y1="38.2193" x2="66.4654" y2="59.1621" gradientUnits="userSpaceOnUse">
<stop stop-color="#FF0000"/>
<stop offset="1" stop-color="#CE0000"/>
</linearGradient>
<linearGradient id="paint2_linear" x1="97.8459" y1="64.7612" x2="89.3249" y2="79.328" gradientUnits="userSpaceOnUse">
<stop stop-color="#FF0000"/>
<stop offset="1" stop-color="#CE0000"/>
</linearGradient>
<linearGradient id="paint3_linear" x1="44.8383" y1="50.2787" x2="6.00575" y2="94.4725" gradientUnits="userSpaceOnUse">
<stop stop-color="#FF0000"/>
<stop offset="1" stop-color="#CE0000"/>
</linearGradient>
<linearGradient id="paint4_linear" x1="85.2875" y1="50.2787" x2="46.455" y2="94.4725" gradientUnits="userSpaceOnUse">
<stop stop-color="#FF0000"/>
<stop offset="1" stop-color="#CE0000"/>
</linearGradient>
<linearGradient id="paint5_linear" x1="19.0763" y1="64.7612" x2="10.5553" y2="79.328" gradientUnits="userSpaceOnUse">
<stop stop-color="#FF0000"/>
<stop offset="1" stop-color="#CE0000"/>
</linearGradient>
</defs>
</svg>
