<svg width="107" height="107" viewBox="0 0 107 107" fill="none" xmlns="http://www.w3.org/2000/svg">
<path d="M43.0435 51.8751H48.2823C47.9199 48.968 47.0445 46.112 45.6629 43.4441C44.2813 46.1118 43.4058 48.9678 43.0435 51.8751Z" fill="url(#paint0_linear)"/>
<path d="M31.8027 51.8751H36.7341C37.0593 48.606 37.8988 45.3772 39.2509 42.3149C35.5241 44.2083 32.7409 47.6955 31.8027 51.8751Z" fill="url(#paint1_linear)"/>
<path d="M45.6632 66.5309C47.0377 63.8768 47.9106 61.0365 48.2762 58.1448H43.0503C43.4158 61.0365 44.2887 63.8768 45.6632 66.5309Z" fill="url(#paint2_linear)"/>
<path d="M31.813 58.1448C32.7609 62.3044 35.5375 65.7735 39.2507 67.6603C37.9047 64.6118 37.0664 61.3987 36.7381 58.1448H31.813Z" fill="url(#paint3_linear)"/>
<path d="M70.7412 19.2266H14.3154C12.5842 19.2266 11.1807 20.6301 11.1807 22.3613V103.865C11.1807 105.596 12.5842 107 14.3154 107H70.7412C75.9267 107 80.1455 102.781 80.1455 97.5957V28.6309C80.1455 23.4453 75.9267 19.2266 70.7412 19.2266ZM61.3265 87.9929H29.9788C28.2476 87.9929 26.844 86.5893 26.844 84.8581C26.844 83.1269 28.2476 81.7233 29.9788 81.7233H61.3265C63.0577 81.7233 64.4612 83.1269 64.4612 84.8581C64.4612 86.5893 63.0577 87.9929 61.3265 87.9929ZM45.6737 75.4651C34.6573 75.5648 25.1853 66.4664 25.1853 54.9876C25.1853 43.7264 34.3223 34.5602 45.572 34.5108H45.5722C56.9232 34.463 66.1406 43.68 66.1406 54.9876C66.1408 66.2754 56.9604 75.4592 45.6737 75.4651Z" fill="url(#paint4_linear)"/>
<path d="M52.0757 67.6603C55.7891 65.7735 58.5657 62.3044 59.5134 58.1448H54.5883C54.26 61.3987 53.4218 64.6118 52.0757 67.6603Z" fill="url(#paint5_linear)"/>
<path d="M52.0752 42.3149C53.4273 45.3774 54.2668 48.606 54.592 51.8751H59.5234C58.5853 47.6955 55.802 44.2083 52.0752 42.3149Z" fill="url(#paint6_linear)"/>
<path d="M92.6846 0H70.7203V0.130824C70.7203 3.63654 67.8783 6.47852 64.3726 6.47852C60.8669 6.47852 58.0249 3.63654 58.0249 0.130824V0H36.2588C34.5276 0 33.124 1.40354 33.124 3.13477V12.957H70.7412C79.3976 12.957 86.415 19.9745 86.415 28.6309V34.5098H95.8193V3.13477C95.8193 1.40354 94.4158 0 92.6846 0Z" fill="url(#paint7_linear)"/>
<path d="M86.415 94.2519H92.6846C94.4158 94.2519 95.8193 92.8484 95.8193 91.1172V40.7793H86.415V94.2519Z" fill="url(#paint8_linear)"/>
<defs>
<linearGradient id="paint0_linear" x1="47.2874" y1="43.7824" x2="41.698" y2="50.5187" gradientUnits="userSpaceOnUse">
<stop stop-color="#FF0000"/>
<stop offset="1" stop-color="#CE0000"/>
</linearGradient>
<linearGradient id="paint1_linear" x1="37.8366" y1="42.6986" x2="31.9008" y2="51.6679" gradientUnits="userSpaceOnUse">
<stop stop-color="#FF0000"/>
<stop offset="1" stop-color="#CE0000"/>
</linearGradient>
<linearGradient id="paint2_linear" x1="47.2838" y1="58.4813" x2="41.727" y2="65.1974" gradientUnits="userSpaceOnUse">
<stop stop-color="#FF0000"/>
<stop offset="1" stop-color="#CE0000"/>
</linearGradient>
<linearGradient id="paint3_linear" x1="37.8383" y1="58.5266" x2="31.9379" y2="67.4718" gradientUnits="userSpaceOnUse">
<stop stop-color="#FF0000"/>
<stop offset="1" stop-color="#CE0000"/>
</linearGradient>
<linearGradient id="paint4_linear" x1="67.0494" y1="22.7487" x2="12.7341" y2="105.521" gradientUnits="userSpaceOnUse">
<stop stop-color="#FF0000"/>
<stop offset="1" stop-color="#CE0000"/>
</linearGradient>
<linearGradient id="paint5_linear" x1="58.101" y1="58.5266" x2="52.2006" y2="67.4718" gradientUnits="userSpaceOnUse">
<stop stop-color="#FF0000"/>
<stop offset="1" stop-color="#CE0000"/>
</linearGradient>
<linearGradient id="paint6_linear" x1="58.109" y1="42.6986" x2="52.1732" y2="51.6679" gradientUnits="userSpaceOnUse">
<stop stop-color="#FF0000"/>
<stop offset="1" stop-color="#CE0000"/>
</linearGradient>
<linearGradient id="paint7_linear" x1="83.9138" y1="1.38479" x2="71.6859" y2="44.4712" gradientUnits="userSpaceOnUse">
<stop stop-color="#FF0000"/>
<stop offset="1" stop-color="#CE0000"/>
</linearGradient>
<linearGradient id="paint8_linear" x1="94.0335" y1="42.925" x2="71.991" y2="50.4439" gradientUnits="userSpaceOnUse">
<stop stop-color="#FF0000"/>
<stop offset="1" stop-color="#CE0000"/>
</linearGradient>
</defs>
</svg>
