<svg width="21" height="21" viewBox="0 0 21 21" fill="none" xmlns="http://www.w3.org/2000/svg">
<path fill-rule="evenodd" clip-rule="evenodd" d="M3.07617 0H17.9238C19.6199 0 21 1.38011 21 3.07617V17.9238C21 19.6199 19.6199 21 17.9238 21H3.07617C1.38011 21 0 19.6199 0 17.9238V3.07617C0 1.38011 1.38011 0 3.07617 0ZM8.10421 14.2737V16.9792C8.10421 17.1682 8.22554 17.3356 8.40521 17.3951C8.45013 17.4097 8.49621 17.4167 8.54171 17.4167C8.67821 17.4167 8.81004 17.3525 8.89404 17.2382L10.4766 15.0845L8.10421 14.2737ZM16.3597 4.04879C16.5055 3.97237 16.6817 3.9852 16.8159 4.08029C16.95 4.17595 17.0189 4.33812 16.9949 4.50145L15.3908 15.2931C15.3715 15.4209 15.2963 15.5346 15.1854 15.6023C15.116 15.6443 15.0373 15.6659 14.9579 15.6659C14.9101 15.6659 14.8623 15.6577 14.8168 15.6425L8.7017 13.5525L14.7147 6.30804L6.94411 12.9522L3.29536 11.705C3.13028 11.6485 3.01419 11.4991 3.00078 11.3241C2.98794 11.1497 3.07953 10.984 3.23469 10.903L16.3597 4.04879Z" fill="white"/>
</svg>
