<svg width="40" height="40" viewBox="0 0 40 40" fill="none" xmlns="http://www.w3.org/2000/svg">
<g clip-path="url(#clip0)">
<path d="M30.379 26.4343C29.0736 25.1454 27.4438 25.1454 26.1467 26.4343C25.1572 27.4155 24.1678 28.3967 23.1949 29.3945C22.9288 29.6689 22.7043 29.7271 22.38 29.5442C21.7398 29.195 21.058 28.9123 20.4427 28.5297C17.574 26.7253 15.171 24.4054 13.0423 21.7944C11.9863 20.4972 11.0468 19.1085 10.3899 17.5452C10.2568 17.2293 10.2818 17.0214 10.5395 16.7636C11.529 15.8073 12.4936 14.8261 13.4664 13.8449C14.8217 12.4812 14.8217 10.8847 13.4581 9.51266C12.6848 8.73102 11.9115 7.96601 11.1382 7.18438C10.34 6.38611 9.55007 5.57952 8.74352 4.78957C7.43807 3.51733 5.80834 3.51733 4.51121 4.79788C3.51341 5.77909 2.55719 6.78524 1.54277 7.74982C0.603178 8.63955 0.129226 9.72886 0.0294461 11.0011C-0.128538 13.0716 0.378674 15.0257 1.09376 16.9299C2.55719 20.8714 4.7856 24.3721 7.48796 27.5818C11.1382 31.9224 15.4953 35.3566 20.5923 37.8346C22.8873 38.9488 25.2653 39.8053 27.8513 39.9467C29.6307 40.0464 31.1773 39.5974 32.4162 38.2088C33.2643 37.2608 34.2205 36.396 35.1185 35.4897C36.4489 34.1426 36.4573 32.5128 35.1352 31.1823C33.5553 29.5941 31.9672 28.0142 30.379 26.4343Z" fill="white"/>
<path d="M28.7908 19.8073L31.859 19.2834C31.3767 16.4645 30.0463 13.9117 28.0258 11.8828C25.8888 9.74575 23.1865 8.39868 20.2097 7.98291L19.7773 11.0679C22.0806 11.3922 24.176 12.4316 25.8306 14.0863C27.3938 15.6496 28.4166 17.6287 28.7908 19.8073Z" fill="white"/>
<path d="M33.5888 6.4693C30.0466 2.92699 25.5648 0.69017 20.6174 0L20.1851 3.08498C24.4589 3.68368 28.3337 5.62114 31.3936 8.67286C34.2955 11.5749 36.1997 15.2419 36.8898 19.2749L39.958 18.751C39.1515 14.0778 36.948 9.837 33.5888 6.4693Z" fill="white"/>
</g>
<defs>
<clipPath id="clip0">
<rect width="39.9583" height="39.96" fill="white"/>
</clipPath>
</defs>
</svg>
