<svg width="21" height="21" viewBox="0 0 21 21" fill="none" xmlns="http://www.w3.org/2000/svg">
<path fill-rule="evenodd" clip-rule="evenodd" d="M15.7333 0H5.25C2.36667 0 0 2.36667 0 5.26667V15.75C0 18.6333 2.36667 21 5.25 21H15.7333C18.6333 21 21 18.6333 21 15.7333V5.26667C21 2.36667 18.6333 0 15.7333 0ZM10.5451 3.46143C12.4091 3.4622 14.1587 4.1879 15.4743 5.50506C16.79 6.82213 17.5142 8.57282 17.5134 10.4348C17.512 14.277 14.3857 17.4031 10.5452 17.4031H10.5422C9.37607 17.4027 8.23014 17.1101 7.21227 16.5549L3.51821 17.5239L4.50681 13.913C3.89698 12.8563 3.57614 11.6574 3.57666 10.4293C3.5782 6.5873 6.70416 3.46143 10.5451 3.46143ZM10.5427 16.2263H10.5451C13.7375 16.2263 16.3356 13.628 16.3369 10.4344C16.3374 8.88679 15.7356 7.43161 14.6421 6.33684C13.5486 5.24207 12.0944 4.63885 10.5474 4.63834C7.35269 4.63834 4.75443 7.23635 4.75323 10.4297C4.75271 11.524 5.05887 12.5899 5.63865 13.512L5.77641 13.7312L5.19131 15.8684L7.38342 15.2934L7.59482 15.4189C8.4842 15.9465 9.50344 16.2258 10.5427 16.2263ZM12.5322 11.322C12.6919 11.3802 13.548 11.8013 13.722 11.8885C13.7562 11.9056 13.7881 11.921 13.8177 11.9353C13.9389 11.9939 14.0207 12.0334 14.0556 12.0918C14.0992 12.1645 14.0992 12.513 13.9542 12.9198C13.809 13.3265 13.1135 13.6977 12.7789 13.7477C12.4788 13.7925 12.0994 13.8112 11.6823 13.6787C11.4293 13.5985 11.105 13.4914 10.6896 13.3119C9.05743 12.6072 7.95429 11.0251 7.74577 10.7261C7.73116 10.7051 7.72094 10.6905 7.71524 10.6829L7.71368 10.6808C7.62103 10.5571 7.00431 9.7338 7.00431 8.88172C7.00431 8.07974 7.39815 7.65943 7.57948 7.4659C7.59193 7.45262 7.60337 7.44041 7.61362 7.42921C7.77326 7.2548 7.96192 7.21129 8.07796 7.21129C8.19409 7.21129 8.31022 7.21232 8.41167 7.21738C8.42416 7.218 8.43715 7.21793 8.45058 7.21785C8.55209 7.21725 8.67856 7.21651 8.80349 7.51624C8.85118 7.6309 8.92084 7.80051 8.9944 7.97963C9.14457 8.3453 9.31104 8.75064 9.34019 8.80911C9.38379 8.89623 9.41289 8.99794 9.35478 9.11415C9.29676 9.23028 9.10802 9.47567 8.91953 9.70973C8.91147 9.71973 8.90315 9.72961 8.89484 9.73949C8.82349 9.82427 8.75228 9.90887 8.84314 10.0651C8.94477 10.2393 9.29418 10.8095 9.81174 11.2712C10.3683 11.7676 10.852 11.9774 11.0971 12.0837C11.1449 12.1044 11.1836 12.1212 11.212 12.1354C11.3861 12.2226 11.4876 12.208 11.5892 12.0918C11.6908 11.9757 12.0245 11.5834 12.1406 11.4092C12.2565 11.2349 12.3728 11.2639 12.5322 11.322Z" fill="white"/>
</svg>
