<svg width="45" height="33" viewBox="0 0 45 33" fill="none" xmlns="http://www.w3.org/2000/svg">
<path d="M0 21.2965C0 17.907 1.17869 14.3096 3.53606 10.5044C5.92573 6.66715 10.2207 3.1657 16.4209 0L17.5834 2.15843C14.4833 4.33285 12.1905 6.15552 10.7051 7.62645C8.08934 10.2805 6.78149 12.8227 6.78149 15.2529C6.78149 16.0843 7.02368 16.6279 7.50807 16.8837C7.99246 17.1715 8.41227 17.3154 8.76749 17.3154C9.99462 17.1555 10.8019 17.0756 11.1895 17.0756C13.2562 17.0756 14.9516 17.827 16.2756 19.3299C17.5996 20.8009 18.2616 22.5916 18.2616 24.702C18.2616 27.0683 17.535 29.0509 16.0818 30.6497C14.6286 32.2166 12.6265 33 10.0753 33C7.07212 33 4.63401 31.9448 2.76103 29.8343C0.920344 27.6919 0 24.8459 0 21.2965ZM26.7384 21.2965C26.7384 17.7151 27.9978 14.0218 30.5167 10.2166C33.0355 6.41134 37.2497 3.00581 43.1593 0L44.3218 2.15843C41.4155 4.17297 39.1873 5.94767 37.6372 7.48256C34.8924 10.2006 33.5199 12.7267 33.5199 15.061C33.5199 15.7326 33.6975 16.2762 34.0527 16.6919C34.408 17.1076 34.8924 17.3154 35.5059 17.3154C36.733 17.1555 37.5404 17.0756 37.9279 17.0756C39.9623 17.0756 41.6415 17.811 42.9656 19.282C44.3219 20.7529 45 22.5596 45 24.702C45 27.1962 44.2573 29.2108 42.7718 30.7456C41.2863 32.2485 39.268 33 36.7169 33C33.8105 33 31.4209 31.9448 29.5479 29.8343C27.6749 27.6919 26.7384 24.8459 26.7384 21.2965Z" fill="url(#paint0_linear)"/>
<defs>
<linearGradient id="paint0_linear" x1="36.4547" y1="1.32421" x2="21.7273" y2="40.2756" gradientUnits="userSpaceOnUse">
<stop stop-color="#FF0000"/>
<stop offset="1" stop-color="#CE0000"/>
</linearGradient>
</defs>
</svg>
