<svg width="25" height="25" viewBox="0 0 25 25" fill="none" xmlns="http://www.w3.org/2000/svg">
<path fill-rule="evenodd" clip-rule="evenodd" d="M12.5 25C5.59644 25 0 19.4036 0 12.5C0 5.59644 5.59644 0 12.5 0C19.4036 0 25 5.59644 25 12.5C25 19.4036 19.4036 25 12.5 25ZM6.29289 11.6569L12.6569 5.29289C13.0474 4.90237 13.6805 4.90237 14.0711 5.29289C14.4616 5.68342 14.4616 6.31658 14.0711 6.70711L9.41421 11.364H12.9958L13 11.364H16C16.5523 11.364 17 11.8117 17 12.364C17 12.9162 16.5523 13.364 16 13.364L9.41421 13.364L14.0711 18.0208C14.4616 18.4113 14.4616 19.0445 14.0711 19.435C13.6805 19.8256 13.0474 19.8256 12.6569 19.435L6.29289 13.0711C5.90237 12.6805 5.90237 12.0474 6.29289 11.6569Z" fill="url(#paint0_linear)"/>
<defs>
<linearGradient id="paint0_linear" x1="11.4986" y1="-4.09091" x2="17.1318" y2="34.9304" gradientUnits="userSpaceOnUse">
<stop stop-color="#0066FF"/>
<stop offset="0.430576" stop-color="#00369C"/>
<stop offset="0.9999" stop-color="#0031C4"/>
<stop offset="1" stop-color="#018FF6"/>
</linearGradient>
</defs>
</svg>
