<svg width="123" height="186" viewBox="0 0 123 186" fill="none" xmlns="http://www.w3.org/2000/svg">
<path fill-rule="evenodd" clip-rule="evenodd" d="M10.8303 13.2349C6.08978 17.8664 6.08978 25.3755 10.8302 30.0069L68.6553 86.5025L3.98113 149.69C-0.759336 154.321 -0.759336 161.83 3.98113 166.462L19.7427 181.861C24.4832 186.492 32.169 186.492 36.9095 181.861L107.09 113.294C107.624 112.773 108.097 112.215 108.511 111.629C109.09 111.234 109.642 110.784 110.158 110.279L119.214 101.431C123.955 96.8 123.955 89.2909 119.214 84.6594L37.0529 4.38719C32.3124 -0.244294 24.6266 -0.244297 19.8862 4.38718L10.8303 13.2349Z" fill="white" fill-opacity="0.79"/>
</svg>
