<svg width="28" height="28" viewBox="0 0 28 28" fill="none" xmlns="http://www.w3.org/2000/svg">
<path d="M15.1395 9.5H13.5V11.5H15.806L15.1395 9.5Z" fill="white"/>
<path d="M12.5 16.5V15.5H13.5V19.5H15.6L16.513 15.3915L17.489 15.6085L17.29 16.5H22.5C22.6326 16.5 22.7598 16.4473 22.8536 16.3536C22.9473 16.2598 23 16.1326 23 16V15C22.9992 14.3372 22.7356 13.7018 22.2669 13.2331C21.7982 12.7644 21.1628 12.5008 20.5 12.5H9.5C9.40708 12.5 9.31599 12.4742 9.23695 12.4254C9.15791 12.3765 9.09403 12.3066 9.0525 12.2235L7.691 9.5H6V16C6 16.1326 6.05268 16.2598 6.14645 16.3536C6.24021 16.4473 6.36739 16.5 6.5 16.5H12.5ZM19.5 13.5H21.5V14.5H19.5V13.5ZM17.5 13.5H18.5V14.5H17.5V13.5ZM15.5 13.5H16.5V14.5H15.5V13.5ZM13.5 13.5H14.5V14.5H13.5V13.5ZM11.5 13.5H12.5V14.5H11.5V13.5ZM9.5 13.5H10.5V14.5H9.5V13.5Z" fill="white"/>
<path d="M8.222 23.1595C8.30045 23.0955 8.39647 23.0569 8.49735 23.0487C8.59824 23.0405 8.69923 23.0631 8.787 23.1135C9.55907 23.5556 10.3842 23.8978 11.2425 24.132C11.3402 24.1585 11.4275 24.2141 11.493 24.2913C11.5584 24.3685 11.5989 24.4638 11.609 24.5645L11.9525 28H16.05L16.3935 24.5645C16.4036 24.4638 16.4441 24.3685 16.5095 24.2913C16.575 24.2141 16.6623 24.1585 16.76 24.132C17.6183 23.8978 18.4434 23.5556 19.2155 23.1135C19.3033 23.0631 19.4043 23.0405 19.5051 23.0487C19.606 23.0569 19.702 23.0955 19.7805 23.1595L22.45 25.35L25.347 22.45L23.16 19.778C23.0959 19.6997 23.0571 19.6037 23.0487 19.5028C23.0403 19.4019 23.0627 19.3009 23.113 19.213C23.5558 18.4414 23.8981 17.6164 24.1315 16.758C24.1579 16.6602 24.2134 16.5728 24.2907 16.5072C24.3679 16.4417 24.4632 16.4012 24.564 16.391L28 16.05V11.955L24.564 11.6115C24.4632 11.6013 24.3679 11.5608 24.2907 11.4953C24.2134 11.4297 24.1579 11.3423 24.1315 11.2445C23.8979 10.3861 23.5557 9.56112 23.113 8.7895C23.0627 8.70164 23.0403 8.60058 23.0487 8.49969C23.0571 8.39881 23.0959 8.30285 23.16 8.2245L25.347 5.55L22.45 2.6525L19.7765 4.8405C19.698 4.90445 19.602 4.94309 19.5011 4.95131C19.4003 4.95952 19.2993 4.93692 19.2115 4.8865C18.4394 4.4444 17.6143 4.10216 16.756 3.868C16.6583 3.84148 16.571 3.78594 16.5055 3.70871C16.4401 3.63149 16.3996 3.53622 16.3895 3.4355L16.05 0H11.955L11.6115 3.4355C11.6014 3.53622 11.5609 3.63149 11.4955 3.70871C11.43 3.78594 11.3427 3.84148 11.245 3.868C10.3867 4.10216 9.56157 4.4444 8.7895 4.8865C8.70174 4.93692 8.60073 4.95952 8.49985 4.95131C8.39897 4.94309 8.30295 4.90445 8.2245 4.8405L5.55 2.6525L2.653 5.55L4.84 8.2235C4.90411 8.30185 4.94293 8.39781 4.95132 8.49869C4.95971 8.59958 4.93728 8.70064 4.887 8.7885C4.44433 9.56012 4.10206 10.3851 3.8685 11.2435C3.84207 11.3413 3.78656 11.4287 3.70933 11.4943C3.6321 11.5598 3.53678 11.6003 3.436 11.6105L0 11.9525V16.05L3.436 16.3935C3.53678 16.4037 3.6321 16.4442 3.70933 16.5097C3.78656 16.5753 3.84207 16.6627 3.8685 16.7605C4.10192 17.6189 4.44419 18.444 4.887 19.2155C4.93728 19.3034 4.95971 19.4044 4.95132 19.5053C4.94293 19.6062 4.90411 19.7022 4.84 19.7805L2.653 22.45L5.55 25.35L8.222 23.1595ZM24.5 13.5H25.5V14.5H24.5V13.5ZM3.5 14.5H2.5V13.5H3.5V14.5ZM14.5 25.5H13.5V24.5H14.5V25.5ZM14 22.5C12.6141 22.5001 11.2492 22.1614 10.0241 21.5133C8.79909 20.8652 7.75112 19.9273 6.9715 18.7815L7.8 18.2185C8.48774 19.2299 9.4124 20.0578 10.4934 20.63C11.5744 21.2021 12.7789 21.5012 14.002 21.5012C15.2251 21.5012 16.4296 21.2021 17.5106 20.63C18.5916 20.0578 19.5163 19.2299 20.204 18.2185L21.0305 18.7815C20.2507 19.9276 19.2024 20.8656 17.977 21.5138C16.7516 22.1619 15.3863 22.5005 14 22.5ZM21.7785 22.4855L21.071 21.7785L21.778 21.0715L22.4855 21.7785L21.7785 22.4855ZM21.7785 5.5145L22.4855 6.2215L21.778 6.9285L21.071 6.2215L21.7785 5.5145ZM13.5 2.5H14.5V3.5H13.5V2.5ZM14 5.5C15.5958 5.49366 17.1608 5.93933 18.5138 6.78543C19.8668 7.63153 20.9526 8.84347 21.6455 10.281L20.7455 10.719C20.24 9.67971 19.5012 8.77129 18.5867 8.06466C17.6722 7.35803 16.6067 6.87231 15.4735 6.64539C14.3403 6.41848 13.17 6.45652 12.0539 6.75655C10.9378 7.05658 9.90619 7.61047 9.0395 8.375L8.3775 7.625C9.92998 6.25498 11.9295 5.49929 14 5.5ZM6.2215 5.5145L6.929 6.2215L6.222 6.9285L5.5145 6.2215L6.2215 5.5145ZM5 16V9C5 8.86739 5.05268 8.74021 5.14645 8.64645C5.24021 8.55268 5.36739 8.5 5.5 8.5H8C8.09292 8.49996 8.18401 8.52581 8.26305 8.57465C8.34209 8.62348 8.40597 8.69338 8.4475 8.7765L9.809 11.5H12.5V9C12.5 8.86739 12.5527 8.74021 12.6464 8.64645C12.7402 8.55268 12.8674 8.5 13 8.5H15.5C15.605 8.49997 15.7073 8.53299 15.7925 8.59438C15.8776 8.65576 15.9413 8.7424 15.9745 8.842L16.8605 11.5H20.5C21.4279 11.5011 22.3176 11.8701 22.9737 12.5263C23.6299 13.1824 23.9989 14.0721 24 15V16C24 16.3978 23.842 16.7794 23.5607 17.0607C23.2794 17.342 22.8978 17.5 22.5 17.5H17.0675L16.488 20.1085C16.4633 20.2195 16.4015 20.3188 16.3128 20.39C16.2241 20.4612 16.1137 20.5 16 20.5H13C12.8674 20.5 12.7402 20.4473 12.6464 20.3536C12.5527 20.2598 12.5 20.1326 12.5 20V17.5H6.5C6.10218 17.5 5.72064 17.342 5.43934 17.0607C5.15804 16.7794 5 16.3978 5 16ZM6.222 21.0715L6.929 21.7785L6.2215 22.4855L5.5145 21.7785L6.222 21.0715Z" fill="white"/>
</svg>
