<svg width="86" height="86" viewBox="0 0 86 86" fill="none" xmlns="http://www.w3.org/2000/svg">
<path d="M47.3705 29.803L30.5703 23.8735V35.2732C30.5703 36.6647 31.6984 37.7928 33.0898 37.7928H66.6836C68.075 37.7928 69.2031 36.6647 69.2031 35.2732V23.8735L52.4024 29.8033C51.5926 30.0892 50.746 30.2342 49.8867 30.2342C49.0274 30.2342 48.1808 30.0892 47.3705 29.803Z" fill="url(#paint0_linear)"/>
<path d="M20.4935 14.9735L49.0482 25.0516C49.3195 25.1473 49.6032 25.1952 49.8867 25.1952C50.1702 25.1952 50.454 25.1473 50.7252 25.0516L75.9219 16.1586V26.035C75.9219 27.4265 77.05 28.5546 78.4414 28.5546C79.8329 28.5546 80.9609 27.4265 80.9609 26.035V12.5975C80.9609 11.5294 80.2872 10.5772 79.2799 10.2216L50.7252 0.143495C50.1827 -0.0481572 49.5908 -0.0481572 49.0482 0.143495L20.4935 10.2216C19.4862 10.5772 18.8125 11.5294 18.8125 12.5975C18.8125 13.6657 19.4862 14.6179 20.4935 14.9735Z" fill="url(#paint1_linear)"/>
<path d="M76.7196 52.7843L67.1895 65.2468C65.2826 67.7403 62.3228 69.2029 59.1838 69.2029H41.4883C40.0968 69.2029 38.9688 68.0749 38.9688 66.6834C38.9688 65.2919 40.0968 64.1639 41.4883 64.1639H56.8253C60.1217 64.1639 62.8823 61.4661 62.8193 58.1702C62.7582 54.9763 60.1499 52.4061 56.9414 52.4061H39.3047C34.2409 47.5372 26.4267 46.9674 20.7102 51.0506L18.8125 52.4061V80.9607H35.6094H38.9688H62.6295C67.7734 80.9607 72.5642 78.3451 75.3457 74.0183L85.1785 58.7229C85.7148 57.8886 85.9998 56.9179 85.9998 55.926C86 50.98 79.7238 48.8554 76.7196 52.7843Z" fill="url(#paint2_linear)"/>
<path d="M11.2539 47.3672H2.51953C1.12808 47.3672 0 48.4953 0 49.8867V83.4805C0 84.8719 1.12808 86 2.51953 86H11.2539C12.6454 86 13.7734 84.8719 13.7734 83.4805V49.8867C13.7734 48.4953 12.6454 47.3672 11.2539 47.3672Z" fill="url(#paint3_linear)"/>
<defs>
<linearGradient id="paint0_linear" x1="51.4342" y1="21.5958" x2="50.2838" y2="43.7146" gradientUnits="userSpaceOnUse">
<stop stop-color="#0066FF"/>
<stop offset="0.430576" stop-color="#00369C"/>
<stop offset="0.9999" stop-color="#0031C4"/>
<stop offset="1" stop-color="#018FF6"/>
</linearGradient>
<linearGradient id="paint1_linear" x1="52.3762" y1="-4.67285" x2="49.3715" y2="40.6265" gradientUnits="userSpaceOnUse">
<stop stop-color="#0066FF"/>
<stop offset="0.430576" stop-color="#00369C"/>
<stop offset="0.9999" stop-color="#0031C4"/>
<stop offset="1" stop-color="#018FF6"/>
</linearGradient>
<linearGradient id="paint2_linear" x1="55.0975" y1="42.9934" x2="51.4705" y2="94.7283" gradientUnits="userSpaceOnUse">
<stop stop-color="#0066FF"/>
<stop offset="0.430576" stop-color="#00369C"/>
<stop offset="0.9999" stop-color="#0031C4"/>
<stop offset="1" stop-color="#018FF6"/>
</linearGradient>
<linearGradient id="paint3_linear" x1="7.43844" y1="41.0455" x2="-13.9761" y2="93.931" gradientUnits="userSpaceOnUse">
<stop stop-color="#0066FF"/>
<stop offset="0.430576" stop-color="#00369C"/>
<stop offset="0.9999" stop-color="#0031C4"/>
<stop offset="1" stop-color="#018FF6"/>
</linearGradient>
</defs>
</svg>
