<svg width="86" height="86" viewBox="0 0 86 86" fill="none" xmlns="http://www.w3.org/2000/svg">
<path d="M76.7196 52.7846L67.1895 65.247C65.2826 67.7405 62.3228 69.2032 59.1838 69.2032H41.4883C40.0968 69.2032 38.9687 68.0751 38.9687 66.6836C38.9687 65.2922 40.0968 64.1641 41.4883 64.1641H56.8253C60.1217 64.1641 62.8823 61.4664 62.8193 58.1705C62.7582 54.9766 60.1499 52.4063 56.9414 52.4063H39.3047C34.2409 47.5374 26.4267 46.9676 20.7102 51.0508L18.8125 52.4063V80.961H35.6094H38.9687H62.6295C67.7734 80.961 72.5642 78.3454 75.3457 74.0185L85.1785 58.7231C85.7148 57.8888 85.9998 56.9181 85.9998 55.9263C86 50.9802 79.7238 48.8556 76.7196 52.7846Z" fill="url(#paint0_linear)"/>
<path d="M11.2539 47.3672H2.51953C1.12808 47.3672 0 48.4953 0 49.8867V83.4805C0 84.8719 1.12808 86 2.51953 86H11.2539C12.6454 86 13.7734 84.8719 13.7734 83.4805V49.8867C13.7734 48.4953 12.6454 47.3672 11.2539 47.3672Z" fill="url(#paint1_linear)"/>
<path d="M48.0914 13.9253C47.5787 14.3183 47.2962 14.9135 47.1991 15.4296C47.0649 16.1416 47.2347 16.8031 47.632 17.1145C47.7719 17.2242 47.9261 17.332 48.0914 17.438V13.9253Z" fill="url(#paint2_linear)"/>
<path d="M49.8867 41.9922C61.464 41.9922 70.8828 32.5733 70.8828 20.9961C70.8828 9.41885 61.464 0 49.8867 0C38.3095 0 28.8906 9.41885 28.8906 20.9961C28.8906 32.5733 38.3095 41.9922 49.8867 41.9922ZM43.531 27.8608C44.0386 27.0848 45.0798 26.8664 45.8561 27.3747C46.7633 27.9681 47.3319 28.2255 48.0911 28.3321V21.2386C47.0183 20.747 46.2164 20.2738 45.5585 19.7577C44.1645 18.6644 43.5281 16.7676 43.8975 14.8073C44.2999 12.6711 45.7869 10.9714 47.7779 10.3717C47.8834 10.34 47.9877 10.3109 48.0911 10.2836V9.23828C48.0911 8.31076 48.8433 7.55859 49.7708 7.55859C50.6983 7.55859 51.4505 8.31076 51.4505 9.23828V10.0995C53.0813 10.3818 54.2339 11.1847 54.7922 11.8255C55.4016 12.5249 55.3284 13.586 54.629 14.1952C53.9333 14.8012 52.8799 14.7324 52.2689 14.0432C52.2306 14.0044 51.9637 13.7474 51.4505 13.5581V18.9855C51.7487 19.0962 52.0466 19.2035 52.3391 19.307C55.2916 20.3508 56.9338 23.0839 56.4256 26.1082C56.0303 28.4589 54.2415 30.8429 51.4505 31.5509V32.7539C51.4505 33.6814 50.6983 34.4336 49.7708 34.4336C48.8433 34.4336 48.0911 33.6814 48.0911 32.7539V31.7122C46.735 31.5949 45.6107 31.2286 44.017 30.186C43.2407 29.6781 43.0232 28.6372 43.531 27.8608Z" fill="url(#paint3_linear)"/>
<path d="M53.1124 25.5513C53.2228 24.8948 53.268 23.3301 51.4502 22.5647V27.96C52.395 27.4188 52.9594 26.4617 53.1124 25.5513Z" fill="url(#paint4_linear)"/>
<defs>
<linearGradient id="paint0_linear" x1="55.0975" y1="42.9936" x2="51.4705" y2="94.7285" gradientUnits="userSpaceOnUse">
<stop stop-color="#0066FF"/>
<stop offset="0.430576" stop-color="#00369C"/>
<stop offset="0.9999" stop-color="#0031C4"/>
<stop offset="1" stop-color="#018FF6"/>
</linearGradient>
<linearGradient id="paint1_linear" x1="7.43844" y1="41.0455" x2="-13.9761" y2="93.931" gradientUnits="userSpaceOnUse">
<stop stop-color="#0066FF"/>
<stop offset="0.430576" stop-color="#00369C"/>
<stop offset="0.9999" stop-color="#0031C4"/>
<stop offset="1" stop-color="#018FF6"/>
</linearGradient>
<linearGradient id="paint2_linear" x1="47.6601" y1="13.3505" x2="45.3179" y2="17.6807" gradientUnits="userSpaceOnUse">
<stop stop-color="#0066FF"/>
<stop offset="0.430576" stop-color="#00369C"/>
<stop offset="0.9999" stop-color="#0031C4"/>
<stop offset="1" stop-color="#018FF6"/>
</linearGradient>
<linearGradient id="paint3_linear" x1="51.5688" y1="-6.87145" x2="42.1067" y2="58.6721" gradientUnits="userSpaceOnUse">
<stop stop-color="#0066FF"/>
<stop offset="0.430576" stop-color="#00369C"/>
<stop offset="0.9999" stop-color="#0031C4"/>
<stop offset="1" stop-color="#018FF6"/>
</linearGradient>
<linearGradient id="paint4_linear" x1="52.3718" y1="21.6818" x2="49.1245" y2="28.7965" gradientUnits="userSpaceOnUse">
<stop stop-color="#0066FF"/>
<stop offset="0.430576" stop-color="#00369C"/>
<stop offset="0.9999" stop-color="#0031C4"/>
<stop offset="1" stop-color="#018FF6"/>
</linearGradient>
</defs>
</svg>
