<svg width="93" height="93" viewBox="0 0 93 93" fill="none" xmlns="http://www.w3.org/2000/svg">
<path d="M2.90625 82.8281C2.90625 86.8402 6.1598 90.0938 10.1719 90.0938H72.6562V75.5625H10.1719C6.1598 75.5625 2.90625 78.816 2.90625 82.8281Z" fill="url(#paint0_linear)"/>
<path d="M34.875 27.6094C37.2826 27.6094 39.2344 25.6576 39.2344 23.25C39.2344 20.8424 37.2826 18.8906 34.875 18.8906C32.4674 18.8906 30.5156 20.8424 30.5156 23.25C30.5156 25.6576 32.4674 27.6094 34.875 27.6094Z" fill="url(#paint1_linear)"/>
<path d="M52.3125 40.6875V51.7109L49.4062 54.6172V39.4829L72.6562 16.2329V4.35938H10.1719C6.1598 4.35938 2.90625 7.61292 2.90625 11.625V75.7238C4.75462 73.8333 7.32666 72.6563 10.1719 72.6563H72.6562V50.6094L66.5938 56.6719H55.2188L46.5 65.3906L44.6211 63.5117L79.4961 28.6367L81.375 30.5156L58.125 53.7656H65.3906L79.8797 39.2765C86.4188 32.7375 90.0938 23.8661 90.0938 14.617V2.90625L52.3125 40.6875ZM34.875 13.0781C42.0985 13.0781 47.9531 18.9328 47.9531 26.1563C47.9531 30.0346 46.2544 33.5091 43.572 35.9038C43.3496 31.2872 39.5468 27.6094 34.875 27.6094C30.2032 27.6094 26.4004 31.2872 26.178 35.9038C23.4956 33.5091 21.7969 30.0346 21.7969 26.1563C21.7969 18.9328 27.6515 13.0781 34.875 13.0781ZM21.7969 46.5H43.5938V49.4063H21.7969V46.5ZM21.7969 53.7656H40.6875V56.6719H21.7969V53.7656ZM36.3281 63.9375H21.7969V61.0313H36.3281V63.9375Z" fill="url(#paint2_linear)"/>
<defs>
<linearGradient id="paint0_linear" x1="40.5752" y1="73.1847" x2="39.8795" y2="96.3176" gradientUnits="userSpaceOnUse">
<stop stop-color="#0066FF"/>
<stop offset="0.430576" stop-color="#00369C"/>
<stop offset="0.9999" stop-color="#0031C4"/>
<stop offset="1" stop-color="#018FF6"/>
</linearGradient>
<linearGradient id="paint1_linear" x1="35.2242" y1="17.4639" x2="33.2596" y2="31.0726" gradientUnits="userSpaceOnUse">
<stop stop-color="#0066FF"/>
<stop offset="0.430576" stop-color="#00369C"/>
<stop offset="0.9999" stop-color="#0031C4"/>
<stop offset="1" stop-color="#018FF6"/>
</linearGradient>
<linearGradient id="paint2_linear" x1="49.9925" y1="-9.00935" x2="36.2036" y2="105.354" gradientUnits="userSpaceOnUse">
<stop stop-color="#0066FF"/>
<stop offset="0.430576" stop-color="#00369C"/>
<stop offset="0.9999" stop-color="#0031C4"/>
<stop offset="1" stop-color="#018FF6"/>
</linearGradient>
</defs>
</svg>
