<svg width="68" height="68" viewBox="0 0 68 68" fill="none" xmlns="http://www.w3.org/2000/svg">
<path d="M32.9375 3.1875H9.5625C7.80209 3.1875 6.375 4.61459 6.375 6.375V40.375C6.375 42.1354 7.80209 43.5625 9.5625 43.5625H32.9375C34.6979 43.5625 36.125 42.1354 36.125 40.375V6.375C36.125 4.61459 34.6979 3.1875 32.9375 3.1875Z" fill="#0051FF"/>
<path d="M24.4375 26.5625H30.8125V39.3125H24.4375V26.5625Z" fill="#FFC431"/>
<path d="M39.3125 54.1875H49.9375V64.8125H39.3125V54.1875Z" fill="#FFA100"/>
<path d="M39.3125 58.4375H49.9375V60.5625H39.3125V58.4375Z" fill="#F78E00"/>
<path d="M49.9375 48.875H64.8125V64.8125H49.9375V48.875Z" fill="#FFC431"/>
<path d="M59.5 38.25V32.9375H55.25V27.625H40.375V32.9375H44.625V38.25H46.75V43.5625H44.625V48.875H59.5V43.5625H61.625V38.25H59.5Z" fill="#FFC431"/>
<path d="M49.9375 27.625C54.6319 27.625 58.4375 23.8194 58.4375 19.125C58.4375 14.4306 54.6319 10.625 49.9375 10.625C45.2431 10.625 41.4375 14.4306 41.4375 19.125C41.4375 23.8194 45.2431 27.625 49.9375 27.625Z" fill="#FFB401"/>
<path d="M49.4064 17H53.125V14.875H51V13.8125H48.875V14.9286C48.23 15.0603 47.6569 15.4268 47.2667 15.957C46.8766 16.4873 46.6973 17.1435 46.7635 17.7985C46.8297 18.4535 47.1368 19.0605 47.6251 19.502C48.1135 19.9434 48.7484 20.1878 49.4067 20.1878H49.4075L50.4684 20.1872H50.4685C50.5384 20.187 50.6077 20.2005 50.6724 20.2271C50.7371 20.2537 50.7959 20.2928 50.8455 20.3422C50.895 20.3915 50.9343 20.4502 50.9612 20.5148C50.988 20.5794 51.0018 20.6486 51.0018 20.7186C51.0018 20.7885 50.988 20.8578 50.9612 20.9223C50.9344 20.9869 50.8951 21.0456 50.8456 21.095C50.796 21.1444 50.7372 21.1835 50.6725 21.2101C50.6079 21.2367 50.5386 21.2502 50.4686 21.25H46.75V23.375H48.875V24.4375H51V23.3214C51.645 23.1897 52.2181 22.8232 52.6083 22.293C52.9984 21.7627 53.1777 21.1065 53.1115 20.4515C53.0453 19.7965 52.7382 19.1895 52.2499 18.748C51.7615 18.3066 51.1266 18.0622 50.4683 18.0622H50.4675L49.4066 18.0628H49.4065C49.3366 18.063 49.2673 18.0495 49.2026 18.0229C49.1379 17.9963 49.0791 17.9572 49.0295 17.9078C48.98 17.8585 48.9407 17.7998 48.9138 17.7352C48.887 17.6706 48.8732 17.6014 48.8732 17.5314C48.8732 17.4615 48.887 17.3922 48.9138 17.3277C48.9406 17.2631 48.9799 17.2044 49.0294 17.155C49.079 17.1056 49.1378 17.0665 49.2025 17.0399C49.2671 17.0133 49.3364 16.9998 49.4064 17Z" fill="#F78E00"/>
<path d="M27.625 15.9375H14.875L11.6875 12.75V8.5H30.8125V12.75L27.625 15.9375Z" fill="#8BE0E8"/>
<path d="M30.8125 26.5625V20.1875H11.6875V39.3125H24.4375V26.5625H30.8125Z" fill="#C1C1C1"/>
<path d="M30.8125 25.5H25.5V20.1875H23.375V25.5H19.125V20.1875H17V25.5H11.6875V27.625H17V31.875H11.6875V34H17V39.3125H19.125V34H23.375V39.3125H25.5V27.625H30.8125V25.5ZM23.375 31.875H19.125V27.625H23.375V31.875Z" fill="#85898B"/>
<path d="M3.1875 47.8125H39.3125V64.8125H3.1875V47.8125Z" fill="#08D175"/>
<path d="M6.375 51H15.9375V53.125H6.375V51Z" fill="#02C26A"/>
<path d="M6.375 55.25H15.9375V57.375H6.375V55.25Z" fill="#02C26A"/>
<path d="M26.5625 51H39.3125V53.125H26.5625V51Z" fill="#02C26A"/>
<path d="M26.5625 55.25H39.3125V57.375H26.5625V55.25Z" fill="#02C26A"/>
<path d="M26.5625 59.5H39.3125V61.625H26.5625V59.5Z" fill="#02C26A"/>
<path d="M6.375 59.5H15.9375V61.625H6.375V59.5Z" fill="#02C26A"/>
<path d="M15.9375 47.8125H26.5625V64.8125H15.9375V47.8125Z" fill="#FFC431"/>
<path d="M49.9375 58.4375H64.8125V60.5625H49.9375V58.4375Z" fill="#FFB401"/>
<path d="M49.9375 53.125H64.8125V55.25H49.9375V53.125Z" fill="#FFB401"/>
<path d="M44.625 46.75H59.5V48.875H44.625V46.75Z" fill="#FFB401"/>
<path d="M46.75 41.4375H61.625V43.5625H46.75V41.4375Z" fill="#FFB401"/>
<path d="M44.625 36.125H59.5V38.25H44.625V36.125Z" fill="#FFB401"/>
<path d="M40.375 30.8125H55.25V32.9375H40.375V30.8125Z" fill="#FFB401"/>
</svg>
