<svg width="21" height="21" viewBox="0 0 21 21" fill="none" xmlns="http://www.w3.org/2000/svg">
<path fill-rule="evenodd" clip-rule="evenodd" d="M3.07617 0H17.9238C19.6199 0 21 1.38011 21 3.07617V17.9238C21 19.6199 19.6199 21 17.9238 21H3.07617C1.38011 21 0 19.6199 0 17.9238V3.07617C0 1.38011 1.38011 0 3.07617 0ZM5.16078 15.6072C4.86856 15.6072 4.61535 15.5107 4.4001 15.3202L8.08321 11.6369C8.17157 11.7002 8.25723 11.7617 8.33813 11.8202C8.61376 12.0233 8.83746 12.1818 9.00924 12.2953C9.18099 12.4091 9.40951 12.5251 9.69477 12.6436C9.98021 12.7621 10.2461 12.8212 10.4928 12.8212H10.5001H10.5073C10.754 12.8212 11.0199 12.7622 11.3053 12.6436C11.5908 12.5251 11.8193 12.4091 11.9909 12.2953C12.1626 12.1818 12.3862 12.0233 12.662 11.8202C12.7388 11.7639 12.824 11.7021 12.9162 11.6359L16.6 15.3202C16.3848 15.5107 16.1314 15.6072 15.8392 15.6072H5.16078ZM17 8.68635C16.7872 8.92338 16.5428 9.13382 16.2672 9.31756C15.2399 10.0157 14.4032 10.5904 13.7537 11.0438L17 14.2901V8.68635ZM4.72544 9.31756C5.71355 9.98636 6.55336 10.5621 7.24498 11.0451L4 14.2903V8.68635C4.20805 8.91862 4.44983 9.12891 4.72544 9.31756ZM15.839 5.39284H5.16055C4.84619 5.39284 4.57408 5.50651 4.34429 5.73373C4.11476 5.96123 3.99975 6.23438 3.99975 6.5536C3.99975 6.93567 4.11837 7.30082 4.35498 7.64893C4.59202 7.99704 4.88696 8.2946 5.23997 8.54117C6.41376 9.35585 7.29951 9.9709 7.90094 10.3888C8.23146 10.6183 8.4773 10.7892 8.63506 10.899C8.65845 10.9154 8.69499 10.9414 8.74354 10.9762C8.79582 11.0136 8.86197 11.0613 8.94343 11.1203C9.10062 11.2339 9.23118 11.3258 9.33517 11.396C9.43935 11.4661 9.56501 11.5446 9.71248 11.6317C9.86009 11.7189 9.99908 11.7841 10.1296 11.8276C10.2602 11.8711 10.3812 11.8929 10.4923 11.8929H10.4996H10.5068C10.618 11.8929 10.7389 11.8711 10.8695 11.8276C11.0001 11.7841 11.1392 11.7187 11.2867 11.6317C11.4343 11.5446 11.5601 11.4662 11.6639 11.396C11.7679 11.3258 11.8985 11.2339 12.0557 11.1203C12.1373 11.0613 12.2034 11.0137 12.2557 10.9761L12.2607 10.9726C12.3067 10.9396 12.3416 10.9147 12.3641 10.899C12.5666 10.7565 12.8118 10.5849 13.0962 10.3868C13.4299 10.1541 13.8182 9.88437 14.2647 9.57497C15.0918 9.00196 15.5875 8.65731 15.7519 8.54117C16.0518 8.33807 16.3347 8.05886 16.6007 7.70338C16.8666 7.34777 16.9996 7.01769 16.9996 6.71306C16.9996 6.33592 16.8994 6.02144 16.6986 5.76998C16.4979 5.51864 16.2115 5.39284 15.839 5.39284Z" fill="white"/>
</svg>
