<svg width="22" height="23" viewBox="0 0 22 23" fill="none" xmlns="http://www.w3.org/2000/svg">
<g clip-path="url(#clip0)">
<path d="M3.81486 22.0952H10.7643V14.5216H8.26751V12.0248H10.7643V8.90374C10.7643 7.1828 12.1644 5.78273 13.8853 5.78273H17.0063V8.27954H14.5095C13.8211 8.27954 13.2611 8.83954 13.2611 9.52795V12.0248H16.8937L16.4776 14.5216H13.2611V22.0952H18.879C20.5999 22.0952 22 20.6952 22 18.9742V3.91012C22 2.18918 20.5999 0.789108 18.879 0.789108H3.81486C2.09391 0.789108 0.693848 2.18918 0.693848 3.91012V18.9742C0.693848 20.6952 2.09391 22.0952 3.81486 22.0952ZM1.94225 3.91012C1.94225 2.87759 2.78233 2.03751 3.81486 2.03751H18.879C19.9115 2.03751 20.7516 2.87759 20.7516 3.91012V18.9742C20.7516 20.0068 19.9115 20.8468 18.879 20.8468H14.5095V15.77H17.5351L18.3674 10.7764H14.5095V9.52795H18.2548V4.53433H13.8853C11.476 4.53433 9.51591 6.49439 9.51591 8.90374V10.7764H7.0191V15.77H9.51591V20.8468H3.81486C2.78233 20.8468 1.94225 20.0068 1.94225 18.9742V3.91012Z" fill="url(#paint0_linear)"/>
</g>
<defs>
<linearGradient id="paint0_linear" x1="12.2004" y1="-2.69735" x2="7.39945" y2="30.5583" gradientUnits="userSpaceOnUse">
<stop stop-color="#0066FF"/>
<stop offset="0.430576" stop-color="#00369C"/>
<stop offset="0.9999" stop-color="#0031C4"/>
<stop offset="1" stop-color="#018FF6"/>
</linearGradient>
<clipPath id="clip0">
<rect width="21.3061" height="21.3061" fill="white" transform="translate(0.693848 0.789108)"/>
</clipPath>
</defs>
</svg>
