<svg width="96" height="96" viewBox="0 0 96 96" fill="none" xmlns="http://www.w3.org/2000/svg">
<g clip-path="url(#clip0)">
<path d="M94.1233 24.0663L48.9358 8.12296C48.3304 7.90921 47.6698 7.90921 47.0644 8.12296L1.87688 24.0663C0.753377 24.4627 0.00150225 25.5239 2.24757e-06 26.7153C-0.00149775 27.9066 0.74794 28.9696 1.8705 29.3686L47.058 45.433C47.3627 45.5414 47.6814 45.5956 48 45.5956C48.3187 45.5956 48.6373 45.5414 48.942 45.433L94.1295 29.3686C95.2521 28.9696 96.0013 27.9066 96 26.7153C95.9985 25.5239 95.2466 24.4627 94.1233 24.0663Z" fill="white"/>
<path d="M89.2451 61.6077V37.0752L83.6201 39.0749V61.6077C81.9259 62.5829 80.7842 64.4101 80.7842 66.5054C80.7842 68.6005 81.9259 70.4279 83.6201 71.4031V85.2248C83.6201 86.7781 84.8794 88.0373 86.4326 88.0373C87.9859 88.0373 89.2451 86.7781 89.2451 85.2248V71.4033C90.9394 70.4283 92.081 68.6007 92.081 66.5056C92.081 64.4103 90.9395 62.5829 89.2451 61.6077Z" fill="white"/>
<path d="M47.9998 51.2206C47.0343 51.2206 46.0835 51.0565 45.1736 50.7331L19.7705 41.7021V54.0787C19.7705 57.1066 22.9293 59.6673 29.1592 61.6893C34.5894 63.4518 41.2805 64.4225 47.9998 64.4225C54.719 64.4225 61.41 63.4518 66.8403 61.6893C73.0702 59.6673 76.229 57.1066 76.229 54.0787V41.7021L50.8261 50.7331C49.916 51.0565 48.9652 51.2206 47.9998 51.2206Z" fill="white"/>
</g>
<defs>
<clipPath id="clip0">
<rect width="96" height="96" fill="white"/>
</clipPath>
</defs>
</svg>
