<svg width="17" height="17" viewBox="0 0 17 17" fill="none" xmlns="http://www.w3.org/2000/svg">
<path d="M8.17154 0C3.66781 0 0.0167236 3.65119 0.0167236 8.15492C0.0167236 12.6585 3.66781 16.31 8.17154 16.31C12.6753 16.31 16.3266 12.6585 16.3266 8.15492C16.3266 3.65119 12.6753 0 8.17154 0ZM8.1717 2.86439L12.9975 5.87362H3.3459L8.1717 2.86439ZM13.0576 10.679H13.0571C13.0571 11.1616 12.666 11.5528 12.1834 11.5528H4.16005C3.67738 11.5528 3.28626 11.1616 3.28626 10.679V6.0651C3.28626 6.01405 3.29148 5.96441 3.29996 5.91564L7.91074 8.79074C7.91639 8.79428 7.92243 8.79667 7.92825 8.79993C7.93433 8.8033 7.94053 8.80656 7.94673 8.80966C7.9793 8.82646 8.01284 8.84 8.04715 8.84886C8.05068 8.84984 8.05421 8.85028 8.05775 8.85109C8.09537 8.85995 8.13348 8.8655 8.17154 8.8655H8.17181C8.17208 8.8655 8.17235 8.8655 8.17235 8.8655C8.21041 8.8655 8.24852 8.86012 8.28615 8.85109C8.28968 8.85022 8.29321 8.84984 8.29675 8.84886C8.331 8.84 8.36443 8.82646 8.39716 8.80966C8.40336 8.80656 8.40956 8.8033 8.41565 8.79993C8.42141 8.79667 8.4275 8.79428 8.43315 8.79074L13.0439 5.91564C13.0524 5.96441 13.0576 6.01394 13.0576 6.0651V10.679Z" fill="url(#paint0_linear)"/>
<defs>
<linearGradient id="paint0_linear" x1="8.825" y1="-2.66891" x2="5.14984" y2="22.7886" gradientUnits="userSpaceOnUse">
<stop stop-color="#0066FF"/>
<stop offset="0.430576" stop-color="#00369C"/>
<stop offset="0.9999" stop-color="#0031C4"/>
<stop offset="1" stop-color="#018FF6"/>
</linearGradient>
</defs>
</svg>
