<svg width="16" height="16" viewBox="0 0 16 16" fill="none" xmlns="http://www.w3.org/2000/svg">
<g clip-path="url(#clip0)">
<path d="M8.01544 0C3.59732 0 0.015625 3.5818 0.015625 7.99992C0.015625 12.4179 3.59732 16 8.01544 16C12.4336 16 16.0155 12.4179 16.0155 7.99992C16.0155 3.5818 12.4336 0 8.01544 0ZM8.0156 2.80995L12.7497 5.76198H3.28153L8.0156 2.80995ZM12.8087 10.476H12.8082C12.8082 10.9495 12.4245 11.3332 11.951 11.3332H4.0802C3.6067 11.3332 3.22302 10.9494 3.22302 10.476V5.94982C3.22302 5.89974 3.22814 5.85104 3.23646 5.8032L7.7596 8.62366C7.76515 8.62713 7.77107 8.62947 7.77677 8.63267C7.78275 8.63598 7.78883 8.63918 7.79491 8.64222C7.82686 8.6587 7.85976 8.67198 7.89342 8.68067C7.89688 8.68163 7.90035 8.68206 7.90382 8.68286C7.94072 8.69155 7.97811 8.69699 8.01544 8.69699H8.01571C8.01598 8.69699 8.01624 8.69699 8.01624 8.69699C8.05358 8.69699 8.09097 8.69171 8.12787 8.68286C8.13134 8.68201 8.13481 8.68163 8.13827 8.68067C8.17187 8.67198 8.20467 8.6587 8.23678 8.64222C8.24286 8.63918 8.24894 8.63598 8.25491 8.63267C8.26057 8.62947 8.26654 8.62713 8.27209 8.62366L12.7952 5.8032C12.8035 5.85104 12.8087 5.89963 12.8087 5.94982V10.476Z" fill="url(#paint0_linear)"/>
</g>
<defs>
<linearGradient id="paint0_linear" x1="8.65649" y1="-2.61818" x2="5.05118" y2="22.3554" gradientUnits="userSpaceOnUse">
<stop stop-color="#0066FF"/>
<stop offset="0.430576" stop-color="#00369C"/>
<stop offset="0.9999" stop-color="#0031C4"/>
<stop offset="1" stop-color="#018FF6"/>
</linearGradient>
<clipPath id="clip0">
<rect width="16" height="16" fill="white"/>
</clipPath>
</defs>
</svg>
