<svg width="22" height="22" viewBox="0 0 22 22" fill="none" xmlns="http://www.w3.org/2000/svg">
<g clip-path="url(#clip0)">
<path d="M10.6551 16.8919C11.1148 16.8919 11.4875 16.5192 11.4875 16.0595C11.4875 15.5998 11.1148 15.2272 10.6551 15.2272C10.1954 15.2272 9.82275 15.5998 9.82275 16.0595C9.82275 16.5192 10.1954 16.8919 10.6551 16.8919Z" fill="url(#paint0_linear)"/>
<path d="M12.9772 4.8479H8.33288C8.07254 4.8479 7.86072 5.04985 7.86072 5.29761V14.0768C7.86072 14.3247 8.0724 14.5265 8.33288 14.5265H12.9772C13.2375 14.5265 13.4493 14.3245 13.4493 14.0768V5.29761C13.4492 5.04964 13.2375 4.8479 12.9772 4.8479Z" fill="url(#paint1_linear)"/>
<path d="M10.657 0C4.77263 0 0.00231934 4.77067 0.00231934 10.6548C0.00231934 16.5389 4.77263 21.31 10.657 21.31C16.5413 21.31 21.3122 16.5392 21.3122 10.6548C21.3122 4.77039 16.5413 0 10.657 0ZM14.8023 15.913C14.8023 16.7269 14.1424 17.3868 13.3285 17.3868H7.98576C7.17186 17.3868 6.51189 16.7269 6.51189 15.913V5.35044C6.51189 4.53654 7.17179 3.87657 7.98576 3.87657H13.3285C14.1424 3.87657 14.8023 4.53647 14.8023 5.35044V15.913Z" fill="url(#paint2_linear)"/>
</g>
<defs>
<linearGradient id="paint0_linear" x1="10.7218" y1="14.9548" x2="10.3467" y2="17.5532" gradientUnits="userSpaceOnUse">
<stop stop-color="#0066FF"/>
<stop offset="0.430576" stop-color="#00369C"/>
<stop offset="0.9999" stop-color="#0031C4"/>
<stop offset="1" stop-color="#018FF6"/>
</linearGradient>
<linearGradient id="paint1_linear" x1="10.8789" y1="3.26413" x2="7.25008" y2="17.7785" gradientUnits="userSpaceOnUse">
<stop stop-color="#0066FF"/>
<stop offset="0.430576" stop-color="#00369C"/>
<stop offset="0.9999" stop-color="#0031C4"/>
<stop offset="1" stop-color="#018FF6"/>
</linearGradient>
<linearGradient id="paint2_linear" x1="11.5109" y1="-3.48709" x2="6.70904" y2="29.7746" gradientUnits="userSpaceOnUse">
<stop stop-color="#0066FF"/>
<stop offset="0.430576" stop-color="#00369C"/>
<stop offset="0.9999" stop-color="#0031C4"/>
<stop offset="1" stop-color="#018FF6"/>
</linearGradient>
<clipPath id="clip0">
<rect width="21.31" height="21.31" fill="white"/>
</clipPath>
</defs>
</svg>
