<svg width="22" height="23" viewBox="0 0 22 23" fill="none" xmlns="http://www.w3.org/2000/svg">
<g clip-path="url(#clip0)">
<path d="M11.4273 22.0953C11.3568 22.0953 11.2862 22.0953 11.2152 22.095C9.54513 22.099 8.00202 22.0566 6.50133 21.9652C5.12548 21.8815 3.8696 21.4061 2.86925 20.5904C1.90401 19.8033 1.24486 18.739 0.910163 17.4276C0.618868 16.2858 0.603425 15.165 0.588633 14.0809C0.577905 13.3031 0.566851 12.3814 0.564575 11.4442C0.566851 10.503 0.577905 9.58131 0.588633 8.8035C0.603425 7.71959 0.618868 6.59879 0.910163 5.45686C1.24486 4.14538 1.90401 3.08115 2.86925 2.29407C3.8696 1.47838 5.12548 1.00291 6.50149 0.919198C8.00218 0.828005 9.54562 0.785417 11.2193 0.78948C12.8898 0.785904 14.4324 0.828005 15.9331 0.919198C17.309 1.00291 18.5649 1.47838 19.5652 2.29407C20.5306 3.08115 21.1896 4.14538 21.5243 5.45686C21.8156 6.59863 21.831 7.71959 21.8458 8.8035C21.8566 9.58131 21.8678 10.503 21.8699 11.4403C21.8678 12.3814 21.8566 13.3031 21.8458 14.0809C21.8396 14.5406 21.4599 14.908 21.0023 14.9018C20.5426 14.8955 20.1753 14.5177 20.1814 14.0582C20.192 13.2849 20.2032 12.3693 20.2053 11.4403C20.2032 10.5152 20.192 9.59952 20.1814 8.82625C20.168 7.8394 20.154 6.81889 19.9114 5.86844C19.6668 4.90971 19.1964 4.14116 18.5133 3.58409C17.7745 2.98151 16.8724 2.64388 15.832 2.58065C14.3666 2.49157 12.8581 2.45045 11.2193 2.45386C9.5765 2.44996 8.06785 2.49157 6.60244 2.58065C5.5621 2.64388 4.66009 2.98151 3.92113 3.58393C3.23808 4.14099 2.76765 4.90954 2.52301 5.86844C2.28048 6.81889 2.2665 7.8394 2.25301 8.82625C2.24245 9.59952 2.23139 10.5152 2.22912 11.4442C2.23139 12.3693 2.24245 13.2849 2.25301 14.0582C2.2665 15.045 2.28048 16.0655 2.52301 17.016C2.76765 17.9747 3.23808 18.7433 3.92113 19.3003C4.66009 19.9029 5.5621 20.2406 6.60244 20.3038C8.06785 20.3929 9.57683 20.4345 11.2154 20.4304C12.8583 20.4343 14.3666 20.3929 15.832 20.3038C16.8724 20.2406 17.7744 19.9029 18.5133 19.3003C19.0054 18.899 19.3898 18.384 19.6559 17.7696C19.8386 17.3479 20.3286 17.154 20.7504 17.3367C21.1722 17.5194 21.366 18.0093 21.1834 18.4312C20.8104 19.2925 20.266 20.019 19.5652 20.5904C18.5649 21.4062 17.309 21.8815 15.9331 21.9652C14.496 22.0527 13.0197 22.0953 11.4273 22.0953ZM16.3772 11.4422C16.3772 8.57397 14.0438 6.24053 11.1755 6.24053C8.30745 6.24053 5.97385 8.57397 5.97385 11.4422C5.97385 14.3105 8.30745 16.6439 11.1755 16.6439C14.0438 16.6439 16.3772 14.3105 16.3772 11.4422ZM14.7127 11.4422C14.7127 13.3925 13.126 14.9794 11.1755 14.9794C9.22523 14.9794 7.63839 13.3925 7.63839 11.4422C7.63839 9.49191 9.22523 7.90507 11.1755 7.90507C13.126 7.90507 14.7127 9.49191 14.7127 11.4422ZM16.9598 4.57599C16.2704 4.57599 15.7114 5.13484 15.7114 5.82439C15.7114 6.51394 16.2704 7.0728 16.9598 7.0728C17.6494 7.0728 18.2082 6.51394 18.2082 5.82439C18.2082 5.13484 17.6494 4.57599 16.9598 4.57599Z" fill="white"/>
</g>
<defs>
<clipPath id="clip0">
<rect width="21.3061" height="21.3061" fill="white" transform="translate(0.564575 0.789124)"/>
</clipPath>
</defs>
</svg>
