<svg width="22" height="23" viewBox="0 0 22 23" fill="none" xmlns="http://www.w3.org/2000/svg">
<g clip-path="url(#clip0)">
<path d="M5.95549 18.3916H4.70708C4.24739 18.3916 3.87481 18.0191 3.87481 17.5594V9.81924C3.87481 9.35954 4.24739 8.98697 4.70708 8.98697H5.95549C6.41519 8.98697 6.78776 9.35954 6.78776 9.81924V17.5594C6.78776 18.0191 6.41519 18.3916 5.95549 18.3916ZM7.0784 5.99064C7.0784 5.04897 6.31441 4.28464 5.37323 4.28464C4.42847 4.28464 3.66642 5.04897 3.66642 5.99064C3.66642 6.93263 4.42847 7.69695 5.37323 7.69695C6.31441 7.69695 7.0784 6.93263 7.0784 5.99064ZM17.6902 17.5594V13.2176C17.6902 10.693 17.1568 8.82052 14.2076 8.82052C12.7905 8.82052 11.8393 9.52925 11.4509 10.2663H11.4481V9.81924C11.4481 9.35954 11.0756 8.98697 10.6159 8.98697H9.4507C8.991 8.98697 8.61843 9.35954 8.61843 9.81924V17.5594C8.61843 18.0191 8.991 18.3916 9.4507 18.3916H10.6159C11.0756 18.3916 11.4481 18.0191 11.4481 17.5594V13.7221C11.4481 12.4993 11.7594 11.3146 13.2752 11.3146C14.7704 11.3146 14.8188 12.713 14.8188 13.7998V17.5594C14.8188 18.0191 15.1914 18.3916 15.6511 18.3916H16.8579C17.3176 18.3916 17.6902 18.0191 17.6902 17.5594ZM21.4354 18.7661C21.4354 18.3064 21.0628 17.9339 20.6031 17.9339C20.1434 17.9339 19.7709 18.3064 19.7709 18.7661C19.7709 19.6839 19.0241 20.4307 18.1063 20.4307H3.45835C2.54058 20.4307 1.79381 19.6839 1.79381 18.7661V4.11819C1.79381 3.20042 2.54058 2.45365 3.45835 2.45365H18.1063C19.0241 2.45365 19.7709 3.20042 19.7709 4.11819V14.5632C19.7709 15.0229 20.1434 15.3955 20.6031 15.3955C21.0628 15.3955 21.4354 15.0229 21.4354 14.5632V4.11819C21.4354 2.28248 19.942 0.789108 18.1063 0.789108H3.45835C1.62265 0.789108 0.129272 2.28248 0.129272 4.11819V18.7661C0.129272 20.6019 1.62265 22.0952 3.45835 22.0952H18.1063C19.942 22.0952 21.4354 20.6019 21.4354 18.7661Z" fill="url(#paint0_linear)"/>
</g>
<defs>
<linearGradient id="paint0_linear" x1="11.6358" y1="-2.69735" x2="6.83488" y2="30.5583" gradientUnits="userSpaceOnUse">
<stop stop-color="#0066FF"/>
<stop offset="0.430576" stop-color="#00369C"/>
<stop offset="0.9999" stop-color="#0031C4"/>
<stop offset="1" stop-color="#018FF6"/>
</linearGradient>
<clipPath id="clip0">
<rect width="21.3061" height="21.3061" fill="white" transform="translate(0.129272 0.789108)"/>
</clipPath>
</defs>
</svg>
