<svg width="175" height="38" viewBox="0 0 175 38" fill="none" xmlns="http://www.w3.org/2000/svg">
<path fill-rule="evenodd" clip-rule="evenodd" d="M35.4906 27.3164C34.8638 24.79 33.234 19.4557 31.7295 18.3297L32.8578 36.1947C30.6431 34.2098 24.8094 30.0234 19.1929 29.1571C18.6916 29.0798 17.8139 28.7239 17.6886 27.3164L15.3066 0.789349C15.3066 0.789349 15.3066 -0.185249 16.435 0.0314316C19.8615 0.536672 27.6427 2.60823 31.3535 6.85258C32.5654 8.26013 35.0644 12.3312 35.3651 17.3551C35.3669 17.3854 35.3683 17.4204 35.3695 17.4588C35.3763 17.6526 35.3859 17.9323 35.4906 18.1131C35.5951 17.9323 35.6049 17.6526 35.6116 17.4588C35.6129 17.4204 35.6141 17.3854 35.616 17.3551C35.9168 12.3312 38.4158 8.26013 39.6277 6.85258C43.3384 2.60823 51.1196 0.536672 54.5463 0.0314316C55.6746 -0.185249 55.6746 0.789349 55.6746 0.789349L53.2926 27.3164C53.1672 28.7239 52.2897 29.0798 51.7882 29.1571C46.1718 30.0234 40.3381 34.2098 38.1232 36.1947L39.2516 18.3297C37.7471 19.4557 36.1174 24.79 35.4906 27.3164Z" fill="url(#paint0_linear)"/>
<path d="M64.7007 36.3114C63.6979 36.3114 49.6986 36.994 42.7617 37.4632L45.7705 35.6617L62.9457 31.9804L66.4558 5.9947L69.3393 5.67007C71.0944 5.43443 70.9691 6.30057 70.8437 7.07764L67.2081 34.904C67.0075 36.1167 65.453 36.3114 64.7007 36.3114Z" fill="url(#paint1_linear)"/>
<path d="M49.2807 35.7308C46.2719 36.2723 44.7674 36.8496 44.1406 37.3549C43.9311 37.5237 42.6363 37.788 41.1318 37.6798C45.8455 33.3486 52.2895 31.4721 54.9221 31.075C56.0254 30.9019 56.2175 29.7758 56.1757 29.2344L58.0562 6.60519C58.1565 5.21928 59.7696 4.43971 60.5637 4.22316L65.9544 2.70722C67.2581 2.27413 67.3334 2.81549 67.208 3.46514L63.6978 31.6164C63.4469 33.5653 61.4411 33.782 60.8143 33.8901L49.2807 35.7308Z" fill="url(#paint2_linear)"/>
<path d="M6.46989 36.3583C7.47282 36.3583 21.472 37.0409 28.409 37.51L25.4002 35.7085L8.22502 32.0273L4.71477 6.04157L1.83134 5.71695C0.0762154 5.48131 0.20158 6.34745 0.326945 7.12452L3.96256 34.951C4.16314 36.1635 5.71768 36.3583 6.46989 36.3583Z" fill="url(#paint3_linear)"/>
<path d="M21.8898 35.7778C24.8985 36.3193 26.403 36.8966 27.0298 37.4019C27.2393 37.5707 28.5341 37.835 30.0386 37.7267C25.3248 33.3957 18.881 31.519 16.2482 31.1221C15.1451 30.9489 14.9528 29.8228 14.9946 29.2814L13.1141 6.65218C13.0138 5.26627 11.4007 4.4867 10.6068 4.27016L5.21605 2.75421C3.91224 2.32112 3.83702 2.86249 3.96239 3.51213L7.47264 31.6634C7.72337 33.6123 9.72924 33.8289 10.3561 33.9371L21.8898 35.7778Z" fill="url(#paint4_linear)"/>
<path d="M88.0371 8.37716V10.6152H82.2302V13.5418H86.6776V15.6937H82.2302V18.6806H88.0371V20.9186H78.9287V8.37716H88.0371ZM104.301 14.6436C104.301 15.5503 104.123 16.388 103.766 17.157C103.417 17.9202 102.922 18.583 102.281 19.1454C101.64 19.702 100.866 20.1382 99.96 20.4538C99.0602 20.7637 98.0601 20.9186 96.9595 20.9186H91.4635V8.37716H96.9595C98.0601 8.37716 99.0602 8.53503 99.96 8.85059C100.866 9.16615 101.64 9.60239 102.281 10.159C102.922 10.7155 103.417 11.3783 103.766 12.1473C104.123 12.9105 104.301 13.7427 104.301 14.6436ZM100.941 14.6436C100.941 14.0238 100.85 13.4643 100.669 12.9651C100.488 12.4658 100.225 12.0441 99.8823 11.6997C99.5457 11.3498 99.1315 11.0829 98.6394 10.8992C98.1475 10.7099 97.5875 10.6152 96.9595 10.6152H94.765V18.6806H96.9595C97.5875 18.6806 98.1475 18.5889 98.6394 18.4052C99.1315 18.2158 99.5457 17.949 99.8823 17.6046C100.225 17.2547 100.488 16.83 100.669 16.3307C100.85 15.8315 100.941 15.269 100.941 14.6436ZM113.315 18.6204C113.756 18.6204 114.147 18.5572 114.49 18.431C114.84 18.2989 115.135 18.1125 115.374 17.8715C115.614 17.6305 115.795 17.3378 115.918 16.9935C116.047 16.6435 116.112 16.2476 116.112 15.8056V8.37716H119.394V15.8056C119.394 16.5746 119.252 17.2805 118.967 17.9231C118.689 18.5658 118.287 19.1196 117.763 19.5844C117.238 20.0492 116.601 20.4108 115.85 20.669C115.099 20.9272 114.254 21.0563 113.315 21.0563C112.37 21.0563 111.522 20.9272 110.771 20.669C110.02 20.4108 109.383 20.0492 108.858 19.5844C108.334 19.1196 107.933 18.5658 107.654 17.9231C107.376 17.2805 107.237 16.5746 107.237 15.8056V8.37716H110.519V15.797C110.519 16.2389 110.58 16.6349 110.703 16.9849C110.833 17.3292 111.017 17.6248 111.257 17.8715C111.496 18.1125 111.788 18.2989 112.131 18.431C112.48 18.5572 112.875 18.6204 113.315 18.6204ZM129.737 18.8183C130.191 18.8183 130.592 18.7839 130.942 18.715C131.291 18.6462 131.621 18.5544 131.932 18.4396V16.5373H130.534C130.326 16.5373 130.165 16.4886 130.048 16.391C129.932 16.2933 129.873 16.1701 129.873 16.0208V14.4198H134.903V19.7135C134.541 19.9489 134.162 20.1525 133.767 20.3247C133.379 20.4912 132.961 20.6289 132.515 20.7379C132.074 20.8468 131.602 20.9272 131.097 20.9789C130.598 21.0305 130.061 21.0563 129.485 21.0563C128.449 21.0563 127.491 20.8957 126.611 20.5743C125.73 20.2472 124.966 19.7996 124.319 19.2315C123.678 18.6577 123.173 17.9805 122.804 17.2001C122.442 16.4139 122.26 15.5617 122.26 14.6436C122.26 13.7083 122.435 12.8503 122.785 12.0699C123.134 11.2836 123.633 10.6066 124.28 10.0385C124.934 9.47034 125.72 9.02843 126.64 8.71287C127.565 8.39731 128.598 8.23944 129.737 8.23944C130.327 8.23944 130.88 8.28248 131.398 8.36856C131.916 8.45463 132.392 8.57221 132.825 8.72147C133.265 8.87073 133.667 9.04857 134.029 9.25515C134.392 9.46174 134.716 9.68554 135 9.92655L134.049 11.2091C133.958 11.3296 133.848 11.4243 133.719 11.4932C133.596 11.562 133.46 11.5965 133.311 11.5965C133.117 11.5965 132.916 11.5391 132.709 11.4243C132.45 11.2866 132.204 11.169 131.971 11.0714C131.744 10.9681 131.511 10.8849 131.272 10.8218C131.032 10.7586 130.78 10.7128 130.514 10.684C130.249 10.6553 129.951 10.641 129.621 10.641C129.006 10.641 128.452 10.7386 127.96 10.9337C127.468 11.123 127.048 11.3928 126.698 11.7428C126.355 12.0928 126.089 12.5146 125.902 13.0081C125.714 13.4958 125.62 14.041 125.62 14.6436C125.62 15.3093 125.724 15.9003 125.931 16.4168C126.138 16.9332 126.423 17.3693 126.786 17.7252C127.155 18.081 127.588 18.3535 128.087 18.5429C128.592 18.7266 129.142 18.8183 129.737 18.8183ZM151.623 20.9186H149.079C148.794 20.9186 148.558 20.8613 148.37 20.7465C148.189 20.626 148.063 20.4739 147.991 20.2903L147.156 18.1039H141.777L140.942 20.2903C140.877 20.4509 140.751 20.5972 140.563 20.7293C140.375 20.8554 140.145 20.9186 139.873 20.9186H137.31L142.786 8.37716H146.146L151.623 20.9186ZM142.534 16.1241H146.399L145.098 12.6896C145.013 12.4715 144.913 12.2162 144.797 11.9235C144.686 11.6252 144.576 11.3038 144.466 10.9595C144.363 11.3095 144.256 11.6338 144.146 11.9322C144.036 12.2305 143.932 12.4887 143.835 12.7068L142.534 16.1241ZM157.921 20.9186H154.62V8.37716H157.921V20.9186ZM163.831 8.37716C163.974 8.37716 164.093 8.38284 164.191 8.39438C164.288 8.40591 164.375 8.42881 164.453 8.46324C164.53 8.49199 164.605 8.53503 164.676 8.59236C164.747 8.64968 164.828 8.72715 164.919 8.82477L171.638 16.3565C171.612 16.1155 171.593 15.8831 171.58 15.6593C171.567 15.4298 171.561 15.2146 171.561 15.0137V8.37716H174.454V20.9186H172.745C172.493 20.9186 172.279 20.8842 172.104 20.8153C171.93 20.7465 171.761 20.6203 171.6 20.4366L164.928 12.9651C164.948 13.1832 164.964 13.3984 164.977 13.6107C164.99 13.8172 164.996 14.0123 164.996 14.196V20.9186H162.103V8.37716H163.831Z" fill="#0134AC"/>
<path d="M83.8623 24.7458C84.441 24.7458 84.9674 24.8303 85.4413 24.9997C85.9152 25.169 86.3218 25.4115 86.6611 25.7273C87.0003 26.0384 87.2622 26.4183 87.4468 26.8667C87.6314 27.3151 87.7237 27.8209 87.7237 28.3838C87.7237 28.9466 87.6314 29.4546 87.4468 29.9076C87.2622 30.356 87.0003 30.7381 86.6611 31.0538C86.3218 31.3696 85.9152 31.6121 85.4413 31.7814C84.9674 31.9508 84.441 32.0355 83.8623 32.0355C83.2786 32.0355 82.7473 31.9508 82.2684 31.7814C81.7945 31.6121 81.3879 31.3696 81.0486 31.0538C80.7094 30.7381 80.445 30.356 80.2554 29.9076C80.0708 29.4546 79.9785 28.9466 79.9785 28.3838C79.9785 27.8209 80.0708 27.3151 80.2554 26.8667C80.445 26.4183 80.7094 26.0384 81.0486 25.7273C81.3879 25.4115 81.7945 25.169 82.2684 24.9997C82.7473 24.8303 83.2786 24.7458 83.8623 24.7458ZM83.8623 30.6145C84.451 30.6145 84.8875 30.4293 85.1719 30.0586C85.4563 29.6833 85.5984 29.1272 85.5984 28.3905C85.5984 27.6583 85.4563 27.107 85.1719 26.7364C84.8875 26.3611 84.451 26.1735 83.8623 26.1735C83.2587 26.1735 82.8147 26.3611 82.5303 26.7364C82.2459 27.107 82.1038 27.6583 82.1038 28.3905C82.1038 29.1272 82.2459 29.6833 82.5303 30.0586C82.8147 30.4293 83.2587 30.6145 83.8623 30.6145ZM101.112 24.8556L98.0812 31.9324H96.2104L93.1797 24.8556H94.8933C95.043 24.8556 95.1677 24.8875 95.2675 24.9517C95.3673 25.0157 95.4371 25.0981 95.477 25.1988L96.7715 28.6995C96.8565 28.9374 96.9313 29.1707 96.996 29.3997C97.061 29.6238 97.1183 29.8504 97.1683 30.0791C97.2231 29.8504 97.2829 29.6238 97.3479 29.3997C97.4176 29.1707 97.4975 28.9374 97.5873 28.6995L98.9267 25.1988C98.9617 25.0981 99.0292 25.0157 99.1289 24.9517C99.2286 24.8875 99.3458 24.8556 99.4805 24.8556H101.112ZM111.874 27.5601C111.874 27.3632 111.844 27.1757 111.784 26.9972C111.73 26.8187 111.64 26.6608 111.515 26.5235C111.391 26.3862 111.233 26.2787 111.044 26.201C110.854 26.1186 110.627 26.0774 110.363 26.0774C109.869 26.0774 109.482 26.2054 109.203 26.4618C108.923 26.718 108.741 27.084 108.656 27.5601H111.874ZM108.627 28.6858C108.691 29.3492 108.896 29.8343 109.24 30.141C109.589 30.4475 110.044 30.6008 110.602 30.6008C110.887 30.6008 111.131 30.571 111.335 30.5117C111.545 30.4475 111.727 30.3788 111.882 30.3057C112.041 30.2278 112.184 30.1592 112.308 30.0998C112.438 30.0356 112.565 30.0037 112.69 30.0037C112.85 30.0037 112.974 30.0586 113.064 30.1684L113.663 30.8549C113.443 31.0882 113.201 31.2826 112.937 31.4382C112.673 31.5892 112.398 31.7105 112.114 31.8021C111.829 31.8889 111.543 31.9485 111.253 31.9806C110.964 32.0171 110.685 32.0355 110.415 32.0355C109.876 32.0355 109.372 31.9553 108.904 31.7952C108.44 31.6304 108.033 31.3903 107.684 31.0745C107.339 30.7541 107.068 30.3583 106.868 29.8869C106.668 29.4155 106.569 28.8687 106.569 28.2465C106.569 27.766 106.654 27.313 106.823 26.8874C106.998 26.4618 107.247 26.0912 107.572 25.7754C107.896 25.4597 108.29 25.2102 108.754 25.0271C109.218 24.8396 109.742 24.7458 110.325 24.7458C110.819 24.7458 111.273 24.8189 111.687 24.9654C112.106 25.1072 112.466 25.3154 112.765 25.59C113.069 25.8645 113.304 26.2031 113.468 26.6059C113.638 27.004 113.723 27.4593 113.723 27.9719C113.723 28.1137 113.715 28.2304 113.7 28.3219C113.685 28.4134 113.66 28.4866 113.625 28.5416C113.591 28.5965 113.543 28.6353 113.483 28.6583C113.423 28.6765 113.346 28.6858 113.251 28.6858H108.627ZM122.181 26.0225C122.425 25.6198 122.707 25.3017 123.026 25.0683C123.346 24.8349 123.72 24.7183 124.149 24.7183C124.498 24.7183 124.782 24.7937 125.002 24.9448L124.867 26.345C124.842 26.4365 124.802 26.5007 124.747 26.5372C124.698 26.5693 124.628 26.5854 124.538 26.5854C124.458 26.5854 124.343 26.5761 124.194 26.5579C124.044 26.5349 123.904 26.5235 123.775 26.5235C123.585 26.5235 123.415 26.5486 123.266 26.5991C123.121 26.6494 122.991 26.7203 122.877 26.8118C122.762 26.9033 122.657 27.0154 122.562 27.1482C122.473 27.2809 122.388 27.4319 122.308 27.6013V31.9324H120.243V24.8556H121.462C121.672 24.8556 121.817 24.8898 121.896 24.9585C121.976 25.0271 122.034 25.146 122.068 25.3154L122.181 26.0225ZM135.905 26.3108C135.85 26.3885 135.793 26.4458 135.733 26.4823C135.678 26.5144 135.6 26.5305 135.501 26.5305C135.401 26.5305 135.299 26.5075 135.194 26.4618C135.089 26.416 134.972 26.3679 134.842 26.3176C134.712 26.2627 134.563 26.2124 134.393 26.1666C134.228 26.1207 134.036 26.0979 133.817 26.0979C133.483 26.0979 133.223 26.1619 133.039 26.2901C132.854 26.4137 132.762 26.5784 132.762 26.7843C132.762 26.9263 132.814 27.0452 132.919 27.1413C133.024 27.2374 133.161 27.3221 133.33 27.3953C133.505 27.464 133.702 27.5303 133.922 27.5943C134.141 27.6539 134.366 27.7202 134.595 27.7935C134.83 27.8666 135.057 27.9512 135.276 28.0473C135.496 28.1434 135.69 28.2647 135.86 28.4112C136.034 28.553 136.174 28.727 136.279 28.9329C136.384 29.1342 136.436 29.379 136.436 29.6673C136.436 30.0105 136.366 30.3286 136.227 30.6215C136.092 30.9098 135.892 31.159 135.628 31.3696C135.363 31.5801 135.034 31.7449 134.64 31.8638C134.246 31.9827 133.792 32.0423 133.278 32.0423C133.014 32.0423 132.752 32.0194 132.492 31.9736C132.233 31.9324 131.986 31.8729 131.752 31.7952C131.517 31.7128 131.297 31.619 131.093 31.5138C130.888 31.4085 130.711 31.2942 130.562 31.1706L131.041 30.4635C131.095 30.3811 131.163 30.3171 131.243 30.2713C131.327 30.2255 131.435 30.2027 131.564 30.2027C131.689 30.2027 131.804 30.2325 131.909 30.292C132.013 30.3469 132.131 30.4086 132.26 30.4772C132.39 30.5412 132.542 30.6031 132.717 30.6627C132.896 30.7176 133.118 30.745 133.383 30.745C133.582 30.745 133.755 30.7244 133.899 30.6832C134.044 30.642 134.161 30.5871 134.251 30.5184C134.341 30.4452 134.405 30.3651 134.446 30.2783C134.49 30.1866 134.513 30.0929 134.513 29.9968C134.513 29.8411 134.458 29.7154 134.348 29.6193C134.243 29.5186 134.104 29.4316 133.929 29.3585C133.759 29.2852 133.562 29.2189 133.338 29.1593C133.113 29.0998 132.884 29.0335 132.65 28.9604C132.42 28.8871 132.193 28.8001 131.968 28.6995C131.749 28.5988 131.552 28.4729 131.377 28.3219C131.208 28.1663 131.068 27.9764 130.958 27.7523C130.854 27.528 130.801 27.2557 130.801 26.9353C130.801 26.6424 130.863 26.3657 130.988 26.1049C131.113 25.8394 131.3 25.606 131.549 25.4047C131.799 25.2033 132.108 25.0432 132.477 24.9242C132.851 24.8051 133.283 24.7458 133.772 24.7458C134.321 24.7458 134.82 24.8282 135.269 24.9929C135.718 25.1576 136.087 25.3726 136.376 25.6381L135.905 26.3108ZM147.861 27.5601C147.861 27.3632 147.831 27.1757 147.771 26.9972C147.717 26.8187 147.627 26.6608 147.502 26.5235C147.377 26.3862 147.22 26.2787 147.031 26.201C146.841 26.1186 146.614 26.0774 146.35 26.0774C145.856 26.0774 145.469 26.2054 145.19 26.4618C144.91 26.718 144.728 27.084 144.643 27.5601H147.861ZM144.613 28.6858C144.678 29.3492 144.883 29.8343 145.227 30.141C145.576 30.4475 146.03 30.6008 146.589 30.6008C146.873 30.6008 147.118 30.571 147.322 30.5117C147.532 30.4475 147.714 30.3788 147.869 30.3057C148.028 30.2278 148.17 30.1592 148.295 30.0998C148.425 30.0356 148.552 30.0037 148.677 30.0037C148.836 30.0037 148.961 30.0586 149.051 30.1684L149.65 30.8549C149.43 31.0882 149.188 31.2826 148.924 31.4382C148.659 31.5892 148.385 31.7105 148.101 31.8021C147.816 31.8889 147.529 31.9485 147.24 31.9806C146.951 32.0171 146.671 32.0355 146.402 32.0355C145.863 32.0355 145.359 31.9553 144.89 31.7952C144.426 31.6304 144.02 31.3903 143.671 31.0745C143.326 30.7541 143.054 30.3583 142.855 29.8869C142.655 29.4155 142.556 28.8687 142.556 28.2465C142.556 27.766 142.64 27.313 142.81 26.8874C142.985 26.4618 143.234 26.0912 143.558 25.7754C143.883 25.4597 144.277 25.2102 144.741 25.0271C145.205 24.8396 145.729 24.7458 146.312 24.7458C146.806 24.7458 147.26 24.8189 147.674 24.9654C148.093 25.1072 148.452 25.3154 148.752 25.59C149.056 25.8645 149.291 26.2031 149.455 26.6059C149.625 27.004 149.71 27.4593 149.71 27.9719C149.71 28.1137 149.702 28.2304 149.687 28.3219C149.672 28.4134 149.647 28.4866 149.612 28.5416C149.577 28.5965 149.53 28.6353 149.47 28.6583C149.41 28.6765 149.333 28.6858 149.238 28.6858H144.613ZM160.263 28.9741C159.759 28.9969 159.34 29.0381 159.006 29.0976C158.671 29.1526 158.405 29.2257 158.205 29.3173C158.01 29.4088 157.871 29.5139 157.786 29.633C157.706 29.7473 157.666 29.8732 157.666 30.0105C157.666 30.285 157.749 30.4796 157.913 30.594C158.083 30.7083 158.317 30.7655 158.617 30.7655C158.961 30.7655 159.258 30.7106 159.507 30.6008C159.761 30.4863 160.014 30.3102 160.263 30.0723V28.9741ZM156.057 25.8371C156.511 25.4618 157.013 25.1828 157.561 24.9997C158.11 24.8121 158.704 24.7183 159.342 24.7183C159.801 24.7183 160.21 24.787 160.57 24.9242C160.934 25.0615 161.241 25.2537 161.49 25.5008C161.745 25.7433 161.939 26.0339 162.074 26.3725C162.209 26.7111 162.276 27.0817 162.276 27.4845V31.9324H161.333C161.138 31.9324 160.989 31.9073 160.884 31.857C160.784 31.8066 160.702 31.7014 160.637 31.5413L160.472 31.0882C160.278 31.2437 160.088 31.381 159.904 31.5001C159.724 31.619 159.537 31.7197 159.342 31.8021C159.148 31.8798 158.938 31.9394 158.714 31.9806C158.494 32.0218 158.247 32.0423 157.973 32.0423C157.634 32.0423 157.324 32.0011 157.045 31.9187C156.766 31.8363 156.524 31.7151 156.319 31.555C156.12 31.3903 155.965 31.1865 155.855 30.944C155.746 30.7015 155.691 30.4223 155.691 30.1066C155.691 29.8457 155.763 29.5849 155.908 29.3241C156.052 29.0632 156.299 28.8275 156.648 28.6172C157.003 28.402 157.472 28.2258 158.055 28.0885C158.644 27.9466 159.38 27.8666 160.263 27.8484V27.4845C160.263 27.0405 160.161 26.7157 159.956 26.5098C159.752 26.2992 159.457 26.194 159.073 26.194C158.789 26.194 158.552 26.2261 158.362 26.2901C158.173 26.3497 158.006 26.416 157.861 26.4893C157.721 26.5579 157.589 26.6242 157.464 26.6882C157.339 26.7478 157.195 26.7776 157.03 26.7776C156.886 26.7776 156.763 26.7455 156.663 26.6815C156.569 26.6128 156.489 26.5326 156.424 26.4411L156.057 25.8371ZM173.923 26.3108C173.868 26.3885 173.811 26.4458 173.751 26.4823C173.696 26.5144 173.619 26.5305 173.519 26.5305C173.419 26.5305 173.317 26.5075 173.212 26.4618C173.107 26.416 172.99 26.3679 172.86 26.3176C172.731 26.2627 172.581 26.2124 172.411 26.1666C172.247 26.1207 172.055 26.0979 171.835 26.0979C171.501 26.0979 171.242 26.1619 171.057 26.2901C170.872 26.4137 170.78 26.5784 170.78 26.7843C170.78 26.9263 170.833 27.0452 170.937 27.1413C171.042 27.2374 171.179 27.3221 171.349 27.3953C171.524 27.464 171.72 27.5303 171.94 27.5943C172.16 27.6539 172.384 27.7202 172.614 27.7935C172.848 27.8666 173.075 27.9512 173.294 28.0473C173.514 28.1434 173.709 28.2647 173.878 28.4112C174.053 28.553 174.192 28.727 174.297 28.9329C174.402 29.1342 174.454 29.379 174.454 29.6673C174.454 30.0105 174.384 30.3286 174.245 30.6215C174.11 30.9098 173.911 31.159 173.646 31.3696C173.382 31.5801 173.052 31.7449 172.658 31.8638C172.264 31.9827 171.81 32.0423 171.297 32.0423C171.032 32.0423 170.77 32.0194 170.511 31.9736C170.251 31.9324 170.004 31.8729 169.77 31.7952C169.535 31.7128 169.316 31.619 169.111 31.5138C168.907 31.4085 168.73 31.2942 168.58 31.1706L169.059 30.4635C169.114 30.3811 169.181 30.3171 169.261 30.2713C169.346 30.2255 169.453 30.2027 169.583 30.2027C169.708 30.2027 169.822 30.2325 169.927 30.292C170.032 30.3469 170.149 30.4086 170.279 30.4772C170.408 30.5412 170.561 30.6031 170.735 30.6627C170.915 30.7176 171.137 30.745 171.401 30.745C171.601 30.745 171.773 30.7244 171.918 30.6832C172.062 30.642 172.18 30.5871 172.269 30.5184C172.359 30.4452 172.424 30.3651 172.464 30.2783C172.509 30.1866 172.531 30.0929 172.531 29.9968C172.531 29.8411 172.476 29.7154 172.367 29.6193C172.262 29.5186 172.122 29.4316 171.947 29.3585C171.778 29.2852 171.581 29.2189 171.356 29.1593C171.132 29.0998 170.902 29.0335 170.668 28.9604C170.438 28.8871 170.211 28.8001 169.987 28.6995C169.767 28.5988 169.57 28.4729 169.396 28.3219C169.226 28.1663 169.086 27.9764 168.977 27.7523C168.872 27.528 168.819 27.2557 168.819 26.9353C168.819 26.6424 168.882 26.3657 169.007 26.1049C169.131 25.8394 169.318 25.606 169.568 25.4047C169.817 25.2033 170.127 25.0432 170.496 24.9242C170.87 24.8051 171.301 24.7458 171.79 24.7458C172.339 24.7458 172.838 24.8282 173.287 24.9929C173.736 25.1576 174.105 25.3726 174.395 25.6381L173.923 26.3108Z" fill="#272727"/>
<defs>
<linearGradient id="paint0_linear" x1="37.1076" y1="-5.92278" x2="29.7655" y2="50.799" gradientUnits="userSpaceOnUse">
<stop stop-color="#0066FF"/>
<stop offset="0.430576" stop-color="#00369C"/>
<stop offset="0.9999" stop-color="#0031C4"/>
<stop offset="1" stop-color="#018FF6"/>
</linearGradient>
<linearGradient id="paint1_linear" x1="43.4653" y1="4.6757" x2="75.5524" y2="35.5884" gradientUnits="userSpaceOnUse">
<stop stop-color="#F4F4F4"/>
<stop offset="1" stop-color="#B8B8B8"/>
</linearGradient>
<linearGradient id="paint2_linear" x1="62.291" y1="3.96219" x2="40.078" y2="35.9731" gradientUnits="userSpaceOnUse">
<stop stop-color="#FF0000"/>
<stop offset="1" stop-color="#CE0000"/>
</linearGradient>
<linearGradient id="paint3_linear" x1="27.7052" y1="4.72258" x2="-4.38179" y2="35.6352" gradientUnits="userSpaceOnUse">
<stop stop-color="#F4F4F4"/>
<stop offset="1" stop-color="#B8B8B8"/>
</linearGradient>
<linearGradient id="paint4_linear" x1="8.87933" y1="4.0092" x2="31.0924" y2="36.0201" gradientUnits="userSpaceOnUse">
<stop stop-color="#FF0000"/>
<stop offset="1" stop-color="#CE0000"/>
</linearGradient>
</defs>
</svg>
