<svg width="235" height="86" viewBox="0 0 235 86" fill="none" xmlns="http://www.w3.org/2000/svg">
<g clip-path="url(#clip0)">
<path fill-rule="evenodd" clip-rule="evenodd" d="M52.0033 35.9719C51.1779 32.645 49.0317 25.6205 47.0505 24.1377L48.5363 47.6634C45.6199 45.0496 37.9377 39.5366 30.5415 38.3959C29.8813 38.294 28.7256 37.8254 28.5605 35.9719L25.4238 1.03946C25.4238 1.03946 25.4238 -0.243947 26.9097 0.0413911C31.422 0.706723 41.6687 3.43468 46.5554 9.0239C48.1512 10.8775 51.4421 16.2385 51.8381 22.8543C51.8405 22.8941 51.8423 22.9402 51.8438 22.9908C51.8528 23.2461 51.8655 23.6144 52.0033 23.8525C52.141 23.6144 52.1539 23.2461 52.1626 22.9908C52.1644 22.9402 52.166 22.8941 52.1684 22.8543C52.5646 16.2385 55.8555 10.8775 57.4513 9.0239C62.3378 3.43468 72.5845 0.706723 77.097 0.0413911C78.5829 -0.243947 78.5829 1.03946 78.5829 1.03946L75.4461 35.9719C75.2809 37.8254 74.1254 38.294 73.465 38.3959C66.069 39.5366 58.3868 45.0496 55.4701 47.6634L56.956 24.1377C54.9748 25.6205 52.8288 32.645 52.0033 35.9719Z" fill="url(#paint0_linear)"/>
</g>
<mask id="mask0" mask-type="alpha" maskUnits="userSpaceOnUse" x="0" y="0" width="236" height="86">
<path d="M70.163 47.0523C66.2009 47.7654 64.2197 48.5256 63.3943 49.191C63.1184 49.4133 61.4133 49.7614 59.4321 49.6188C65.6394 43.9153 74.1252 41.4441 77.592 40.9213C79.0449 40.6933 79.2979 39.2104 79.2429 38.4975L81.7192 8.69791C81.8513 6.87286 83.9754 5.84627 85.0211 5.56111L92.12 3.56482C93.8368 2.9945 93.9359 3.7074 93.7709 4.5629L89.1483 41.6342C88.8181 44.2007 86.1767 44.486 85.3512 44.6283L70.163 47.0523Z" fill="url(#paint1_linear)"/>
<path d="M34.0936 47.1143C38.0558 47.8274 40.037 48.5876 40.8624 49.253C41.1383 49.4753 42.8434 49.8233 44.8245 49.6808C38.6171 43.9774 30.1315 41.5061 26.6645 40.9835C25.2118 40.7553 24.9586 39.2724 25.0136 38.5595L22.5373 8.75992C22.4052 6.93487 20.281 5.90828 19.2355 5.62312L12.1367 3.62683C10.4197 3.05651 10.3207 3.76941 10.4858 4.62491L15.1083 41.6962C15.4385 44.2627 18.0799 44.548 18.9053 44.6903L34.0936 47.1143Z" fill="url(#paint2_linear)"/>
<path d="M121.2 11.0315V13.9786H113.554V17.8326H119.41V20.6664H113.554V24.5997H121.2V27.5468H109.206V11.0315H121.2ZM142.617 19.2835C142.617 20.4775 142.383 21.5807 141.914 22.5933C141.454 23.5983 140.801 24.4711 139.957 25.2118C139.114 25.9447 138.095 26.5192 136.901 26.9347C135.716 27.3428 134.399 27.5468 132.95 27.5468H125.713V11.0315H132.95C134.399 11.0315 135.716 11.2393 136.901 11.6549C138.095 12.0704 139.114 12.6449 139.957 13.3778C140.801 14.1108 141.454 14.9836 141.914 15.9963C142.383 17.0012 142.617 18.0971 142.617 19.2835ZM138.193 19.2835C138.193 18.4673 138.074 17.7306 137.835 17.0731C137.596 16.4157 137.251 15.8603 136.799 15.4068C136.356 14.946 135.81 14.5946 135.162 14.3527C134.514 14.1033 133.777 13.9786 132.95 13.9786H130.06V24.5997H132.95C133.777 24.5997 134.514 24.4788 135.162 24.2369C135.81 23.9876 136.356 23.6362 136.799 23.1828C137.251 22.7219 137.596 22.1626 137.835 21.5052C138.074 20.8477 138.193 20.1071 138.193 19.2835ZM154.489 24.5203C155.068 24.5203 155.584 24.4371 156.036 24.271C156.496 24.0971 156.884 23.8516 157.2 23.5342C157.515 23.2168 157.754 22.8314 157.916 22.378C158.086 21.9171 158.171 21.3957 158.171 20.8137V11.0315H162.493V20.8137C162.493 21.8264 162.306 22.7559 161.931 23.6022C161.564 24.4485 161.036 25.1778 160.345 25.7899C159.655 26.402 158.815 26.878 157.826 27.2181C156.837 27.5582 155.725 27.7282 154.489 27.7282C153.244 27.7282 152.127 27.5582 151.138 27.2181C150.149 26.878 149.31 26.402 148.619 25.7899C147.929 25.1778 147.4 24.4485 147.034 23.6022C146.667 22.7559 146.484 21.8264 146.484 20.8137V11.0315H150.806V20.8024C150.806 21.3843 150.887 21.9058 151.049 22.3666C151.219 22.8201 151.462 23.2093 151.778 23.5342C152.093 23.8516 152.477 24.0971 152.929 24.271C153.389 24.4371 153.909 24.5203 154.489 24.5203ZM176.114 24.781C176.711 24.781 177.239 24.7357 177.7 24.645C178.16 24.5543 178.595 24.4335 179.004 24.2823V21.7772H177.163C176.89 21.7772 176.677 21.7131 176.523 21.5845C176.37 21.456 176.293 21.2937 176.293 21.0971V18.9888H182.917V25.9599C182.439 26.2698 181.941 26.538 181.421 26.7647C180.909 26.9839 180.36 27.1653 179.771 27.3088C179.192 27.4523 178.569 27.5582 177.904 27.6262C177.248 27.6942 176.54 27.7282 175.782 27.7282C174.418 27.7282 173.156 27.5167 171.997 27.0934C170.837 26.6627 169.831 26.0733 168.979 25.3251C168.135 24.5695 167.47 23.6777 166.984 22.65C166.507 21.6147 166.268 20.4925 166.268 19.2835C166.268 18.0518 166.498 16.9219 166.959 15.8943C167.419 14.8589 168.075 13.9673 168.928 13.2191C169.789 12.471 170.824 11.8891 172.035 11.4735C173.254 11.058 174.614 10.8501 176.114 10.8501C176.89 10.8501 177.619 10.9068 178.301 11.0201C178.983 11.1335 179.609 11.2883 180.181 11.4849C180.76 11.6814 181.289 11.9156 181.766 12.1876C182.243 12.4597 182.67 12.7544 183.045 13.0718L181.792 14.7607C181.672 14.9194 181.527 15.0441 181.357 15.1348C181.195 15.2255 181.016 15.2708 180.82 15.2708C180.564 15.2708 180.3 15.1953 180.027 15.0441C179.686 14.8628 179.362 14.7079 179.055 14.5794C178.757 14.4433 178.45 14.3339 178.135 14.2507C177.819 14.1675 177.486 14.1071 177.137 14.0693C176.788 14.0314 176.395 14.0126 175.961 14.0126C175.151 14.0126 174.422 14.1412 173.774 14.398C173.126 14.6474 172.572 15.0026 172.112 15.4635C171.66 15.9244 171.31 16.4798 171.063 17.1298C170.816 17.772 170.692 18.49 170.692 19.2835C170.692 20.1601 170.829 20.9384 171.102 21.6185C171.374 22.2986 171.749 22.8729 172.227 23.3415C172.713 23.8101 173.284 24.1689 173.94 24.4183C174.605 24.6602 175.33 24.781 176.114 24.781ZM204.934 27.5468H201.584C201.209 27.5468 200.898 27.4713 200.651 27.3201C200.412 27.1614 200.246 26.9613 200.152 26.7194L199.052 23.8402H191.968L190.868 26.7194C190.783 26.9309 190.617 27.1236 190.37 27.2974C190.122 27.4636 189.82 27.5468 189.462 27.5468H186.086L193.298 11.0315H197.722L204.934 27.5468ZM192.965 21.2331H198.055L196.341 16.7104C196.231 16.4232 196.098 16.087 195.945 15.7016C195.8 15.3087 195.655 14.8854 195.51 14.432C195.374 14.8929 195.233 15.32 195.088 15.7129C194.943 16.1058 194.807 16.4458 194.679 16.7331L192.965 21.2331ZM213.228 27.5468H208.881V11.0315H213.228V27.5468ZM221.011 11.0315C221.198 11.0315 221.356 11.0389 221.484 11.0541C221.612 11.0693 221.727 11.0995 221.829 11.1448C221.932 11.1827 222.03 11.2393 222.123 11.3148C222.217 11.3903 222.324 11.4923 222.443 11.6209L231.292 21.5392C231.258 21.2218 231.232 20.9157 231.215 20.621C231.198 20.3188 231.19 20.0355 231.19 19.7709V11.0315H235V27.5468H232.75C232.417 27.5468 232.136 27.5015 231.906 27.4108C231.675 27.3201 231.454 27.1539 231.241 26.9121L222.456 17.0731C222.481 17.3603 222.503 17.6437 222.52 17.9232C222.537 18.1953 222.545 18.4522 222.545 18.694V27.5468H218.735V11.0315H221.011Z" fill="#0134AC"/>
<path d="M115.703 32.5869C116.465 32.5869 117.158 32.6982 117.782 32.9213C118.406 33.1443 118.942 33.4636 119.388 33.8794C119.835 34.2891 120.18 34.7894 120.423 35.3799C120.666 35.9704 120.788 36.6365 120.788 37.3777C120.788 38.1189 120.666 38.7878 120.423 39.3844C120.18 39.9748 119.835 40.478 119.388 40.8938C118.942 41.3096 118.406 41.6289 117.782 41.8519C117.158 42.075 116.465 42.1865 115.703 42.1865C114.934 42.1865 114.235 42.075 113.604 41.8519C112.98 41.6289 112.444 41.3096 111.998 40.8938C111.551 40.478 111.203 39.9748 110.953 39.3844C110.71 38.7878 110.588 38.1189 110.588 37.3777C110.588 36.6365 110.71 35.9704 110.953 35.3799C111.203 34.7894 111.551 34.2891 111.998 33.8794C112.444 33.4636 112.98 33.1443 113.604 32.9213C114.235 32.6982 114.934 32.5869 115.703 32.5869ZM115.703 40.3153C116.478 40.3153 117.053 40.0713 117.427 39.5832C117.802 39.089 117.989 38.3567 117.989 37.3866C117.989 36.4223 117.802 35.6964 117.427 35.2083C117.053 34.7141 116.478 34.4671 115.703 34.4671C114.908 34.4671 114.323 34.7141 113.949 35.2083C113.574 35.6964 113.387 36.4223 113.387 37.3866C113.387 38.3567 113.574 39.089 113.949 39.5832C114.323 40.0713 114.908 40.3153 115.703 40.3153ZM138.418 32.7316L134.427 42.0508H131.964L127.972 32.7316H130.229C130.426 32.7316 130.59 32.7736 130.722 32.8581C130.853 32.9424 130.945 33.0509 130.998 33.1835L132.702 37.7935C132.814 38.1067 132.913 38.414 132.998 38.7155C133.084 39.0106 133.159 39.309 133.225 39.6102C133.297 39.309 133.376 39.0106 133.461 38.7155C133.553 38.414 133.658 38.1067 133.777 37.7935L135.541 33.1835C135.587 33.0509 135.675 32.9424 135.807 32.8581C135.938 32.7736 136.092 32.7316 136.27 32.7316H138.418ZM152.591 36.293C152.591 36.0338 152.551 35.7868 152.472 35.5518C152.4 35.3168 152.282 35.1087 152.118 34.928C151.954 34.7472 151.747 34.6056 151.497 34.5032C151.247 34.3948 150.948 34.3405 150.6 34.3405C149.95 34.3405 149.441 34.5091 149.073 34.8467C148.705 35.1841 148.465 35.6661 148.353 36.293H152.591ZM148.314 37.7754C148.399 38.649 148.669 39.2879 149.122 39.6917C149.582 40.0953 150.18 40.2972 150.915 40.2972C151.29 40.2972 151.612 40.258 151.881 40.1798C152.157 40.0953 152.397 40.0049 152.601 39.9086C152.811 39.806 152.998 39.7156 153.162 39.6375C153.333 39.5529 153.501 39.5109 153.665 39.5109C153.875 39.5109 154.039 39.5832 154.158 39.7278L154.946 40.6318C154.657 40.9391 154.338 41.195 153.99 41.4C153.642 41.5988 153.281 41.7585 152.906 41.8791C152.532 41.9935 152.154 42.0719 151.773 42.1142C151.392 42.1623 151.024 42.1865 150.669 42.1865C149.96 42.1865 149.296 42.0808 148.679 41.87C148.068 41.6531 147.532 41.3368 147.072 40.921C146.619 40.4991 146.261 39.9779 145.998 39.3571C145.735 38.7364 145.604 38.0163 145.604 37.1969C145.604 36.5641 145.716 35.9676 145.939 35.4071C146.169 34.8467 146.497 34.3586 146.925 33.9428C147.351 33.527 147.871 33.1985 148.482 32.9574C149.093 32.7104 149.782 32.5869 150.551 32.5869C151.201 32.5869 151.799 32.6832 152.344 32.8762C152.896 33.0628 153.369 33.3371 153.764 33.6986C154.164 34.0602 154.473 34.506 154.69 35.0364C154.913 35.5607 155.025 36.1603 155.025 36.8353C155.025 37.022 155.015 37.1758 154.995 37.2962C154.975 37.4166 154.943 37.5131 154.897 37.5855C154.851 37.6578 154.788 37.7089 154.71 37.7392C154.631 37.7632 154.529 37.7754 154.404 37.7754H148.314ZM166.163 34.2682C166.485 33.7378 166.856 33.319 167.276 33.0117C167.697 32.7043 168.19 32.5508 168.754 32.5508C169.214 32.5508 169.589 32.6501 169.878 32.849L169.701 34.6929C169.668 34.8134 169.615 34.8979 169.543 34.946C169.477 34.9883 169.385 35.0094 169.267 35.0094C169.162 35.0094 169.011 34.9972 168.814 34.9733C168.617 34.943 168.433 34.928 168.262 34.928C168.012 34.928 167.789 34.9611 167.592 35.0275C167.401 35.0937 167.231 35.1872 167.079 35.3076C166.928 35.428 166.79 35.5757 166.665 35.7506C166.547 35.9253 166.436 36.1242 166.33 36.3472V42.0508H163.61V32.7316H165.217C165.493 32.7316 165.683 32.7766 165.788 32.867C165.894 32.9574 165.969 33.114 166.015 33.3371L166.163 34.2682ZM184.235 34.6479C184.163 34.7502 184.088 34.8256 184.009 34.8737C183.936 34.916 183.835 34.9371 183.703 34.9371C183.572 34.9371 183.437 34.9068 183.299 34.8467C183.161 34.7864 183.007 34.723 182.836 34.6568C182.665 34.5845 182.468 34.5183 182.245 34.4579C182.028 34.3976 181.775 34.3675 181.486 34.3675C181.046 34.3675 180.704 34.4518 180.461 34.6206C180.218 34.7833 180.097 35.0003 180.097 35.2714C180.097 35.4583 180.166 35.6149 180.304 35.7415C180.442 35.868 180.622 35.9795 180.845 36.076C181.075 36.1664 181.335 36.2538 181.624 36.3381C181.913 36.4165 182.209 36.5038 182.511 36.6003C182.82 36.6966 183.119 36.8081 183.408 36.9346C183.697 37.0612 183.953 37.2208 184.176 37.4138C184.406 37.6005 184.59 37.8296 184.728 38.1008C184.866 38.3659 184.935 38.6882 184.935 39.0679C184.935 39.5198 184.843 39.9387 184.659 40.3244C184.482 40.7041 184.219 41.0323 183.871 41.3096C183.523 41.5868 183.089 41.8038 182.57 41.9604C182.051 42.117 181.453 42.1954 180.777 42.1954C180.428 42.1954 180.083 42.1653 179.742 42.105C179.4 42.0508 179.075 41.9724 178.766 41.87C178.457 41.7615 178.168 41.638 177.899 41.4995C177.63 41.3608 177.396 41.2103 177.199 41.0476L177.83 40.1164C177.902 40.0079 177.991 39.9236 178.096 39.8633C178.208 39.803 178.349 39.7729 178.52 39.7729C178.684 39.7729 178.835 39.8121 178.973 39.8905C179.111 39.9629 179.265 40.0441 179.436 40.1345C179.607 40.2188 179.808 40.3002 180.037 40.3787C180.274 40.451 180.566 40.4871 180.915 40.4871C181.177 40.4871 181.404 40.4599 181.594 40.4057C181.785 40.3514 181.939 40.2791 182.058 40.1887C182.176 40.0922 182.261 39.9868 182.314 39.8725C182.373 39.7518 182.402 39.6283 182.402 39.5017C182.402 39.2968 182.33 39.1313 182.186 39.0047C182.048 38.8721 181.864 38.7575 181.634 38.6612C181.41 38.5647 181.151 38.4774 180.855 38.399C180.56 38.3206 180.258 38.2332 179.949 38.137C179.647 38.0405 179.348 37.9259 179.052 37.7935C178.763 37.6608 178.503 37.4951 178.274 37.2962C178.05 37.0912 177.866 36.8412 177.722 36.5461C177.584 36.2507 177.515 35.8922 177.515 35.4703C177.515 35.0846 177.597 34.7202 177.761 34.3767C177.925 34.0271 178.172 33.7198 178.5 33.4547C178.829 33.1894 179.236 32.9786 179.722 32.822C180.215 32.6651 180.783 32.5869 181.427 32.5869C182.15 32.5869 182.807 32.6954 183.398 32.9123C183.989 33.1293 184.475 33.4124 184.856 33.762L184.235 34.6479ZM199.98 36.293C199.98 36.0338 199.941 35.7868 199.862 35.5518C199.79 35.3168 199.672 35.1087 199.507 34.928C199.343 34.7472 199.136 34.6056 198.887 34.5032C198.637 34.3948 198.338 34.3405 197.99 34.3405C197.339 34.3405 196.83 34.5091 196.463 34.8467C196.094 35.1841 195.855 35.6661 195.743 36.293H199.98ZM195.704 37.7754C195.789 38.649 196.058 39.2879 196.512 39.6917C196.972 40.0953 197.569 40.2972 198.305 40.2972C198.68 40.2972 199.002 40.258 199.271 40.1798C199.547 40.0953 199.787 40.0049 199.99 39.9086C200.201 39.806 200.388 39.7156 200.552 39.6375C200.723 39.5529 200.89 39.5109 201.055 39.5109C201.265 39.5109 201.429 39.5832 201.547 39.7278L202.336 40.6318C202.046 40.9391 201.728 41.195 201.38 41.4C201.032 41.5988 200.67 41.7585 200.296 41.8791C199.921 41.9935 199.543 42.0719 199.163 42.1142C198.781 42.1623 198.414 42.1865 198.059 42.1865C197.349 42.1865 196.686 42.0808 196.068 41.87C195.457 41.6531 194.922 41.3368 194.462 40.921C194.009 40.4991 193.651 39.9779 193.388 39.3571C193.125 38.7364 192.994 38.0163 192.994 37.1969C192.994 36.5641 193.105 35.9676 193.329 35.4071C193.559 34.8467 193.887 34.3586 194.314 33.9428C194.741 33.527 195.26 33.1985 195.871 32.9574C196.482 32.7104 197.172 32.5869 197.941 32.5869C198.591 32.5869 199.189 32.6832 199.734 32.8762C200.286 33.0628 200.759 33.3371 201.153 33.6986C201.554 34.0602 201.863 34.506 202.08 35.0364C202.303 35.5607 202.415 36.1603 202.415 36.8353C202.415 37.022 202.405 37.1758 202.385 37.2962C202.365 37.4166 202.332 37.5131 202.286 37.5855C202.24 37.6578 202.178 37.7089 202.099 37.7392C202.02 37.7632 201.919 37.7754 201.794 37.7754H195.704ZM216.312 38.155C215.648 38.1851 215.097 38.2393 214.656 38.3177C214.216 38.3901 213.865 38.4863 213.602 38.607C213.346 38.7274 213.162 38.866 213.05 39.0228C212.945 39.1733 212.892 39.339 212.892 39.5198C212.892 39.8814 213.001 40.1375 213.218 40.2883C213.441 40.4388 213.75 40.5141 214.144 40.5141C214.597 40.5141 214.988 40.4418 215.316 40.2972C215.651 40.1465 215.983 39.9145 216.312 39.6013V38.155ZM210.774 34.024C211.372 33.5298 212.032 33.1624 212.754 32.9213C213.477 32.6743 214.259 32.5508 215.1 32.5508C215.704 32.5508 216.243 32.6412 216.716 32.822C217.195 33.0027 217.6 33.2558 217.928 33.5812C218.263 33.9005 218.519 34.2832 218.697 34.7291C218.874 35.1749 218.963 35.6631 218.963 36.1934V42.0508H217.721C217.465 42.0508 217.268 42.0177 217.13 41.9515C216.998 41.885 216.89 41.7465 216.805 41.5357L216.588 40.9391C216.332 41.1438 216.082 41.3246 215.839 41.4814C215.602 41.638 215.356 41.7707 215.1 41.8791C214.843 41.9815 214.567 42.0599 214.272 42.1142C213.983 42.1684 213.658 42.1954 213.296 42.1954C212.85 42.1954 212.442 42.1412 212.074 42.0327C211.707 41.9242 211.388 41.7646 211.118 41.5537C210.856 41.3368 210.652 41.0684 210.507 40.7491C210.363 40.4298 210.291 40.0622 210.291 39.6464C210.291 39.3029 210.386 38.9594 210.577 38.6159C210.767 38.2724 211.092 37.962 211.552 37.685C212.019 37.4016 212.636 37.1697 213.405 36.9889C214.18 36.802 215.149 36.6966 216.312 36.6726V36.1934C216.312 35.6088 216.177 35.181 215.908 34.9099C215.638 34.6326 215.251 34.4941 214.745 34.4941C214.37 34.4941 214.058 34.5363 213.809 34.6206C213.559 34.699 213.339 34.7864 213.148 34.8829C212.965 34.9733 212.791 35.0606 212.626 35.1449C212.462 35.2233 212.272 35.2625 212.055 35.2625C211.864 35.2625 211.703 35.2203 211.572 35.136C211.447 35.0456 211.342 34.9399 211.256 34.8195L210.774 34.024ZM234.3 34.6479C234.228 34.7502 234.153 34.8256 234.074 34.8737C234.001 34.916 233.9 34.9371 233.768 34.9371C233.637 34.9371 233.502 34.9068 233.364 34.8467C233.226 34.7864 233.072 34.723 232.901 34.6568C232.73 34.5845 232.533 34.5183 232.31 34.4579C232.093 34.3976 231.84 34.3675 231.551 34.3675C231.111 34.3675 230.769 34.4518 230.526 34.6206C230.283 34.7833 230.161 35.0003 230.161 35.2714C230.161 35.4583 230.231 35.6149 230.369 35.7415C230.507 35.868 230.687 35.9795 230.91 36.076C231.141 36.1664 231.4 36.2538 231.689 36.3381C231.978 36.4165 232.274 36.5038 232.576 36.6003C232.885 36.6966 233.184 36.8081 233.473 36.9346C233.762 37.0612 234.018 37.2208 234.241 37.4138C234.471 37.6005 234.655 37.8296 234.793 38.1008C234.931 38.3659 235 38.6882 235 39.0679C235 39.5198 234.908 39.9387 234.724 40.3244C234.547 40.7041 234.284 41.0323 233.936 41.3096C233.587 41.5868 233.154 41.8038 232.635 41.9604C232.116 42.117 231.518 42.1954 230.842 42.1954C230.493 42.1954 230.148 42.1653 229.807 42.105C229.465 42.0508 229.14 41.9724 228.831 41.87C228.522 41.7615 228.233 41.638 227.964 41.4995C227.695 41.3608 227.461 41.2103 227.264 41.0476L227.895 40.1164C227.967 40.0079 228.056 39.9236 228.161 39.8633C228.273 39.803 228.414 39.7729 228.585 39.7729C228.749 39.7729 228.9 39.8121 229.038 39.8905C229.176 39.9629 229.33 40.0441 229.501 40.1345C229.672 40.2188 229.873 40.3002 230.102 40.3787C230.339 40.451 230.631 40.4871 230.98 40.4871C231.242 40.4871 231.469 40.4599 231.659 40.4057C231.85 40.3514 232.004 40.2791 232.123 40.1887C232.241 40.0922 232.326 39.9868 232.379 39.8725C232.438 39.7518 232.467 39.6283 232.467 39.5017C232.467 39.2968 232.395 39.1313 232.251 39.0047C232.113 38.8721 231.929 38.7575 231.699 38.6612C231.476 38.5647 231.216 38.4774 230.92 38.399C230.625 38.3206 230.322 38.2332 230.014 38.137C229.712 38.0405 229.413 37.9259 229.117 37.7935C228.828 37.6608 228.568 37.4951 228.339 37.2962C228.115 37.0912 227.931 36.8412 227.787 36.5461C227.649 36.2507 227.58 35.8922 227.58 35.4703C227.58 35.0846 227.662 34.7202 227.826 34.3767C227.99 34.0271 228.237 33.7198 228.565 33.4547C228.894 33.1894 229.301 32.9786 229.787 32.822C230.28 32.6651 230.848 32.5869 231.492 32.5869C232.215 32.5869 232.872 32.6954 233.463 32.9123C234.054 33.1293 234.54 33.4124 234.921 33.762L234.3 34.6479Z" fill="#272727"/>
</mask>
<g mask="url(#mask0)">
<rect x="-14.2632" y="-13.4243" width="270.162" height="113.267" fill="white"/>
</g>
<defs>
<linearGradient id="paint0_linear" x1="68.4882" y1="1.91261" x2="43.9964" y2="54.8925" gradientUnits="userSpaceOnUse">
<stop stop-color="#FF0000"/>
<stop offset="1" stop-color="#CE0000"/>
</linearGradient>
<linearGradient id="paint1_linear" x1="87.2959" y1="5.21744" x2="58.0444" y2="47.3713" gradientUnits="userSpaceOnUse">
<stop stop-color="#FF0000"/>
<stop offset="1" stop-color="#CE0000"/>
</linearGradient>
<linearGradient id="paint2_linear" x1="16.9607" y1="5.27947" x2="46.2123" y2="47.4333" gradientUnits="userSpaceOnUse">
<stop stop-color="#FF0000"/>
<stop offset="1" stop-color="#CE0000"/>
</linearGradient>
<clipPath id="clip0">
<rect width="103.676" height="85.596" fill="white"/>
</clipPath>
</defs>
</svg>
