<svg width="22" height="23" viewBox="0 0 22 23" fill="none" xmlns="http://www.w3.org/2000/svg">
<path d="M3.81486 22.0952H10.7643V14.5216H8.26751V12.0248H10.7643V8.90376C10.7643 7.18281 12.1644 5.78275 13.8853 5.78275H17.0063V8.27956H14.5095C13.8211 8.27956 13.2611 8.83955 13.2611 9.52796V12.0248H16.8937L16.4776 14.5216H13.2611V22.0952H18.879C20.5999 22.0952 22 20.6952 22 18.9742V3.91014C22 2.18919 20.5999 0.789124 18.879 0.789124H3.81486C2.09391 0.789124 0.693848 2.18919 0.693848 3.91014V18.9742C0.693848 20.6952 2.09391 22.0952 3.81486 22.0952ZM1.94225 3.91014C1.94225 2.8776 2.78233 2.03753 3.81486 2.03753H18.879C19.9115 2.03753 20.7516 2.8776 20.7516 3.91014V18.9742C20.7516 20.0068 19.9115 20.8468 18.879 20.8468H14.5095V15.77H17.5351L18.3674 10.7764H14.5095V9.52796H18.2548V4.53434H13.8853C11.476 4.53434 9.51591 6.4944 9.51591 8.90376V10.7764H7.0191V15.77H9.51591V20.8468H3.81486C2.78233 20.8468 1.94225 20.0068 1.94225 18.9742V3.91014Z" fill="white"/>
</svg>
