<svg width="35" height="35" viewBox="0 0 35 35" fill="none" xmlns="http://www.w3.org/2000/svg">
<path fill-rule="evenodd" clip-rule="evenodd" d="M35 17.5C35 27.165 27.1649 35 17.5 35C7.83501 35 0 27.165 0 17.5C0 7.83502 7.83501 0 17.5 0C27.1649 0 35 7.83502 35 17.5ZM16.7676 8.34406L24.9018 16.404C25.5331 17.0327 25.5331 18.0482 24.9018 18.6769L16.7676 26.7369C16.1592 27.2543 15.2595 27.2543 14.6511 26.7369C13.9694 26.1582 13.8897 25.1394 14.4738 24.464L21.4529 17.5485L14.4737 10.617C13.8425 9.98828 13.8425 8.97278 14.4737 8.34406C15.1082 7.7186 16.1331 7.7186 16.7676 8.34406ZM15.7503 19.25C14.7839 19.25 14.0003 18.4665 14.0003 17.5C14.0003 16.5335 14.7839 15.75 15.7503 15.75C16.7168 15.75 17.5003 16.5335 17.5003 17.5C17.5003 18.4665 16.7168 19.25 15.7503 19.25Z" fill="url(#paint0_linear)"/>
<defs>
<linearGradient id="paint0_linear" x1="16.098" y1="-5.72727" x2="23.9845" y2="48.9025" gradientUnits="userSpaceOnUse">
<stop stop-color="#0066FF"/>
<stop offset="0.430576" stop-color="#00369C"/>
<stop offset="0.9999" stop-color="#0031C4"/>
<stop offset="1" stop-color="#018FF6"/>
</linearGradient>
</defs>
</svg>
