<svg width="32" height="32" viewBox="0 0 32 32" fill="none" xmlns="http://www.w3.org/2000/svg">
<path d="M23.5 16.9375C24.0178 16.9375 24.4375 16.5178 24.4375 16C24.4375 15.4822 24.0178 15.0625 23.5 15.0625C22.9822 15.0625 22.5625 15.4822 22.5625 16C22.5625 16.5178 22.9822 16.9375 23.5 16.9375Z" fill="white"/>
<path d="M16 0C7.17756 0 0 7.17756 0 16C0 24.8224 7.17756 32 16 32C24.8224 32 32 24.8224 32 16C32 7.17756 24.8224 0 16 0ZM8.5 18.8125C6.94919 18.8125 5.6875 17.5508 5.6875 16C5.6875 14.4492 6.94919 13.1875 8.5 13.1875C10.0508 13.1875 11.3125 14.4492 11.3125 16C11.3125 17.5508 10.0508 18.8125 8.5 18.8125ZM16 18.8125C14.4492 18.8125 13.1875 17.5508 13.1875 16C13.1875 14.4492 14.4492 13.1875 16 13.1875C17.5508 13.1875 18.8125 14.4492 18.8125 16C18.8125 17.5508 17.5508 18.8125 16 18.8125ZM23.5 18.8125C21.9492 18.8125 20.6875 17.5508 20.6875 16C20.6875 14.4492 21.9492 13.1875 23.5 13.1875C25.0508 13.1875 26.3125 14.4492 26.3125 16C26.3125 17.5508 25.0508 18.8125 23.5 18.8125Z" fill="white"/>
<path d="M16 16.9375C16.5178 16.9375 16.9375 16.5178 16.9375 16C16.9375 15.4822 16.5178 15.0625 16 15.0625C15.4822 15.0625 15.0625 15.4822 15.0625 16C15.0625 16.5178 15.4822 16.9375 16 16.9375Z" fill="white"/>
<path d="M8.5 16.9375C9.01777 16.9375 9.4375 16.5178 9.4375 16C9.4375 15.4822 9.01777 15.0625 8.5 15.0625C7.98223 15.0625 7.5625 15.4822 7.5625 16C7.5625 16.5178 7.98223 16.9375 8.5 16.9375Z" fill="white"/>
</svg>
