<svg width="16" height="16" viewBox="0 0 16 16" fill="none" xmlns="http://www.w3.org/2000/svg">
<path d="M7.99996 12.6828C8.34511 12.6828 8.62491 12.403 8.62491 12.0578C8.62491 11.7127 8.34511 11.4329 7.99996 11.4329C7.6548 11.4329 7.375 11.7127 7.375 12.0578C7.375 12.403 7.6548 12.6828 7.99996 12.6828Z" fill="url(#paint0_linear)"/>
<path d="M9.7434 3.63989H6.25636C6.0609 3.63989 5.90186 3.79152 5.90186 3.97755V10.5691C5.90186 10.7553 6.06079 10.9068 6.25636 10.9068H9.7434C9.93887 10.9068 10.0979 10.7551 10.0979 10.5691V3.97755C10.0978 3.79136 9.93887 3.63989 9.7434 3.63989Z" fill="url(#paint1_linear)"/>
<path d="M8.00071 0C3.58263 0 0.000976562 3.58192 0.000976562 7.99984C0.000976562 12.4178 3.58263 16 8.00071 16C12.4188 16 16.0009 12.418 16.0009 7.99984C16.0009 3.58171 12.4188 0 8.00071 0ZM11.1131 11.9478C11.1131 12.5589 10.6177 13.0544 10.0065 13.0544H5.99511C5.38402 13.0544 4.8885 12.5589 4.8885 11.9478V4.01723C4.8885 3.40613 5.38396 2.91061 5.99511 2.91061H10.0065C10.6176 2.91061 11.1131 3.40608 11.1131 4.01723V11.9478Z" fill="url(#paint2_linear)"/>
<defs>
<linearGradient id="paint0_linear" x1="8.05002" y1="11.2283" x2="7.76838" y2="13.1793" gradientUnits="userSpaceOnUse">
<stop stop-color="#0066FF"/>
<stop offset="0.430576" stop-color="#00369C"/>
<stop offset="0.9999" stop-color="#0031C4"/>
<stop offset="1" stop-color="#018FF6"/>
</linearGradient>
<linearGradient id="paint1_linear" x1="8.16796" y1="2.45077" x2="5.44337" y2="13.3485" gradientUnits="userSpaceOnUse">
<stop stop-color="#0066FF"/>
<stop offset="0.430576" stop-color="#00369C"/>
<stop offset="0.9999" stop-color="#0031C4"/>
<stop offset="1" stop-color="#018FF6"/>
</linearGradient>
<linearGradient id="paint2_linear" x1="8.64183" y1="-2.61818" x2="5.03652" y2="22.3554" gradientUnits="userSpaceOnUse">
<stop stop-color="#0066FF"/>
<stop offset="0.430576" stop-color="#00369C"/>
<stop offset="0.9999" stop-color="#0031C4"/>
<stop offset="1" stop-color="#018FF6"/>
</linearGradient>
</defs>
</svg>
