<svg width="35" height="35" viewBox="0 0 35 35" fill="none" xmlns="http://www.w3.org/2000/svg">
<path fill-rule="evenodd" clip-rule="evenodd" d="M-4.19617e-05 17.5C-4.19617e-05 27.165 7.83506 35 17.5 35C27.165 35 35 27.165 35 17.5C35 7.83502 27.165 0 17.5 0C7.83506 0 -4.19617e-05 7.83502 -4.19617e-05 17.5ZM18.2324 8.34406L10.0982 16.404C9.46686 17.0327 9.46686 18.0482 10.0982 18.6769L18.2324 26.7369C18.8408 27.2543 19.7405 27.2543 20.3489 26.7369C21.0306 26.1582 21.1103 25.1394 20.5262 24.464L13.5471 17.5485L20.5263 10.617C21.1575 9.98828 21.1575 8.97278 20.5263 8.34406C19.8918 7.7186 18.8669 7.7186 18.2324 8.34406ZM19.2497 19.25C20.2161 19.25 20.9997 18.4665 20.9997 17.5C20.9997 16.5335 20.2161 15.75 19.2497 15.75C18.2832 15.75 17.4997 16.5335 17.4997 17.5C17.4997 18.4665 18.2832 19.25 19.2497 19.25Z" fill="url(#paint0_linear)"/>
<defs>
<linearGradient id="paint0_linear" x1="18.902" y1="-5.72727" x2="11.0155" y2="48.9025" gradientUnits="userSpaceOnUse">
<stop stop-color="#0066FF"/>
<stop offset="0.430576" stop-color="#00369C"/>
<stop offset="0.9999" stop-color="#0031C4"/>
<stop offset="1" stop-color="#018FF6"/>
</linearGradient>
</defs>
</svg>
