<svg width="65" height="65" viewBox="0 0 65 65" fill="none" xmlns="http://www.w3.org/2000/svg">
<path d="M22.3438 38.5938H8.125V17.2656H24.375L35.5469 26.4062L22.3438 38.5938Z" fill="#FFCB9B"/>
<path d="M2.03125 16.25H8.125V38.5938H2.03125V16.25Z" fill="#004BEF"/>
<path d="M38.5935 19.2969L18.1071 39.7833C17.8404 40.0503 17.5237 40.2621 17.1751 40.4066C16.8265 40.5512 16.4529 40.6256 16.0755 40.6257C15.6981 40.6258 15.3245 40.5516 14.9758 40.4072C14.6272 40.2628 14.3104 40.0512 14.0435 39.7844C13.7767 39.5175 13.565 39.2007 13.4207 38.8521C13.2763 38.5034 13.2021 38.1297 13.2021 37.7524C13.2022 37.375 13.2767 37.0014 13.4212 36.6528C13.5658 36.3042 13.7776 35.9875 14.0446 35.7208L34.531 15.2344L38.5935 19.2969Z" fill="#B1712C"/>
<path d="M29.9561 19.8062L34.5257 15.2366L38.5876 19.2985L34.018 23.8681L29.9561 19.8062Z" fill="#FF0000"/>
<path d="M19.2969 45.7031H26.4062V57.8906H19.2969V45.7031Z" fill="#FF0000"/>
<path d="M30.4688 40.625H37.5781V57.8906H30.4688V40.625Z" fill="#FF0000"/>
<path d="M41.6406 34.5312H48.75V57.8906H41.6406V34.5312Z" fill="#FF0000"/>
<path d="M52.8125 24.375H59.9219V57.8906H52.8125V24.375Z" fill="#FF0000"/>
<path d="M8.125 49.7656H15.2344V57.8906H8.125V49.7656Z" fill="#FF0000"/>
<path d="M9.14062 60.9375H14.2188V62.9688H9.14062V60.9375Z" fill="#E0EDFF"/>
<path d="M20.3125 60.9375H25.3906V62.9688H20.3125V60.9375Z" fill="#E0EDFF"/>
<path d="M31.4844 60.9375H36.5625V62.9688H31.4844V60.9375Z" fill="#E0EDFF"/>
<path d="M42.6562 60.9375H47.7344V62.9688H42.6562V60.9375Z" fill="#E0EDFF"/>
<path d="M53.8281 60.9375H58.9062V62.9688H53.8281V60.9375Z" fill="#E0EDFF"/>
<path d="M5.07812 56.875H62.9688V58.9062H5.07812V56.875Z" fill="#E0EDFF"/>
<path d="M39.7836 26.5805L37.4039 24.2007C37.1371 23.934 36.8205 23.7224 36.4719 23.578C36.1234 23.4337 35.7499 23.3594 35.3726 23.3594C34.9954 23.3594 34.6218 23.4337 34.2733 23.578C33.9248 23.7224 33.6081 23.934 33.3414 24.2007C33.0746 24.4675 32.863 24.7842 32.7187 25.1327C32.5743 25.4812 32.5 25.8548 32.5 26.232C32.5 26.6092 32.5743 26.9828 32.7187 27.3313C32.863 27.6798 33.0746 27.9964 33.3413 28.2632L32.3257 27.2476C32.059 26.9809 31.7423 26.7693 31.3938 26.6249C31.0453 26.4805 30.6717 26.4062 30.2945 26.4062H30.2945C29.9173 26.4063 29.5437 26.4806 29.1952 26.6249C28.8467 26.7693 28.53 26.9809 28.2632 27.2476C27.9965 27.5144 27.7849 27.831 27.6405 28.1796C27.4962 28.5281 27.4219 28.9016 27.4219 29.2789C27.4219 30.0407 27.7245 30.7714 28.2632 31.3101C27.9965 31.0434 27.6798 30.8318 27.3313 30.6874C26.9828 30.543 26.6092 30.4687 26.232 30.4688H26.232C25.8548 30.4688 25.4812 30.5431 25.1327 30.6874C24.7842 30.8318 24.4675 31.0434 24.2007 31.3101C23.934 31.5769 23.7224 31.8935 23.578 32.2421C23.4337 32.5906 23.3594 32.9641 23.3594 33.3414C23.3594 34.1032 23.662 34.8339 24.2007 35.3726C23.934 35.1059 23.6173 34.8943 23.2688 34.7499C22.9203 34.6055 22.5467 34.5312 22.1695 34.5312H22.1695C21.7923 34.5312 21.4187 34.6056 21.0702 34.7499C20.7217 34.8943 20.405 35.1059 20.1382 35.3726C19.8715 35.6394 19.6599 35.956 19.5155 36.3046C19.3712 36.6531 19.2969 37.0266 19.2969 37.4039C19.2969 38.1657 19.5995 38.8964 20.1382 39.4351L21.5024 40.7993C22.0411 41.338 22.7718 41.6406 23.5336 41.6406H23.5336C23.9109 41.6406 24.2844 41.5663 24.6329 41.422C24.9815 41.2776 25.2981 41.066 25.5649 40.7993C25.8316 40.5325 26.0432 40.2158 26.1876 39.8673C26.3319 39.5188 26.4063 39.1452 26.4062 38.768C26.4063 38.0061 26.1036 37.2755 25.5649 36.7368C26.1036 37.2755 26.8343 37.5781 27.5961 37.5781H27.5961C27.9734 37.5781 28.3469 37.5038 28.6954 37.3595C29.044 37.2151 29.3606 37.0035 29.6274 36.7368C29.8941 36.47 30.1057 36.1533 30.2501 35.8048C30.3944 35.4563 30.4688 35.0827 30.4688 34.7055C30.4687 33.9437 30.1661 33.213 29.6274 32.6743L30.643 33.6899C31.1817 34.2286 31.9124 34.5312 32.6743 34.5312C33.0515 34.5313 33.425 34.4569 33.7736 34.3126C34.1221 34.1682 34.4388 33.9566 34.7055 33.6899C34.9723 33.4231 35.1838 33.1065 35.3282 32.7579C35.4726 32.4094 35.5469 32.0359 35.5469 31.6586C35.5469 30.8968 35.2442 30.1661 34.7055 29.6274L35.7211 30.643C36.2598 31.1817 36.9905 31.4844 37.7524 31.4844C38.1296 31.4844 38.5032 31.4101 38.8517 31.2657C39.2002 31.1213 39.5169 30.9098 39.7836 30.643C40.0504 30.3763 40.262 30.0596 40.4063 29.7111C40.5507 29.3625 40.625 28.989 40.625 28.6118C40.625 27.8499 40.3223 27.1192 39.7836 26.5805Z" fill="#FFCB9B"/>
<path d="M27.4153 30.4683C27.6058 30.2778 27.8641 30.1709 28.1334 30.1709C28.4027 30.1709 28.661 30.2778 28.8515 30.4683L30.636 32.2528C30.8264 32.4433 30.9334 32.7016 30.9334 32.9709C30.9334 33.2402 30.8264 33.4985 30.636 33.6889C30.4456 33.8794 30.1873 33.9864 29.9179 33.9864C29.6486 33.9864 29.3903 33.8794 29.1999 33.6889L27.4153 31.9044C27.2249 31.714 27.1179 31.4557 27.1179 31.1863C27.1179 30.917 27.2249 30.6587 27.4153 30.4683Z" fill="#F4AA86"/>
<path d="M33.7552 27.248C33.3587 26.8514 32.7157 26.8514 32.3191 27.248C31.9226 27.6445 31.9226 28.2875 32.3191 28.6841L34.1037 30.4687C34.5003 30.8652 35.1433 30.8652 35.5398 30.4687C35.9364 30.0721 35.9364 29.4291 35.5398 29.0326L33.7552 27.248Z" fill="#F4AA86"/>
<path d="M23.3533 34.5304C23.5438 34.3399 23.8021 34.2329 24.0714 34.2329C24.3407 34.2329 24.599 34.3399 24.7894 34.5304L26.3997 36.1406C26.494 36.2349 26.5688 36.3469 26.6199 36.4701C26.6709 36.5933 26.6972 36.7253 26.6972 36.8587C26.6972 36.9921 26.6709 37.1241 26.6199 37.2473C26.5688 37.3705 26.494 37.4825 26.3997 37.5768C26.2093 37.7672 25.951 37.8742 25.6817 37.8742C25.4123 37.8742 25.154 37.7672 24.9636 37.5768L23.3533 35.9665C23.1629 35.776 23.0559 35.5177 23.0559 35.2484C23.0559 34.9791 23.1629 34.7208 23.3533 34.5304Z" fill="#F4AA86"/>
<path d="M41.6406 21.3281C46.6889 21.3281 50.7812 17.2357 50.7812 12.1875C50.7812 7.13927 46.6889 3.04688 41.6406 3.04688C36.5924 3.04688 32.5 7.13927 32.5 12.1875C32.5 17.2357 36.5924 21.3281 41.6406 21.3281Z" fill="#8DF5FF"/>
<path d="M41.6406 22.3437C39.6319 22.3437 37.6683 21.748 35.9981 20.6321C34.3279 19.5161 33.0262 17.9299 32.2575 16.0741C31.4888 14.2183 31.2876 12.1762 31.6795 10.2061C32.0714 8.23594 33.0387 6.42627 34.4591 5.00589C35.8795 3.58551 37.6891 2.61822 39.6592 2.22634C41.6294 1.83446 43.6714 2.03559 45.5273 2.80429C47.3831 3.57299 48.9692 4.87475 50.0852 6.54493C51.2012 8.21512 51.7969 10.1787 51.7969 12.1874C51.7938 14.8801 50.7228 17.4616 48.8188 19.3656C46.9148 21.2696 44.3333 22.3407 41.6406 22.3437ZM41.6406 4.06244C40.0337 4.06244 38.4628 4.53897 37.1266 5.43175C35.7905 6.32454 34.7491 7.59349 34.1341 9.07814C33.5191 10.5628 33.3582 12.1965 33.6717 13.7726C33.9853 15.3486 34.7591 16.7964 35.8954 17.9327C37.0317 19.069 38.4794 19.8428 40.0555 20.1563C41.6316 20.4698 43.2653 20.3089 44.7499 19.694C46.2346 19.079 47.5035 18.0376 48.3963 16.7015C49.2891 15.3653 49.7656 13.7944 49.7656 12.1874C49.7632 10.0333 48.9064 7.96809 47.3832 6.44489C45.86 4.92168 43.7948 4.06488 41.6406 4.06244Z" fill="#FFBD00"/>
<path d="M12.1875 17.2656H27.9297C28.6031 17.2656 29.2489 17.5331 29.7251 18.0093C30.2012 18.4855 30.4688 19.1313 30.4688 19.8047C30.4688 20.4781 30.2012 21.1239 29.7251 21.6001C29.2489 22.0762 28.6031 22.3438 27.9297 22.3438H21.3281L19.1226 24.5493C18.2119 25.46 17.1307 26.1824 15.9408 26.6753C14.7508 27.1682 13.4755 27.4219 12.1875 27.4219V17.2656Z" fill="#FFCB9B"/>
<path d="M12.1875 27.3695C12.1863 27.1199 12.2776 26.8787 12.4439 26.6924C12.6101 26.5062 12.8394 26.3881 13.0876 26.361C15.0995 26.1592 16.9788 25.2649 18.4045 23.8311L20.61 21.6255C20.7043 21.5313 20.8162 21.4565 20.9394 21.4054C21.0626 21.3544 21.1947 21.3281 21.328 21.3281H27.8851C28.2696 21.3326 28.642 21.1943 28.9304 20.94C29.2188 20.6857 29.4026 20.3334 29.4462 19.9514C29.4664 19.74 29.4422 19.5267 29.3752 19.3252C29.3082 19.1237 29.1999 18.9384 29.0571 18.7811C28.9144 18.6239 28.7403 18.4982 28.5462 18.4121C28.352 18.3261 28.1421 18.2815 27.9297 18.2812H8.125V16.25H27.8541C29.7883 16.25 31.4254 17.7637 31.4828 19.6971C31.4966 20.1726 31.415 20.6461 31.2428 21.0895C31.0705 21.533 30.811 21.9373 30.4798 22.2788C30.1485 22.6202 29.7522 22.8917 29.3142 23.0773C28.8762 23.2629 28.4054 23.3588 27.9297 23.3594H21.7488L19.8408 25.2675C18.0873 27.0309 15.7764 28.1314 13.3022 28.3812C13.1611 28.395 13.0186 28.3792 12.8839 28.3347C12.7493 28.2901 12.6255 28.2179 12.5205 28.1226C12.4155 28.0273 12.3316 27.911 12.2742 27.7813C12.2169 27.6516 12.1873 27.5114 12.1875 27.3695Z" fill="#F4AA86"/>
</svg>
