<svg width="111" height="111" viewBox="0 0 111 111" fill="none" xmlns="http://www.w3.org/2000/svg">
<path d="M0 87.5932C0 91.1853 2.9118 94.0971 6.50391 94.0971H45.9193V97.7896C45.9193 101.493 42.9169 104.496 39.2129 104.496H25.0405V111H85.9632V104.496H71.6715C67.9678 104.496 64.9651 101.494 64.9651 97.7896V94.0971H104.496C108.088 94.0971 111 91.1853 111 87.5932V83.9365H0L0 87.5932Z" fill="url(#paint0_linear)"/>
<path d="M44.3357 0.171143L31.0142 13.4927H44.3357V0.171143Z" fill="url(#paint1_linear)"/>
<path d="M80.1608 0H50.839V19.9967H30.8423V65.1041H80.1605V0L80.1608 0ZM70.1016 47.906H40.9019V41.4021H70.1016V47.906ZM70.1016 34.4932H40.9019V27.9893H70.1016V34.4932Z" fill="url(#paint2_linear)"/>
<path d="M104.496 13.4126H86.6648V71.6078H24.3387V13.4126H6.50391C2.9118 13.4126 0 16.3244 0 19.9165V77.4325H111V19.9165C111 16.3246 108.088 13.4126 104.496 13.4126Z" fill="url(#paint3_linear)"/>
<defs>
<linearGradient id="paint0_linear" x1="89.9216" y1="85.0225" x2="85.4033" y2="120.965" gradientUnits="userSpaceOnUse">
<stop stop-color="#FF0000"/>
<stop offset="1" stop-color="#CE0000"/>
</linearGradient>
<linearGradient id="paint1_linear" x1="41.806" y1="0.705702" x2="34.4858" y2="14.9034" gradientUnits="userSpaceOnUse">
<stop stop-color="#FF0000"/>
<stop offset="1" stop-color="#CE0000"/>
</linearGradient>
<linearGradient id="paint2_linear" x1="70.7954" y1="2.61246" x2="29.9414" y2="62.6377" gradientUnits="userSpaceOnUse">
<stop stop-color="#FF0000"/>
<stop offset="1" stop-color="#CE0000"/>
</linearGradient>
<linearGradient id="paint3_linear" x1="89.9216" y1="15.9816" x2="66.325" y2="95.3331" gradientUnits="userSpaceOnUse">
<stop stop-color="#FF0000"/>
<stop offset="1" stop-color="#CE0000"/>
</linearGradient>
</defs>
</svg>
