<svg width="31" height="31" viewBox="0 0 31 31" fill="none" xmlns="http://www.w3.org/2000/svg">
<g clip-path="url(#clip0)">
<path fill-rule="evenodd" clip-rule="evenodd" d="M25.7801 6.17711C23.0612 3.45499 19.4452 1.95521 15.593 1.95361C7.6551 1.95361 1.19479 8.41374 1.1916 16.3538C1.19053 18.892 1.85359 21.3696 3.1139 23.5536L1.0708 31.0161L8.7052 29.0135C10.8088 30.1609 13.177 30.7656 15.5871 30.7664H15.5932C23.5302 30.7664 29.9912 24.3057 29.9942 16.3653C29.9958 12.5171 28.4992 8.89906 25.7801 6.17711ZM15.593 28.3343H15.588C13.4403 28.3334 11.3338 27.7562 9.4958 26.6658L9.05891 26.4063L4.52854 27.5947L5.73776 23.1777L5.45306 22.7249C4.25483 20.819 3.62211 18.6163 3.62317 16.3547C3.62565 9.75511 8.9954 4.38589 15.5978 4.38589C18.7949 4.38696 21.8004 5.63361 24.0602 7.89613C26.3201 10.1587 27.5639 13.166 27.5628 16.3644C27.56 22.9645 22.1906 28.3343 15.593 28.3343ZM22.1587 19.3695C21.7989 19.1892 20.0297 18.319 19.6998 18.1987C19.3702 18.0787 19.13 18.0189 18.8904 18.379C18.6504 18.739 17.9609 19.5497 17.7509 19.7897C17.5408 20.0299 17.3312 20.06 16.9713 19.8798C16.6114 19.6998 15.452 19.3196 14.0774 18.0937C13.0078 17.1396 12.2857 15.9612 12.0757 15.6011C11.866 15.2407 12.0739 15.0647 12.2335 14.8668C12.6231 14.383 13.0131 13.8759 13.133 13.6359C13.2531 13.3957 13.193 13.1855 13.1029 13.0055C13.0131 12.8254 12.2935 11.0543 11.9937 10.3336C11.7014 9.63219 11.405 9.72691 11.184 9.71591C10.9743 9.70545 10.7343 9.70332 10.4943 9.70332C10.2545 9.70332 9.86458 9.79325 9.53465 10.1537C9.20489 10.514 8.2754 11.3844 8.2754 13.1556C8.2754 14.9267 9.56481 16.6378 9.74467 16.8779C9.92454 17.1181 12.2821 20.7527 15.8917 22.3112C16.7503 22.6823 17.4204 22.9035 17.9432 23.0693C18.8052 23.3432 19.5894 23.3045 20.2096 23.212C20.901 23.1085 22.3384 22.3414 22.6385 21.5009C22.9383 20.6603 22.9383 19.9399 22.8482 19.7897C22.7584 19.6396 22.5184 19.5497 22.1587 19.3695Z" fill="white"/>
</g>
<defs>
<clipPath id="clip0">
<rect width="31" height="31" fill="white"/>
</clipPath>
</defs>
</svg>
