<svg width="23" height="23" viewBox="0 0 23 23" fill="none" xmlns="http://www.w3.org/2000/svg">
<path fill-rule="evenodd" clip-rule="evenodd" d="M18.3747 3.69002C16.4368 1.74982 13.8596 0.680856 11.1139 0.679718C5.45614 0.679718 0.851558 5.28417 0.849282 10.9434C0.848524 12.7525 1.32112 14.5185 2.2194 16.0751L0.763184 21.394L6.2046 19.9666C7.70394 20.7845 9.3919 21.2155 11.1097 21.216H11.114C16.7711 21.216 21.3762 16.6112 21.3783 10.9516C21.3795 8.20888 20.3128 5.63008 18.3747 3.69002ZM11.1139 19.4825H11.1103C9.57952 19.4819 8.07817 19.0705 6.7681 18.2933L6.4567 18.1083L3.22768 18.9554L4.08956 15.8072L3.88664 15.4844C3.0326 14.126 2.58163 12.556 2.58238 10.9441C2.58415 6.24023 6.41144 2.41333 11.1173 2.41333C13.3961 2.41408 15.5382 3.30263 17.1489 4.91525C18.7596 6.52786 19.6461 8.67136 19.6454 10.951C19.6433 15.6552 15.8163 19.4825 11.1139 19.4825ZM15.7936 13.0929C15.5372 12.9644 14.2761 12.3441 14.041 12.2584C13.8061 12.1728 13.6349 12.1302 13.4641 12.3869C13.293 12.6435 12.8016 13.2213 12.6519 13.3924C12.5022 13.5636 12.3528 13.5851 12.0962 13.4566C11.8397 13.3283 11.0134 13.0573 10.0337 12.1836C9.27129 11.5035 8.75659 10.6636 8.6069 10.407C8.45746 10.1501 8.60563 10.0247 8.71942 9.88357C8.99706 9.53879 9.27508 9.17733 9.36055 9.00627C9.44614 8.83508 9.40328 8.68526 9.33905 8.55694C9.27508 8.42861 8.76215 7.16621 8.54849 6.65252C8.34013 6.15262 8.12887 6.22013 7.97133 6.21229C7.82189 6.20483 7.65083 6.20332 7.47977 6.20332C7.30884 6.20332 7.03095 6.26742 6.79579 6.52432C6.56076 6.7811 5.89826 7.40149 5.89826 8.6639C5.89826 9.9263 6.81728 11.1458 6.94548 11.317C7.07368 11.4882 8.75406 14.0788 11.3268 15.1896C11.9387 15.4541 12.4164 15.6117 12.7889 15.7299C13.4034 15.9251 13.9623 15.8976 14.4043 15.8316C14.8972 15.7579 15.9216 15.2111 16.1355 14.612C16.3492 14.0129 16.3492 13.4995 16.285 13.3924C16.221 13.2854 16.05 13.2213 15.7936 13.0929Z" fill="white"/>
</svg>
